<?xml version="1.0" encoding="utf-8"?>
<!-- Generator: Adobe Illustrator 26.0.1, SVG Export Plug-In . SVG Version: 6.00 Build 0)  -->
<svg version="1.1" id="Layer_1" xmlns="http://www.w3.org/2000/svg" xmlns:xlink="http://www.w3.org/1999/xlink" x="0px" y="0px"
	 viewBox="0 0 60 60" style="enable-background:new 0 0 60 60;" xml:space="preserve">
<g>
	<path d="M48.57,2.99c0.51,0.34,1.12,0.61,1.51,1.06c0.33,0.38,0.55,0.97,0.58,1.47c0.08,1.31,0.06,2.64,0.02,3.95
		c-0.04,1.34-1.13,2.45-2.47,2.48c-1.91,0.05-3.83,0.05-5.75,0c-1.42-0.03-2.5-1.16-2.54-2.59c-0.03-1.32-0.01-2.64-0.01-3.96
		c0-0.19,0-0.38,0-0.6c-0.18-0.01-0.32-0.03-0.46-0.03c-1.58,0-3.16-0.01-4.75,0c-2.22,0.01-3.74,1.44-3.79,3.66
		c-0.05,2.32-0.02,4.64,0,6.96c0,0.15,0.11,0.38,0.24,0.45c1.12,0.6,1.56,1.55,1.55,2.78c-0.01,3.67,0,7.35-0.01,11.02
		c0,0.37,0.05,0.65,0.37,0.91c0.43,0.36,0.53,0.88,0.53,1.43c-0.01,2.09,0,4.18,0,6.28c0,4.22,0,8.44,0,12.66c0,0.21,0,0.42,0,0.61
		c2.11,0.51,2.43,0.94,2.76,3.66c0.2,0,0.4,0,0.61,0c4.36,0,8.72,0,13.08,0c0.12,0,0.25,0,0.37,0c0.75,0,1.19,0.33,1.19,0.9
		c0,0.56-0.44,0.9-1.19,0.9c-15.4,0-30.79,0-46.19,0.01c-0.55,0-0.95-0.17-1.22-0.64c0-0.18,0-0.35,0-0.53
		c0.28-0.51,0.71-0.65,1.27-0.65c6.24,0.01,12.48,0.01,18.72,0.01c0.21,0,0.42,0,0.7,0c-0.1-1.94,0.54-3.33,2.72-3.64
		c0-0.18,0-0.38,0-0.58c0-6.22,0-12.44-0.01-18.67c0-0.77,0.09-1.46,0.75-1.98c0.12-0.1,0.14-0.38,0.14-0.57
		c0.01-3.66,0.02-7.31,0-10.97c-0.01-1.3,0.37-2.34,1.6-2.96c0.13-0.06,0.2-0.35,0.2-0.53c0.01-2.21,0.02-4.43,0.01-6.64
		c-0.01-1.9,0.66-3.5,2.23-4.58c0.73-0.5,1.64-0.74,2.47-1.09C38.72,2.99,43.65,2.99,48.57,2.99z M28.23,36.33
		c0,5.12,0,10.17,0,15.25c1.19,0,2.36,0,3.53,0c0-5.1,0-10.17,0-15.25C30.58,36.33,29.42,36.33,28.23,36.33z M30.88,29.97
		c0.01-0.15,0.02-0.25,0.02-0.35c0-3.69,0-7.38,0-11.07c0-0.14-0.02-0.28-0.04-0.42c-0.09-0.46-0.38-0.7-0.84-0.72
		c-0.46-0.02-0.79,0.27-0.88,0.74c-0.03,0.17-0.04,0.35-0.04,0.52c0,3.58,0,7.17,0,10.75c0,0.17,0,0.34,0,0.54
		C29.72,29.97,30.27,29.97,30.88,29.97z M25.53,55.18c3.02,0,5.98,0,8.96,0c0-0.34,0.03-0.66-0.01-0.96
		c-0.06-0.51-0.38-0.79-0.89-0.79c-2.39-0.01-4.77-0.01-7.16,0c-0.51,0-0.83,0.29-0.89,0.79C25.5,54.52,25.53,54.83,25.53,55.18z
		 M48.84,6.55c0.21-1.4-0.09-1.77-1.43-1.77c-1.7,0-3.41,0-5.11,0c-0.19,0-0.37,0-0.56,0c0,0.63,0,1.19,0,1.77
		C44.12,6.55,46.48,6.55,48.84,6.55z M41.71,8.41c0,0.32-0.02,0.62,0,0.91c0.04,0.51,0.37,0.85,0.89,0.85
		c1.79,0.02,3.58,0.01,5.38,0c0.46,0,0.79-0.24,0.87-0.69c0.06-0.35,0.01-0.72,0.01-1.08C46.46,8.41,44.11,8.41,41.71,8.41z
		 M31.78,31.82c-1.21,0-2.36,0-3.54,0c0,0.89,0,1.76,0,2.65c1.2,0,2.36,0,3.54,0C31.78,33.57,31.78,32.72,31.78,31.82z"/>
	<path d="M51.65,18.44c-0.18,0.19-0.36,0.51-0.64,0.66c-0.37,0.19-0.78,0.08-1.02-0.29c-0.23-0.35-0.41-0.73-0.6-1.11
		c-0.43-0.84-0.89-1.68-1.24-2.55c-0.12-0.29-0.07-0.75,0.1-1.01c0.14-0.2,0.57-0.3,0.87-0.28c0.21,0.01,0.47,0.25,0.58,0.46
		c0.61,1.16,1.19,2.34,1.77,3.52C51.55,17.98,51.57,18.14,51.65,18.44z"/>
	<path d="M40.14,19.17c-0.76,0.01-1.19-0.47-1.1-1c0.03-0.17,0.1-0.34,0.17-0.49c0.54-1.08,1.08-2.17,1.63-3.24
		c0.3-0.58,0.81-0.78,1.29-0.53c0.46,0.25,0.6,0.75,0.31,1.33c-0.54,1.1-1.08,2.21-1.66,3.29C40.61,18.82,40.28,19.03,40.14,19.17z"
		/>
	<path d="M51.55,11.89c0.33,0.19,0.6,0.29,0.79,0.47c0.86,0.83,1.7,1.67,2.53,2.53c0.43,0.44,0.44,0.93,0.08,1.31
		c-0.37,0.4-0.89,0.4-1.35-0.05c-0.87-0.84-1.72-1.7-2.57-2.57c-0.29-0.3-0.44-0.68-0.21-1.05C50.98,12.28,51.28,12.12,51.55,11.89z
		"/>
	<path d="M36.26,16.61c-0.27-0.22-0.62-0.38-0.73-0.63c-0.1-0.26-0.08-0.72,0.09-0.91c0.91-0.99,1.88-1.94,2.85-2.87
		c0.34-0.32,0.88-0.24,1.19,0.09c0.31,0.34,0.34,0.81,0,1.19c-0.39,0.45-0.83,0.86-1.25,1.28c-0.46,0.46-0.9,0.93-1.38,1.37
		C36.84,16.31,36.57,16.42,36.26,16.61z"/>
	<path d="M46.21,16.52c0,0.55,0.02,1.09,0,1.64c-0.02,0.64-0.37,1.02-0.9,1.02c-0.53,0-0.88-0.37-0.89-1.02
		c-0.02-1.11-0.02-2.22,0-3.32c0.01-0.65,0.36-1.02,0.89-1.02c0.53,0,0.88,0.38,0.9,1.02C46.23,15.39,46.21,15.96,46.21,16.52z"/>
	<path d="M55.21,57c-0.3,0-0.6,0.02-0.9,0c-0.54-0.04-0.91-0.43-0.89-0.92c0.01-0.47,0.37-0.84,0.89-0.86c0.6-0.02,1.2-0.02,1.79,0
		c0.51,0.02,0.88,0.39,0.9,0.86c0.02,0.48-0.36,0.88-0.89,0.92C55.81,57.02,55.51,57,55.21,57z"/>
</g>
</svg>
