<?xml version="1.0" encoding="utf-8"?>
<!-- Generator: Adobe Illustrator 26.0.1, SVG Export Plug-In . SVG Version: 6.00 Build 0)  -->
<svg version="1.1" id="Layer_1" xmlns="http://www.w3.org/2000/svg" xmlns:xlink="http://www.w3.org/1999/xlink" x="0px" y="0px"
	 viewBox="0 0 60 60" style="enable-background:new 0 0 60 60;" xml:space="preserve">
<g>
	<path d="M52,55.58c-0.34,0-0.59,0-0.84,0c-12.47,0-24.93,0-37.4,0c-2.65,0-4.68-1.06-5.76-3.53c-0.37-0.85-0.51-1.87-0.51-2.82
		C7.46,36.76,7.47,24.29,7.47,11.82c0-0.25,0-0.51,0-0.95c-0.67,0.67-1.21,1.25-1.8,1.78c-0.27,0.24-0.6,0.47-0.94,0.56
		c-0.61,0.17-1.21-0.15-1.5-0.68C2.93,11.97,3,11.35,3.49,10.85C4.5,9.8,5.54,8.78,6.57,7.74C6.99,7.32,7.4,6.9,7.83,6.49
		c0.67-0.63,1.46-0.65,2.11-0.02c1.46,1.44,2.91,2.89,4.35,4.35c0.61,0.62,0.6,1.46,0.04,2.02c-0.55,0.56-1.45,0.55-2.07-0.05
		c-0.62-0.6-1.2-1.22-1.8-1.84c-0.05,0.02-0.1,0.05-0.15,0.07c0,0.21,0,0.42,0,0.63c0,12.53,0,25.06,0,37.59
		c0,2.31,1.18,3.49,3.49,3.49c12.51,0,25.01,0,37.52,0c0.21,0,0.41,0,0.62,0c0.02-0.05,0.04-0.09,0.05-0.14
		c-0.57-0.56-1.14-1.13-1.71-1.7c-0.71-0.72-0.78-1.6-0.17-2.19c0.61-0.59,1.45-0.53,2.15,0.16c1.38,1.38,2.76,2.76,4.14,4.14
		c0.74,0.75,0.73,1.52-0.02,2.28c-1.37,1.39-2.75,2.77-4.14,4.14c-0.7,0.7-1.54,0.74-2.14,0.14c-0.59-0.59-0.53-1.46,0.15-2.15
		c0.54-0.55,1.08-1.09,1.62-1.64C51.9,55.76,51.91,55.73,52,55.58z"/>
	<path d="M56.94,27.73c0,5.29,0,10.57,0,15.86c0,0.22,0.01,0.44-0.02,0.65c-0.09,0.74-0.69,1.25-1.42,1.24
		c-0.73-0.01-1.31-0.54-1.39-1.27c-0.02-0.21-0.01-0.43-0.01-0.65c0-10.42,0-20.83,0-31.25c0-2.29-1.17-3.46-3.44-3.46
		c-10.38,0-20.75,0-31.13,0c-0.18,0-0.35,0-0.53,0c-0.88-0.03-1.48-0.63-1.46-1.45C17.56,6.6,18.15,6.02,19,6.01
		c1.12-0.02,2.24,0,3.37,0c9.51,0,19.02,0,28.53,0c2.9,0,5.2,1.75,5.86,4.46c0.14,0.57,0.18,1.17,0.18,1.76
		C56.95,17.39,56.94,22.56,56.94,27.73z"/>
	<path d="M21.81,22.69c2.43-1.1,4.6-0.71,6.56,1.13c0.83-0.82,1.78-1.4,2.93-1.64c3.2-0.69,6.43,1.77,6.47,5.05
		c0.06,4.64,0.02,9.27,0.02,13.91c0,0.89-0.61,1.48-1.43,1.47c-0.84-0.01-1.39-0.62-1.39-1.57c-0.01-4.4,0-8.8,0-13.2
		c0-0.28,0.01-0.56-0.05-0.82c-0.27-1.34-1.42-2.19-2.81-2.07c-1.26,0.1-2.26,1.15-2.32,2.49c-0.03,0.79-0.01,1.58-0.01,2.37
		c0,3.63,0,7.26,0,10.89c0,0.22,0.01,0.44-0.01,0.65c-0.06,0.67-0.56,1.19-1.21,1.26c-0.7,0.08-1.32-0.29-1.52-0.95
		c-0.08-0.28-0.1-0.58-0.1-0.87c-0.01-4.42,0-8.84-0.01-13.26c0-1.3-0.91-2.36-2.11-2.56c-1.29-0.21-2.5,0.48-2.9,1.7
		c-0.12,0.39-0.16,0.81-0.16,1.22c-0.01,4.26-0.01,8.53-0.01,12.79c0,0.24,0,0.47-0.02,0.71c-0.07,0.69-0.61,1.2-1.29,1.23
		c-0.7,0.04-1.29-0.37-1.45-1.04c-0.06-0.25-0.07-0.51-0.07-0.76c0-5.86,0-11.72,0-17.58c0-0.25,0.01-0.52,0.07-0.76
		c0.13-0.58,0.63-1,1.21-1.05c0.61-0.05,1.07,0.2,1.38,0.73C21.68,22.3,21.73,22.49,21.81,22.69z"/>
	<path d="M44.71,25.82c0.83,0,1.5-0.03,2.16,0.01c1.07,0.07,1.71,1.02,1.32,1.95c-0.22,0.53-0.64,0.86-1.23,0.87
		c-1.59,0.01-3.19,0.02-4.78,0c-0.74-0.01-1.27-0.41-1.54-1.09c-0.29-0.73-0.13-1.39,0.4-1.96c1.38-1.49,2.77-2.97,4.15-4.46
		c0.42-0.46,0.48-1.08,0.17-1.58c-0.32-0.52-0.97-0.77-1.54-0.58c-0.61,0.2-0.9,0.64-0.97,1.28c-0.09,0.8-0.51,1.28-1.15,1.39
		c-0.91,0.16-1.66-0.48-1.67-1.44c-0.03-2,1.54-3.81,3.55-4.1c2.06-0.3,4.05,0.95,4.62,2.93c0.45,1.54,0.1,2.93-0.97,4.11
		C46.44,23.99,45.63,24.83,44.71,25.82z"/>
</g>
</svg>
