<?xml version="1.0" encoding="utf-8"?>
<!-- Generator: Adobe Illustrator 26.0.1, SVG Export Plug-In . SVG Version: 6.00 Build 0)  -->
<svg version="1.1" id="Layer_1" xmlns="http://www.w3.org/2000/svg" xmlns:xlink="http://www.w3.org/1999/xlink" x="0px" y="0px"
	 viewBox="0 0 60 60" style="enable-background:new 0 0 60 60;" xml:space="preserve">
<g>
	<path d="M54.3,33.61c-1.83,0-3.57,0-5.35,0c0,5.37,0,10.74,0,16.19c0.18,0,0.38,0,0.58,0c2.1,0,4.2,0,6.3,0
		c0.88,0,1.17,0.3,1.18,1.19c0,1.01,0,2.02,0,3.04c0,0.88-0.3,1.18-1.19,1.18c-4.95,0-9.9,0-14.85,0c-12.2,0-24.41,0-36.61,0
		C3.24,55.2,3,54.96,3,53.85c0-0.99-0.01-1.99,0-2.98c0.01-0.73,0.33-1.06,1.07-1.06c2.12-0.01,4.24,0,6.36,0c0.2,0,0.41,0,0.64,0
		c0-5.41,0-10.78,0-16.17c-1.78,0-3.53,0-5.37,0c0,0.86,0.01,1.71,0,2.56c-0.01,0.62-0.37,1.01-0.9,1c-0.49,0-0.88-0.37-0.89-0.9
		c-0.02-1.2-0.02-2.4,0-3.6c0.01-0.53,0.36-0.85,0.9-0.89c0.24-0.02,0.49,0,0.73,0c0.22,0,0.45,0,0.74,0
		c-0.06-0.25-0.1-0.46-0.16-0.67c-0.41-1.44-0.83-2.88-1.23-4.32c-0.23-0.83,0.14-1.3,1.01-1.31c0.19,0,0.38-0.03,0.56,0
		c1.25,0.23,2.17-0.27,2.85-1.4c-0.25-0.26-0.54-0.56-0.83-0.86c-0.51-0.52-1.04-1.03-1.55-1.55c-0.41-0.43-0.42-0.93-0.07-1.31
		C7.22,20,7.76,20,8.2,20.43c0.8,0.79,1.58,1.6,2.43,2.46c0.37-0.37,0.7-0.71,1.05-1.04c0.48-0.47,0.99-0.52,1.39-0.15
		c0.41,0.39,0.38,0.93-0.12,1.43c-0.75,0.76-1.51,1.51-2.38,2.37c0.91,0,1.69,0,2.46,0c0.22,0,0.45-0.01,0.67,0
		c0.75,0.03,1.13,0.52,0.93,1.24c-0.43,1.55-0.88,3.1-1.32,4.65c-0.03,0.11-0.06,0.21-0.09,0.37c1.09,0,2.14,0,3.24,0
		c0-7.15,0-14.32,0-21.56c-0.54,0-1.07,0.01-1.61,0c-0.71-0.01-1.04-0.33-1.05-1.03c-0.01-1.12-0.01-2.25,0-3.37
		c0.01-0.64,0.34-0.96,0.97-0.99c0.11-0.01,0.22,0,0.34,0c9.92,0,19.83,0,29.75,0c1.08,0,1.33,0.25,1.33,1.31c0,0.97,0,1.95,0,2.92
		c0,0.85-0.31,1.16-1.14,1.16c-0.47,0-0.94,0.01-1.41,0.01c-0.03,0-0.06,0.03-0.12,0.05c0,7.14,0,14.3,0,21.53c0.2,0,0.39,0,0.59,0
		c3.58,0,7.16,0,10.74,0c0.96,0,1.24,0.28,1.24,1.24c0,1.03,0.01,2.06,0,3.09c0,0.66-0.36,1.07-0.9,1.06c-0.54,0-0.89-0.4-0.9-1.07
		C54.29,35.31,54.3,34.49,54.3,33.61z M29.06,20.08c0-3.31,0-6.58,0-9.83c-3.61,0-7.17,0-10.73,0c0,3.3,0,6.55,0,9.83
		C21.91,20.08,25.47,20.08,29.06,20.08z M41.66,20.08c0-3.31,0-6.58,0-9.83c-3.61,0-7.17,0-10.73,0c0,3.3,0,6.55,0,9.83
		C34.51,20.08,38.07,20.08,41.66,20.08z M18.33,31.76c3.61,0,7.18,0,10.73,0c0-3.31,0-6.57,0-9.83c-3.6,0-7.15,0-10.73,0
		C18.33,25.21,18.33,28.47,18.33,31.76z M30.92,31.76c3.62,0,7.19,0,10.75,0c0-3.3,0-6.55,0-9.82c-3.59,0-7.16,0-10.75,0
		C30.92,25.22,30.92,28.47,30.92,31.76z M55.17,51.64c-16.81,0-33.58,0-50.34,0c0,0.59,0,1.15,0,1.73c16.79,0,33.56,0,50.34,0
		C55.17,52.79,55.17,52.23,55.17,51.64z M18.26,49.77c0-5.41,0-10.78,0-16.13c-1.81,0-3.57,0-5.33,0c0,5.4,0,10.75,0,16.13
		C14.71,49.77,16.47,49.77,18.26,49.77z M20.14,33.63c0,5.41,0,10.78,0,16.13c1.81,0,3.58,0,5.33,0c0-5.4,0-10.75,0-16.13
		C23.69,33.63,21.93,33.63,20.14,33.63z M27.34,33.63c0,5.41,0,10.77,0,16.13c1.81,0,3.57,0,5.33,0c0-5.4,0-10.75,0-16.13
		C30.89,33.63,29.13,33.63,27.34,33.63z M34.52,49.77c1.82,0,3.57,0,5.35,0c0-5.39,0-10.76,0-16.13c-1.8,0-3.57,0-5.35,0
		C34.52,39.03,34.52,44.38,34.52,49.77z M41.74,33.63c0,5.41,0,10.77,0,16.13c1.81,0,3.57,0,5.33,0c0-5.4,0-10.75,0-16.13
		C45.29,33.63,43.53,33.63,41.74,33.63z M15.63,8.36c9.61,0,19.18,0,28.75,0c0-0.59,0-1.15,0-1.73c-9.59,0-19.16,0-28.75,0
		C15.63,7.22,15.63,7.77,15.63,8.36z M8.18,31.79c1.08,0,2.09,0,3.15,0c0.42-1.48,0.84-2.95,1.27-4.46c-1.93,0-3.78,0-5.69,0
		C7.33,28.83,7.75,30.3,8.18,31.79z"/>
</g>
</svg>
