<?xml version="1.0" encoding="utf-8"?>
<!-- Generator: Adobe Illustrator 26.0.1, SVG Export Plug-In . SVG Version: 6.00 Build 0)  -->
<svg version="1.1" id="Layer_1" xmlns="http://www.w3.org/2000/svg" xmlns:xlink="http://www.w3.org/1999/xlink" x="0px" y="0px"
	 viewBox="0 0 60 60" style="enable-background:new 0 0 60 60;" xml:space="preserve">
<g>
	<path d="M57,36.43c-0.51,1.43-1.55,2-3.02,1.88c-0.24-0.02-0.49,0-0.8,0c0,0.22,0,0.4,0,0.59c0.04,1.37,0.07,2.74,0.12,4.11
		c0.01,0.33-0.09,0.5-0.38,0.65c-1.81,0.96-3.61,1.95-5.43,2.91c-0.4,0.21-0.69,0.49-0.91,0.9c-0.96,1.82-1.95,3.62-2.91,5.43
		c-0.16,0.31-0.34,0.41-0.69,0.4c-2.11-0.08-4.22-0.15-6.32-0.19c-0.29-0.01-0.63,0.09-0.88,0.24c-1.8,1.09-3.6,2.19-5.38,3.31
		c-0.3,0.19-0.5,0.18-0.79,0c-1.8-1.13-3.61-2.24-5.43-3.34c-0.22-0.14-0.52-0.22-0.78-0.21c-2.13,0.04-4.25,0.11-6.38,0.19
		c-0.35,0.01-0.53-0.09-0.69-0.4c-0.99-1.86-1.98-3.72-3.01-5.56c-0.15-0.27-0.41-0.52-0.68-0.67c-1.84-1.02-3.7-2.02-5.56-3.01
		c-0.29-0.15-0.39-0.32-0.38-0.65c0.06-1.37,0.09-2.74,0.12-4.11c0-0.17,0-0.34,0-0.59c-0.46,0-0.9,0.01-1.33,0
		C4.02,38.29,3.01,37.3,3,35.83C3,31.94,3,28.06,3,24.17c0-1.47,1.01-2.47,2.49-2.49c0.42-0.01,0.84,0,1.33,0c0-0.22,0-0.4,0-0.59
		c-0.04-1.37-0.07-2.74-0.12-4.11c-0.01-0.33,0.09-0.5,0.38-0.65c1.84-0.98,3.69-1.97,5.51-2.98c0.3-0.17,0.59-0.45,0.75-0.74
		c1.02-1.82,2.01-3.67,2.98-5.51c0.16-0.31,0.34-0.41,0.69-0.4c2.12,0.08,4.25,0.14,6.38,0.19c0.26,0.01,0.56-0.08,0.78-0.21
		C26,5.57,27.8,4.46,29.6,3.33c0.29-0.18,0.5-0.19,0.79,0c1.78,1.12,3.58,2.23,5.38,3.31c0.25,0.15,0.58,0.25,0.88,0.24
		c2.11-0.04,4.22-0.11,6.32-0.19c0.35-0.01,0.53,0.09,0.69,0.4c0.95,1.8,1.94,3.58,2.89,5.39c0.23,0.44,0.54,0.74,0.98,0.97
		c1.8,0.95,3.58,1.94,5.38,2.89c0.29,0.15,0.39,0.32,0.38,0.65c-0.06,1.37-0.09,2.74-0.12,4.11c0,0.17,0,0.35,0,0.6
		c1.65-0.13,3.2-0.03,3.82,1.87C57,27.86,57,32.14,57,36.43z M32.41,36.73c0.25,0,0.46,0,0.67,0c7.06,0,14.13,0,21.19,0
		c0.92,0,1.15-0.24,1.15-1.16c0-3.71,0-7.42,0-11.13c0-0.95-0.22-1.18-1.18-1.18c-16.17,0-32.34,0-48.5,0
		c-0.92,0-1.15,0.23-1.15,1.15c0,3.69,0,7.38,0,11.07c0,1.03,0.21,1.24,1.23,1.24c7.05,0,14.09,0,21.14,0c0.21,0,0.41,0,0.63,0
		c0,0.55,0,1.05,0,1.59c-4.59,0-9.13,0-13.69,0c2.34,5.03,8.54,10.05,16.52,9.86c8.18-0.19,13.83-5.65,15.69-9.88
		c-4.56,0-9.11,0-13.69,0C32.41,37.78,32.41,37.3,32.41,36.73z M51.55,21.68c0.02-0.25,0.03-0.45,0.04-0.66
		c0.03-1.02,0.03-2.04,0.09-3.06c0.02-0.38-0.1-0.56-0.42-0.73c-1.71-0.9-3.41-1.82-5.1-2.75c-0.26-0.14-0.5-0.38-0.64-0.64
		c-0.93-1.67-1.84-3.35-2.73-5.05c-0.21-0.4-0.44-0.49-0.86-0.47c-1.91,0.08-3.83,0.13-5.74,0.16c-0.28,0-0.59-0.09-0.83-0.23
		c-1.67-1-3.33-2.03-4.98-3.06C30.1,5,29.91,5,29.63,5.18c-1.65,1.04-3.31,2.06-4.98,3.06c-0.24,0.14-0.55,0.24-0.83,0.23
		c-1.95-0.03-3.9-0.08-5.85-0.16c-0.37-0.01-0.56,0.1-0.73,0.42c-0.91,1.72-1.83,3.44-2.78,5.14c-0.13,0.23-0.34,0.45-0.57,0.58
		c-1.44,0.8-2.87,1.65-4.36,2.33c-0.97,0.44-1.35,0.99-1.2,2.07c0.13,0.91,0.03,1.85,0.03,2.83c1.14,0,2.16-0.02,3.17,0.01
		c0.39,0.01,0.58-0.11,0.76-0.46c1.02-2.11,2.4-3.97,4.1-5.57c0.65-0.61,1.34-1.16,2.04-1.75c0.35,0.49,0.64,0.9,0.94,1.31
		c-2.35,1.75-4.2,3.84-5.53,6.43c10.8,0,21.53,0,32.27,0c-3.98-8.33-15.53-13.13-25.48-7.29c-0.26-0.43-0.52-0.86-0.79-1.31
		c0.17-0.11,0.3-0.19,0.44-0.27c6.7-3.55,13.37-3.48,19.93,0.3c3.34,1.92,5.81,4.72,7.53,8.18c0.08,0.17,0.26,0.4,0.4,0.41
		C49.26,21.7,50.39,21.68,51.55,21.68z M8.45,38.32c-0.02,0.24-0.04,0.43-0.04,0.62c-0.03,1.02-0.03,2.04-0.09,3.06
		c-0.02,0.39,0.09,0.6,0.43,0.78c1.71,0.9,3.41,1.82,5.09,2.75c0.26,0.14,0.5,0.39,0.64,0.65c0.94,1.7,1.87,3.42,2.78,5.14
		c0.15,0.29,0.33,0.39,0.66,0.38c1.93-0.07,3.86-0.13,5.8-0.16c0.33,0,0.7,0.09,0.98,0.26c1.66,0.99,3.3,2.01,4.94,3.03
		c0.28,0.18,0.47,0.17,0.75,0c1.65-1.04,3.31-2.06,4.98-3.06c0.24-0.14,0.55-0.24,0.83-0.23c1.93,0.03,3.87,0.08,5.8,0.16
		c0.39,0.02,0.6-0.08,0.78-0.43c0.9-1.71,1.82-3.41,2.75-5.1c0.14-0.26,0.39-0.5,0.65-0.64c1.7-0.94,3.42-1.86,5.14-2.78
		c0.29-0.15,0.39-0.32,0.38-0.66c-0.05-1.05-0.06-2.11-0.09-3.16c-0.01-0.19-0.03-0.38-0.04-0.61c-1.04,0-2.04,0.02-3.04-0.01
		c-0.44-0.02-0.63,0.14-0.82,0.53c-5.47,11.02-19.7,14.39-29.53,7.01c-2.53-1.9-4.5-4.27-5.91-7.11c-0.08-0.16-0.26-0.39-0.4-0.4
		C10.73,38.3,9.61,38.32,8.45,38.32z"/>
	<path d="M41.98,33.82c-1.03,0.3-1.67-0.02-2.15-0.96c-0.57-1.1-1.3-2.12-1.97-3.18c-0.09-0.14-0.19-0.27-0.36-0.51
		c0,1.66,0,3.2,0,4.78c-0.53,0-1.03,0-1.56,0c0-2.63,0-5.25,0-7.94c0.44,0,0.88-0.03,1.31,0.02c0.15,0.02,0.3,0.21,0.4,0.36
		c0.81,1.27,1.61,2.55,2.41,3.83c0.09,0.14,0.19,0.28,0.37,0.53c0-1.65,0-3.17,0-4.72c0.53,0,1.02,0,1.54,0
		C41.98,28.63,41.98,31.23,41.98,33.82z"/>
	<path d="M9.08,34c0-2.7,0-5.32,0-7.98c0.99,0,1.96-0.06,2.91,0.01c1.25,0.09,2.59,1.53,1.65,3.47c0.5,0.5,0.86,1.08,0.89,1.83
		c0.06,1.38-0.93,2.56-2.31,2.65C11.35,34.04,10.47,34,9.6,34C9.44,34.01,9.28,34,9.08,34z M10.65,32.41c0.52,0,0.99,0.03,1.46-0.01
		c0.5-0.04,0.83-0.44,0.84-0.92c0-0.46-0.3-0.87-0.77-0.92c-0.5-0.05-1-0.01-1.52-0.01C10.65,31.19,10.65,31.76,10.65,32.41z
		 M10.67,28.95c0.37,0,0.7,0.01,1.03,0c0.41-0.01,0.66-0.24,0.68-0.65c0.02-0.42-0.24-0.66-0.64-0.7c-0.34-0.04-0.69-0.01-1.07-0.01
		C10.67,28.05,10.67,28.46,10.67,28.95z"/>
	<path d="M20.86,30.85c0.66,0.79,1.28,1.52,1.94,2.3c-0.4,0.34-0.79,0.67-1.2,1.02c-0.77-0.91-1.51-1.78-2.36-2.78
		c0,0.94,0,1.74,0,2.58c-0.55,0-1.04,0-1.56,0c0-2.63,0-5.27,0-7.92c0.96,0,1.91-0.08,2.84,0.02c1.14,0.12,1.97,0.99,2.11,2.03
		c0.16,1.13-0.36,2.06-1.45,2.6C21.1,30.74,21.02,30.77,20.86,30.85z M19.25,29.36c0.64-0.04,1.32,0.18,1.69-0.49
		c0.12-0.22,0.1-0.65-0.04-0.86c-0.4-0.59-1.04-0.41-1.65-0.39C19.25,28.19,19.25,28.73,19.25,29.36z"/>
	<path d="M45.1,33.8c0-2.63,0-5.17,0-7.81c1.21,0.08,2.42-0.17,3.6,0.19c0.8,0.24,1.38,0.78,1.74,1.52
		c0.68,1.43,0.71,2.89,0.01,4.32c-0.58,1.17-1.56,1.78-2.88,1.78C46.76,33.8,45.96,33.8,45.1,33.8z M46.71,27.61
		c0,1.55,0,3.06,0,4.57c1.81,0.16,2.67-0.55,2.65-2.26C49.35,28.48,48.89,27.33,46.71,27.61z"/>
	<path d="M32.78,33.58c-0.51,0.19-0.96,0.37-1.47,0.56c-0.2-0.51-0.4-0.99-0.56-1.48c-0.09-0.26-0.23-0.34-0.5-0.34
		c-0.67,0.02-1.34,0.03-2,0c-0.33-0.01-0.46,0.13-0.56,0.41c-0.16,0.46-0.34,0.91-0.53,1.4c-0.5-0.19-0.95-0.36-1.44-0.55
		c0.03-0.13,0.05-0.24,0.09-0.35c0.87-2.28,1.74-4.55,2.6-6.83c0.12-0.32,0.28-0.42,0.61-0.41c0.9,0.01,0.9,0,1.21,0.83
		C31.07,29.05,31.91,31.28,32.78,33.58z M29.24,28.68c-0.29,0.76-0.52,1.38-0.77,2.04c0.55,0,1.02,0,1.54,0
		C29.76,30.06,29.52,29.43,29.24,28.68z"/>
	<path d="M30.75,38.3c-0.5,0-0.97,0-1.49,0c0-0.51,0-1,0-1.53c0.48,0,0.96,0,1.49,0C30.75,37.26,30.75,37.75,30.75,38.3z"/>
	<path d="M36.3,16.53c-0.53,0-1.01,0-1.53,0c0-0.51,0-1,0-1.52c0.5,0,1,0,1.53,0C36.3,15.51,36.3,15.99,36.3,16.53z"/>
	<path d="M37.93,18.09c0-0.51,0-0.98,0-1.5c0.51,0,1.01,0,1.54,0c0,0.49,0,0.97,0,1.5C38.97,18.09,38.47,18.09,37.93,18.09z"/>
</g>
</svg>
