<?xml version="1.0" encoding="utf-8"?>
<!-- Generator: Adobe Illustrator 26.0.1, SVG Export Plug-In . SVG Version: 6.00 Build 0)  -->
<svg version="1.1" id="Layer_1" xmlns="http://www.w3.org/2000/svg" xmlns:xlink="http://www.w3.org/1999/xlink" x="0px" y="0px"
	 viewBox="0 0 60 60" style="enable-background:new 0 0 60 60;" xml:space="preserve">
<g>
	<path d="M31.62,51.53c-6.25,0-12.43,0-18.69,0c0,0.86,0,1.69,0,2.53c0,1.96-0.96,2.93-2.9,2.93c-0.97,0-1.94,0.01-2.92,0
		c-1.52-0.01-2.58-1.07-2.59-2.59c-0.01-1.04,0.01-2.09-0.01-3.13c-0.01-0.22-0.11-0.48-0.26-0.66c-0.46-0.56-0.73-1.18-0.73-1.92
		c0.01-1.75-0.01-3.49,0.02-5.24c0.01-0.29,0.16-0.62,0.33-0.87c0.26-0.39,0.57-0.74,0.9-1.07c1.5-1.48,2.5-3.25,3.22-5.22
		c0.53-1.47,1.18-2.89,1.81-4.32c1.07-2.44,2.95-3.7,5.62-3.71c4.88-0.02,9.76-0.01,14.63,0c2.73,0,4.83,1.48,5.78,4.04
		c0.68,1.85,1.34,3.72,2.04,5.57c0.15,0.39,0.37,0.77,0.62,1.11c0.9,1.21,1.85,2.39,2.75,3.61c0.19,0.25,0.31,0.61,0.32,0.93
		c0.03,1.69,0.01,3.38,0.02,5.07c0.01,1.05-0.41,1.87-1.27,2.48c-0.14,0.1-0.25,0.34-0.26,0.51c-0.03,0.92-0.01,1.84-0.01,2.75
		c-0.01,1.59-1.06,2.64-2.64,2.65c-1.06,0.01-2.12,0.01-3.19,0c-1.52-0.01-2.57-1.07-2.59-2.59C31.61,53.47,31.62,52.53,31.62,51.53
		z M22.55,49.84c5.31,0,10.62,0,15.92,0c1.02,0,1.41-0.38,1.42-1.39c0.01-1.48,0.01-2.95-0.01-4.43c0-0.26-0.11-0.57-0.26-0.78
		c-0.67-0.91-1.39-1.79-2.06-2.71c-0.24-0.33-0.5-0.43-0.9-0.43c-4.03,0.01-8.06,0.01-12.09,0.01c-5.29,0-10.58,0-15.87,0.01
		c-0.25,0-0.58,0.1-0.74,0.28c-0.85,0.93-1.66,1.89-2.46,2.87c-0.17,0.21-0.28,0.54-0.29,0.82c-0.03,1.4-0.01,2.81-0.01,4.21
		c0,1.2,0.34,1.54,1.54,1.54C12.01,49.84,17.28,49.84,22.55,49.84z M8.91,38.39c5.21,0,10.33,0,15.45,0
		c0.38-2.53,1.92-4.08,4.23-4.25c1-0.07,1.93,0.19,2.75,0.77c1.21,0.84,1.83,2.03,1.97,3.49c0.99,0,1.94,0,2.92,0
		c-0.04-0.15-0.07-0.27-0.11-0.38c-0.63-1.74-1.25-3.48-1.9-5.21c-0.67-1.77-1.98-2.82-3.87-2.84c-5.07-0.05-10.14-0.04-15.22,0
		c-1.58,0.01-2.85,0.78-3.52,2.2C10.63,34.18,9.81,36.27,8.91,38.39z M6.23,51.54c0,1.05-0.02,2.07,0.01,3.09
		c0.01,0.4,0.33,0.65,0.73,0.65c1.17,0.01,2.34,0.04,3.51-0.03c0.25-0.01,0.67-0.37,0.69-0.6c0.07-1.03,0.03-2.07,0.03-3.13
		C9.53,51.54,7.9,51.54,6.23,51.54z M33.33,51.53c0,1.04-0.02,2.03,0.01,3.02c0.01,0.46,0.31,0.73,0.77,0.74
		c1.15,0.02,2.3,0.04,3.45-0.02c0.26-0.01,0.7-0.36,0.72-0.57c0.08-1.05,0.03-2.1,0.03-3.16C36.63,51.53,35.01,51.53,33.33,51.53z
		 M31.57,38.4c-0.15-1.61-1.45-2.7-3.02-2.56c-1.33,0.12-2.5,1.36-2.4,2.56C27.96,38.4,29.76,38.4,31.57,38.4z"/>
	<path d="M44.45,25.38c-0.31,0-0.52,0-0.73,0c-2.07,0-4.14,0.03-6.21-0.02c-1.9-0.04-3.4-1.59-3.41-3.49
		c-0.02-5.11-0.02-10.22,0-15.33c0.01-1.94,1.56-3.52,3.5-3.53c5.13-0.02,10.26-0.02,15.39,0c1.92,0.01,3.47,1.56,3.48,3.48
		c0.02,5.13,0.02,10.26,0,15.38c-0.01,1.94-1.51,3.45-3.46,3.48c-2.07,0.04-4.14,0.01-6.21,0.02c-0.19,0-0.39,0-0.67,0
		c0,0.28,0,0.5,0,0.73c0,9.82,0,19.65,0,29.47c0,0.23,0.01,0.47-0.02,0.7c-0.07,0.46-0.37,0.7-0.82,0.7
		c-0.45-0.01-0.74-0.26-0.81-0.72c-0.03-0.21-0.02-0.43-0.02-0.65c0-9.82,0-19.65,0-29.47C44.45,25.92,44.45,25.69,44.45,25.38z
		 M35.79,14.2c0,2.43,0,4.86,0,7.29c0,1.51,0.71,2.22,2.21,2.22c4.86,0,9.72,0,14.58,0c1.48,0,2.22-0.74,2.22-2.22
		c0-4.86,0-9.72,0-14.58c0-1.5-0.71-2.21-2.22-2.21c-4.86,0-9.72,0-14.58,0c-1.52,0-2.21,0.7-2.21,2.21
		C35.79,9.34,35.79,11.77,35.79,14.2z"/>
	<path d="M32.93,47.82c-0.52,0-1.04,0.01-1.57,0c-1.08-0.03-1.87-0.76-1.95-1.85c-0.04-0.54-0.04-1.08,0-1.62
		c0.07-1.1,0.81-1.85,1.91-1.88c1.08-0.04,2.16-0.04,3.24,0c1.13,0.04,1.89,0.86,1.91,2c0.01,0.45,0.01,0.9,0,1.35
		c-0.03,1.17-0.84,1.98-2.03,2C33.94,47.82,33.43,47.82,32.93,47.82z M32.96,44.15c-0.14,0-0.29,0-0.43,0
		c-1.7,0.04-1.41-0.32-1.45,1.5c-0.01,0.35,0.13,0.49,0.47,0.48c0.59-0.02,1.19,0.01,1.78-0.01c1.72-0.04,1.4,0.33,1.44-1.49
		c0.01-0.34-0.11-0.5-0.47-0.48C33.86,44.16,33.41,44.15,32.96,44.15z"/>
	<path d="M12.14,47.82c-0.52,0-1.04,0.01-1.57,0c-1.12-0.03-1.92-0.84-1.95-1.96c-0.01-0.47-0.01-0.94,0-1.4
		c0.02-1.11,0.77-1.93,1.87-1.98c1.11-0.05,2.23-0.05,3.35,0c1.05,0.05,1.76,0.79,1.83,1.84c0.04,0.54,0.04,1.08,0,1.62
		c-0.07,1.11-0.86,1.86-1.97,1.88C13.19,47.83,12.66,47.82,12.14,47.82z M12.16,46.11C12.16,46.12,12.16,46.12,12.16,46.11
		c0.14,0,0.29,0,0.43,0c1.68-0.04,1.38,0.33,1.42-1.52c0.01-0.32-0.13-0.46-0.45-0.45c-0.61,0.01-1.22-0.01-1.83,0
		c-1.66,0.04-1.38-0.32-1.41,1.47c0,0.04-0.01,0.09,0,0.11c0.12,0.13,0.25,0.36,0.38,0.37C11.19,46.14,11.68,46.11,12.16,46.11z"/>
	<path d="M22.52,45.98c-0.65,0-1.3,0.01-1.94,0c-0.56-0.01-0.93-0.35-0.94-0.84c0-0.47,0.36-0.84,0.92-0.85
		c1.31-0.02,2.63-0.02,3.94,0c0.56,0.01,0.93,0.37,0.94,0.84c0,0.5-0.38,0.84-0.98,0.85C23.82,45.99,23.17,45.98,22.52,45.98z"/>
	<path d="M43.41,15.04c0,1.4,0,2.73,0,4.06c0,0.2,0.01,0.4-0.01,0.59c-0.04,0.45-0.38,0.78-0.8,0.79c-0.42,0.01-0.78-0.3-0.84-0.75
		c-0.02-0.16-0.02-0.32-0.02-0.48c0-3.36,0-6.73,0-10.09c0-1.02,0.22-1.24,1.23-1.25c1.1,0,2.19-0.01,3.29,0
		c1.66,0.01,2.59,0.96,2.6,2.63c0,0.67,0.01,1.33,0,2c-0.03,1.53-0.97,2.48-2.51,2.5C45.38,15.05,44.42,15.04,43.41,15.04z
		 M43.43,13.36c1.06,0,2.07,0.02,3.09-0.01c0.39-0.01,0.63-0.27,0.64-0.67c0.02-0.79,0.05-1.58-0.02-2.37
		c-0.02-0.25-0.33-0.65-0.54-0.67c-1.05-0.07-2.1-0.03-3.18-0.03C43.43,10.87,43.43,12.07,43.43,13.36z"/>
</g>
</svg>
