<?xml version="1.0" encoding="utf-8"?>
<!-- Generator: Adobe Illustrator 26.0.1, SVG Export Plug-In . SVG Version: 6.00 Build 0)  -->
<svg version="1.1" id="Layer_1" xmlns="http://www.w3.org/2000/svg" xmlns:xlink="http://www.w3.org/1999/xlink" x="0px" y="0px"
	 viewBox="0 0 60 60" style="enable-background:new 0 0 60 60;" xml:space="preserve">
<g>
	<path d="M57,27.46c-1.55,2.67-3.1,5.34-4.65,8.01c-0.29,0.5-0.57,1.01-0.87,1.5c-0.3,0.49-0.64,0.58-1.16,0.3
		c-0.46-0.25-0.91-0.52-1.38-0.79c-0.09,0.08-0.17,0.15-0.23,0.23c-1.76,2.07-4.42,2.77-6.96,1.83c-0.28-0.1-0.46-0.09-0.71,0.1
		c-1.47,1.1-3.04,1.21-4.64,0.31c-1.9-1.06-3.77-2.17-5.66-3.26c-0.15-0.09-0.3-0.16-0.49-0.26c-0.56,0.95-1.1,1.87-1.64,2.79
		c-1.59,2.71-3.92,4.31-7.05,4.68c-1.01,0.12-2.04,0.06-3.05,0.07c-1.49,0.01-2.98,0-4.53,0c0,1.11,0,2.18,0,3.24
		c0,0.94-0.2,1.13-1.15,1.13c-1.18,0-2.35,0-3.6,0c0,0.7,0,1.36,0,2.02c0,2.26-1.35,3.59-3.62,3.59c-0.53,0-1.05,0-1.58,0
		c-0.8,0-1.02-0.24-1.02-1.05c0-7.28,0-14.55,0-21.83c0-0.91-0.01-1.83,0-2.74c0-0.61,0.25-0.88,0.86-0.89
		c0.77-0.01,1.55-0.03,2.32,0.03c1.75,0.13,3.01,1.49,3.04,3.24c0.01,0.3,0,0.59,0,0.96c0.66,0,1.29,0,1.92,0c0.6,0,1.2,0,1.79,0
		c0.82,0.01,1.04,0.22,1.04,1.02c0,1.35,0,2.71,0,4.06c0,0.19,0,0.38,0,0.66c0.19,0,0.35,0,0.52,0c1.95,0,3.9-0.01,5.85,0.01
		c1.17,0.01,2.02-0.48,2.6-1.48c0.53-0.93,1.08-1.85,1.64-2.81c-0.34-0.2-0.65-0.39-0.97-0.58c-3.37-1.95-6.75-3.89-10.13-5.84
		c-2.22-1.29-2.87-3.65-1.59-5.88c2.02-3.52,4.05-7.03,6.08-10.54c1.33-2.3,3.68-2.93,6-1.59c8.36,4.82,16.72,9.65,25.08,14.48
		c2.4,1.39,4.81,2.77,7.2,4.16c0.27,0.15,0.49,0.38,0.74,0.57C57,27.11,57,27.29,57,27.46z M15.97,15.74
		c11.53,6.66,23.03,13.29,34.55,19.95c1.59-2.75,3.15-5.46,4.73-8.19c-0.21-0.13-0.35-0.22-0.5-0.31
		c-8.34-4.82-16.69-9.64-25.03-14.46c-2.19-1.26-4.38-2.53-6.57-3.79c-1.34-0.77-2.88-0.51-3.63,0.71
		C18.29,11.65,17.16,13.69,15.97,15.74z M42.93,33.02c-9.27-5.35-18.47-10.66-27.65-15.97c-0.07,0.06-0.11,0.07-0.12,0.1
		c-0.62,1.08-1.25,2.16-1.87,3.24c-1.03,1.79-0.66,3.15,1.14,4.19c4.54,2.62,9.09,5.24,13.63,7.87c2.99,1.73,5.98,3.46,8.98,5.18
		c1.32,0.76,2.82,0.49,3.59-0.7C41.43,35.68,42.15,34.37,42.93,33.02z M4.51,27.95c0,7.87,0,15.68,0,23.55c0.39,0,0.76,0,1.12,0
		c1.42,0,2.11-0.69,2.11-2.09c0-4.75,0-9.49,0-14.24c0-1.79,0.01-3.59,0-5.38c-0.01-1.04-0.68-1.76-1.72-1.83
		C5.54,27.92,5.05,27.95,4.51,27.95z M13.99,41.5c2.28,0,4.5,0.03,6.73-0.01c2.38-0.05,4.39-1.01,5.83-2.9
		c0.92-1.21,1.63-2.57,2.46-3.89c-1.08-0.62-2.09-1.2-3.14-1.81c-0.59,1-1.14,1.95-1.7,2.89c-0.84,1.41-2.09,2.13-3.74,2.13
		c-1.95,0-3.9,0-5.85,0c-0.19,0-0.37,0-0.59,0C13.99,39.13,13.99,40.28,13.99,41.5z M12.48,32.21c-1.11,0-2.16,0-3.22,0
		c0,4.57,0,9.09,0,13.62c1.09,0,2.15,0,3.22,0C12.48,41.28,12.48,36.76,12.48,32.21z M42.26,37.13c2,0.92,4.56-0.14,5.3-1.44
		c-1.05-0.6-2.09-1.21-3.14-1.81c-0.06-0.03-0.12-0.06-0.2-0.09c-0.05,0.07-0.1,0.12-0.13,0.18C43.48,35.01,42.88,36.06,42.26,37.13
		z"/>
	<path d="M48.82,26.39c1.57,0.02,2.82,1.3,2.8,2.88c-0.02,1.54-1.31,2.79-2.85,2.79c-1.56-0.01-2.84-1.31-2.83-2.87
		C45.95,27.62,47.24,26.37,48.82,26.39z M50.14,29.22c0-0.76-0.62-1.36-1.39-1.35c-0.74,0.01-1.34,0.62-1.34,1.35
		c0,0.73,0.61,1.34,1.34,1.36C49.51,30.6,50.15,29.97,50.14,29.22z"/>
	<path d="M15.68,20.52c0.29,0.13,0.46,0.18,0.6,0.27c1.9,1.09,3.8,2.19,5.7,3.29c0.54,0.31,0.69,0.7,0.45,1.11
		c-0.24,0.41-0.64,0.48-1.19,0.16c-1.9-1.09-3.8-2.19-5.7-3.29c-0.35-0.2-0.63-0.48-0.47-0.89C15.18,20.92,15.48,20.73,15.68,20.52z
		"/>
</g>
</svg>
