<?xml version="1.0" encoding="utf-8"?>
<!-- Generator: Adobe Illustrator 26.0.1, SVG Export Plug-In . SVG Version: 6.00 Build 0)  -->
<svg version="1.1" id="Layer_1" xmlns="http://www.w3.org/2000/svg" xmlns:xlink="http://www.w3.org/1999/xlink" x="0px" y="0px"
	 viewBox="0 0 60 60" style="enable-background:new 0 0 60 60;" xml:space="preserve">
<g>
	<path d="M6.09,17.73c-0.68,0-1.3-0.01-1.92,0c-0.49,0.01-0.92-0.1-1.14-0.61c-0.22-0.51,0.02-0.88,0.38-1.22
		c3.94-3.73,7.87-7.46,11.81-11.19c0.57-0.54,1.04-0.54,1.62,0.02c3.92,3.72,7.84,7.44,11.76,11.15c0.36,0.34,0.61,0.69,0.4,1.21
		c-0.22,0.54-0.65,0.65-1.17,0.64c-0.6-0.01-1.2,0-1.84,0c0,1.78,0,3.52,0,5.33c0.6,0,1.2,0.04,1.79-0.01
		c1.41-0.11,2.35,0.45,3.15,1.64c2.17,3.21,4.46,6.34,6.7,9.5c1.38,1.95,2.72,3.93,4.18,5.82c1.82,2.35,4.19,4.01,6.94,5.13
		c2.43,0.99,4.85,2.02,7.28,3.03c0.76,0.32,0.91,0.53,0.91,1.36c0,1.59,0,3.17,0,4.76c0,0.94-0.33,1.28-1.27,1.28
		c-2.35,0.01-4.7,0-7.05,0c-13.66,0-27.32,0-40.98,0c-1.34,0-1.56-0.22-1.56-1.58c0-11.81,0-23.62,0-35.43
		C6.09,18.3,6.09,18.05,6.09,17.73z M24,17.78c-5.34,0-10.64,0-15.93,0c0,5.42,0,10.78,0,16.16c5.33,0,10.62,0,15.93,0
		C24,28.54,24,23.17,24,17.78z M26.01,34.6c0,6.37,0,12.68,0,18.99c1.94,0,3.83,0,5.73,0c0.01-0.13,0.03-0.21,0.03-0.28
		c0-5.04,0-10.08-0.01-15.12c0-0.2-0.08-0.44-0.19-0.61c-0.58-0.89-1.18-1.77-1.79-2.64c-0.1-0.15-0.3-0.32-0.45-0.32
		C28.23,34.59,27.13,34.6,26.01,34.6z M31.15,28.37c-0.04,0.01-0.08,0.02-0.12,0.04c0,1.58-0.01,3.16,0.01,4.75
		c0,0.16,0.1,0.34,0.2,0.48c2.2,3.24,4.38,6.49,6.6,9.7c1.86,2.69,4.32,4.68,7.35,5.92c2.19,0.9,4.39,1.75,6.59,2.62
		c1.06,0.42,2.11,0.84,3.24,1.29c0-1.01-0.02-1.93,0.01-2.85c0.01-0.39-0.13-0.56-0.48-0.7c-1.89-0.77-3.76-1.61-5.67-2.34
		c-3.79-1.46-6.96-3.7-9.32-7.04c-1.26-1.79-2.52-3.57-3.79-5.36C34.24,32.72,32.7,30.55,31.15,28.37z M16.03,6.61
		c-3.21,3.05-6.38,6.06-9.65,9.16c6.5,0,12.83,0,19.31,0C22.41,12.66,19.23,9.65,16.03,6.61z M8.07,35.95c0,5.9,0,11.77,0,17.66
		c1.04,0,2.04,0,3.05,0c0-5.91,0-11.78,0-17.66C10.08,35.95,9.08,35.95,8.07,35.95z M20.94,35.95c0,5.9,0,11.77,0,17.65
		c1.04,0,2.04,0,3.05,0c0-5.9,0-11.77,0-17.65C22.95,35.95,21.95,35.95,20.94,35.95z M33.74,40.86c0,4.29,0,8.5,0,12.73
		c2.09,0,4.14,0,6.22,0c0-1.68,0.01-3.3-0.01-4.92c0-0.18-0.18-0.38-0.32-0.52c-0.83-0.87-1.75-1.67-2.49-2.6
		C35.97,44.05,34.9,42.47,33.74,40.86z M26.01,24.99c0,2.6,0,5.11,0,7.64c1.04,0,2.04,0,3.09,0c0-2.38,0.02-4.72-0.03-7.07
		c0-0.2-0.39-0.53-0.62-0.55C27.65,24.95,26.85,24.99,26.01,24.99z M41.92,53.59c2.93,0,5.8,0,8.77,0
		c-2.99-1.25-5.88-2.45-8.77-3.65C41.92,51.1,41.92,52.31,41.92,53.59z M18.93,51.55c-1.96,0-3.88,0-5.82,0c0,0.7,0,1.35,0,2.04
		c1.96,0,3.88,0,5.82,0C18.93,52.88,18.93,52.23,18.93,51.55z M13.12,45.65c1.95,0,3.87,0,5.8,0c0-0.65,0-1.26,0-1.9
		c-1.95,0-3.87,0-5.8,0C13.12,44.39,13.12,45,13.12,45.65z M18.93,35.95c-1.95,0-3.86,0-5.79,0c0,0.66,0,1.28,0,1.88
		c1.97,0,3.88,0,5.79,0C18.93,37.18,18.93,36.59,18.93,35.95z M18.93,39.86c-1.96,0-3.89,0-5.81,0c0,0.65,0,1.24,0,1.85
		c1.96,0,3.88,0,5.81,0C18.93,41.07,18.93,40.48,18.93,39.86z M13.12,49.54c1.96,0,3.87,0,5.81,0c0-0.65,0-1.25,0-1.89
		c-1.95,0-3.86,0-5.81,0C13.12,48.29,13.12,48.89,13.12,49.54z"/>
	<path d="M16.02,31.43c-3.03,0-5.5-2.48-5.5-5.52c0-3.2,2.36-5.61,5.51-5.6c3.15,0,5.51,2.41,5.5,5.61
		C21.53,28.95,19.05,31.43,16.02,31.43z M12.47,25.84c0,2.11,1.52,3.67,3.57,3.66c2.02-0.01,3.54-1.57,3.54-3.64
		c0-2.1-1.53-3.67-3.58-3.66C13.98,22.22,12.47,23.76,12.47,25.84z"/>
</g>
</svg>
