<?xml version="1.0" encoding="utf-8"?>
<!-- Generator: Adobe Illustrator 26.0.1, SVG Export Plug-In . SVG Version: 6.00 Build 0)  -->
<svg version="1.1" id="Layer_1" xmlns="http://www.w3.org/2000/svg" xmlns:xlink="http://www.w3.org/1999/xlink" x="0px" y="0px"
	 viewBox="0 0 60 60" style="enable-background:new 0 0 60 60;" xml:space="preserve">
<g>
	<path d="M29.93,48.25c-7.8,0-15.6,0-23.41,0c-0.73,0-1.1-0.36-1.09-1.05c0.01-1.01,0.03-2.01,0.03-3.02c0-13.24,0-26.47,0-39.71
		C5.46,3.16,5.62,3,6.9,3C22.3,3,37.69,3,53.09,3c1.29,0,1.45,0.16,1.45,1.47c0,0.26,0,0.52,0,0.77c0,13.71-0.02,27.41,0.02,41.12
		c0.01,2.08-0.39,1.89-1.92,1.89c-7.57-0.02-15.14-0.01-22.7-0.01C29.93,48.24,29.93,48.25,29.93,48.25z M45.39,38.79
		c-0.11-0.32-0.18-0.53-0.26-0.75c-0.57-1.63-0.84-3.3-0.7-5.04c0.23-2.85,1.37-5.35,3.16-7.52c1.1-1.33,2.35-2.52,3.54-3.78
		c-0.06-0.02-0.19-0.07-0.32-0.1c-2.29-0.53-4.26-1.66-5.98-3.24c-2.23-2.04-3.82-4.53-5.15-7.22c-0.13-0.27-0.45-0.57-0.73-0.63
		c-2.15-0.51-4.33-0.61-6.46,0.03c-1.57,0.47-3.09,1.08-4.62,1.66c-2.46,0.93-4.81,0.76-7.08-0.58c-0.26-0.15-0.52-0.31-0.83-0.49
		c-1.14,2.48-2.49,4.76-4.36,6.7c-1.89,1.96-4.14,3.3-6.88,3.9c5.31,4.6,8.59,9.81,5.91,17.07c1.64,0,3.21,0,4.85,0
		c0-1.44-0.01-2.84,0-4.23c0.01-0.9,0.29-1.17,1.18-1.18c1.05-0.01,2.1,0,3.22,0c0-1.38,0-2.69,0-3.99c0-1.04,0.2-1.24,1.22-1.24
		c3.19,0,6.37,0,9.56,0c1.28,0,1.42,0.14,1.42,1.4c0,1.26,0,2.52,0,3.84c0.69,0,1.3,0,1.9,0c2.58-0.02,2.53-0.16,2.5,2.47
		c-0.01,0.97,0,1.95,0,2.96C42.17,38.79,43.73,38.79,45.39,38.79z M51.18,46.51c0.04-0.05,0.08-0.11,0.12-0.16
		c-0.19-0.13-0.41-0.23-0.55-0.39c-1.38-1.62-2.77-3.22-4.1-4.88c-0.31-0.38-0.55-0.58-1.06-0.58c-5.46,0.02-10.92,0.01-16.38,0.01
		c-4.94,0-9.89,0-14.83,0c-0.35,0-0.65-0.03-0.89,0.37c-1.18,1.99-2.72,3.69-4.41,5.26c-0.11,0.1-0.19,0.23-0.32,0.38
		C22.95,46.51,37.06,46.51,51.18,46.51z M52.8,20.17c0-5.18,0-10.29,0-15.44c-4.56,0-9.08,0-13.67,0c0.87,3.14,2.06,6.07,3.81,8.76
		c1.33,2.04,2.9,3.85,5.01,5.13C49.42,19.51,51,20.09,52.8,20.17z M7.2,20.15c0.16,0,0.27,0.01,0.38,0
		c0.16-0.01,0.33-0.02,0.49-0.04c1.71-0.3,3.27-0.95,4.66-1.99c2.49-1.86,4.12-4.38,5.43-7.13c0.94-1.99,1.66-4.06,2.15-6.25
		c-4.4,0-8.74,0-13.11,0C7.2,9.89,7.2,15,7.2,20.15z M52.79,22.88c-0.06-0.04-0.12-0.08-0.18-0.12c-0.96,0.92-1.96,1.79-2.87,2.76
		c-1.33,1.41-2.37,3.01-3.04,4.85c-0.99,2.72-0.81,5.39,0.37,8c1.27,2.83,3.3,5.06,5.71,7.17C52.79,37.89,52.79,30.38,52.79,22.88z
		 M7.21,22.62c0,7.75,0,15.26,0,22.9c2.36-2.05,4.33-4.23,5.62-6.97c1.23-2.61,1.47-5.29,0.51-8.04c-0.69-1.98-1.83-3.69-3.27-5.18
		C9.21,24.43,8.26,23.61,7.21,22.62z M38.56,8.64c-0.38-1.27-0.74-2.48-1.13-3.67c-0.04-0.13-0.3-0.26-0.47-0.27
		C36.31,4.67,35.65,4.69,35,4.69c-4.1,0-8.2,0-12.3,0c-0.31,0-0.61-0.09-0.74,0.4c-0.36,1.36-0.8,2.69-1.18,4.04
		c-0.05,0.17,0.04,0.48,0.18,0.57c1.45,0.99,3.01,1.71,4.8,1.29c1.24-0.29,2.46-0.75,3.65-1.22c2.38-0.94,4.82-1.52,7.4-1.3
		C37.38,8.51,37.95,8.58,38.56,8.64z M21.23,35.09c0,1.22,0,2.36,0,3.5c5.88,0,11.71,0,17.54,0c0-1.2,0-2.34,0-3.5
		C32.91,35.09,27.09,35.09,21.23,35.09z M34.37,29.86c-2.93,0-5.82,0-8.75,0c0,1.17,0,2.3,0,3.47c2.93,0,5.82,0,8.75,0
		C34.37,32.15,34.37,31.02,34.37,29.86z"/>
	<path d="M40.5,51.66c2.21-2.36,5.4-1.94,7.06,0.03c0.94-1.08,2.11-1.66,3.56-1.63c2.39,0.04,4.17,1.73,4.29,4.12
		c0.03,0.58,0.02,1.17,0.01,1.76c-0.02,0.77-0.3,1.05-1.08,1.06c-2.6,0.01-5.2,0-7.8,0c-13.49,0-26.98,0-40.47,0
		c-1.34,0-1.5-0.16-1.5-1.48c0-0.52-0.03-1.03,0.03-1.54c0.19-1.76,1.08-3.05,2.76-3.64c1.69-0.59,3.28-0.34,4.64,0.92
		c0.14,0.13,0.24,0.28,0.41,0.48c0.97-1.08,2.1-1.67,3.53-1.67c1.43,0,2.58,0.54,3.49,1.62c2.07-2.24,5.21-2.09,7.08,0
		c0.93-1.04,2.06-1.62,3.5-1.61c1.41,0.01,2.54,0.54,3.49,1.65c0.95-1.05,2.07-1.65,3.5-1.65C38.43,50.05,39.57,50.61,40.5,51.66z
		 M13.35,55.27c1.77,0,3.49,0,5.22,0c0.16-1.27,0.04-2.41-1.13-3.12c-0.95-0.58-1.98-0.58-2.93-0.01
		C13.32,52.83,13.19,53.97,13.35,55.27z M25.6,55.27c0.16-1.3,0.01-2.47-1.19-3.16c-0.98-0.56-2.03-0.56-2.98,0.08
		c-1.1,0.73-1.21,1.84-1.06,3.08C22.11,55.27,23.82,55.27,25.6,55.27z M39.64,55.28c0.15-1.37-0.02-2.55-1.29-3.21
		c-0.97-0.51-2-0.49-2.92,0.15c-1.08,0.75-1.19,1.86-1.02,3.06C36.16,55.28,37.88,55.28,39.64,55.28z M41.43,55.26
		c1.76,0,3.48,0,5.22,0c0.14-1.24,0.04-2.36-1.08-3.08c-0.94-0.61-1.97-0.62-2.93-0.08C41.42,52.78,41.26,53.95,41.43,55.26z
		 M6.3,55.26c1.77,0,3.51,0,5.23,0c0.22-2.22-0.7-3.48-2.5-3.51C7.11,51.72,6.13,52.94,6.3,55.26z M32.62,55.28
		c0.15-1.33-0.01-2.5-1.22-3.18c-0.98-0.55-2.03-0.54-2.99,0.11c-1.09,0.74-1.2,1.85-1.03,3.07C29.14,55.28,30.86,55.28,32.62,55.28
		z M53.7,55.27c0.13-1.29-0.01-2.42-1.16-3.13c-0.97-0.59-2.02-0.59-2.98,0.02c-1.16,0.72-1.26,1.86-1.09,3.11
		C50.2,55.27,51.92,55.27,53.7,55.27z"/>
</g>
</svg>
