<?xml version="1.0" encoding="utf-8"?>
<!-- Generator: Adobe Illustrator 26.0.1, SVG Export Plug-In . SVG Version: 6.00 Build 0)  -->
<svg version="1.1" id="Layer_1" xmlns="http://www.w3.org/2000/svg" xmlns:xlink="http://www.w3.org/1999/xlink" x="0px" y="0px"
	 viewBox="0 0 60 60" style="enable-background:new 0 0 60 60;" xml:space="preserve">
<g>
	<path d="M29.71,57.06c-1.8-1.18-3.6-2.35-5.38-3.54c-0.37-0.25-0.72-0.35-1.17-0.32c-1.95,0.14-3.9,0.23-5.86,0.34
		c-0.66,0.04-1.09-0.25-1.38-0.84c-0.89-1.78-1.78-3.56-2.7-5.32c-0.13-0.24-0.36-0.48-0.6-0.61c-1.75-0.91-3.5-1.81-5.27-2.68
		c-0.65-0.32-0.94-0.77-0.89-1.51c0.13-1.99,0.23-3.98,0.32-5.96c0.01-0.27-0.08-0.6-0.22-0.83c-1.04-1.62-2.07-3.23-3.16-4.81
		c-0.51-0.74-0.49-1.34,0.02-2.07c1.09-1.58,2.14-3.19,3.18-4.8c0.14-0.22,0.22-0.52,0.21-0.78c-0.09-1.95-0.19-3.91-0.33-5.86
		c-0.06-0.81,0.23-1.32,0.97-1.68c1.74-0.84,3.47-1.73,5.18-2.62c0.26-0.13,0.5-0.39,0.64-0.64c0.89-1.72,1.76-3.45,2.63-5.18
		c0.43-0.85,0.71-1,1.68-0.95c1.99,0.12,3.98,0.24,5.96,0.33c0.21,0.01,0.45-0.08,0.63-0.2c1.67-1.09,3.34-2.17,4.98-3.29
		c0.62-0.42,1.17-0.43,1.79,0c1.63,1.11,3.28,2.19,4.94,3.26c0.23,0.15,0.55,0.23,0.82,0.22c2.02-0.09,4.05-0.2,6.07-0.32
		c0.64-0.04,1.07,0.24,1.35,0.81c0.9,1.79,1.8,3.59,2.73,5.37c0.13,0.24,0.36,0.47,0.61,0.6c1.75,0.91,3.51,1.79,5.27,2.68
		c0.77,0.39,0.93,0.71,0.88,1.56c-0.12,2-0.24,4.01-0.34,6.02c-0.01,0.22,0.09,0.48,0.22,0.67c1.06,1.64,2.13,3.28,3.22,4.9
		c0.44,0.65,0.45,1.24,0.01,1.9c-1.07,1.59-2.11,3.21-3.19,4.8c-0.23,0.35-0.31,0.68-0.28,1.08c0.12,1.93,0.21,3.87,0.33,5.81
		c0.05,0.71-0.21,1.16-0.85,1.48c-1.78,0.88-3.56,1.78-5.32,2.7c-0.23,0.12-0.45,0.34-0.57,0.57c-0.92,1.76-1.82,3.54-2.7,5.32
		c-0.32,0.66-0.8,0.92-1.52,0.87c-2.02-0.14-4.05-0.24-6.07-0.35c-0.18-0.01-0.39,0.05-0.54,0.14c-1.88,1.23-3.75,2.48-5.63,3.72
		C30.13,57.06,29.92,57.06,29.71,57.06z M38.95,51.07C38.95,51.07,38.95,51.07,38.95,51.07c0.97,0.06,1.94,0.1,2.9,0.17
		c0.36,0.03,0.53-0.09,0.68-0.41c0.8-1.63,1.63-3.24,2.44-4.86c0.23-0.46,0.55-0.79,1.01-1.02c1.6-0.78,3.17-1.62,4.77-2.38
		c0.45-0.22,0.54-0.47,0.51-0.93c-0.12-1.79-0.2-3.59-0.31-5.38c-0.03-0.5,0.1-0.92,0.38-1.33c1-1.49,1.97-3,2.99-4.49
		c0.24-0.36,0.21-0.59-0.02-0.92c-0.99-1.46-1.94-2.94-2.92-4.4c-0.31-0.46-0.46-0.92-0.42-1.48c0.12-1.76,0.18-3.52,0.31-5.28
		c0.04-0.49-0.07-0.75-0.53-0.97c-1.59-0.76-3.14-1.58-4.72-2.36c-0.48-0.24-0.81-0.58-1.05-1.06c-0.77-1.56-1.59-3.1-2.34-4.67
		c-0.23-0.48-0.5-0.61-1.01-0.57c-1.77,0.13-3.55,0.2-5.33,0.32c-0.5,0.03-0.92-0.11-1.33-0.38c-1.5-1.01-3.03-1.99-4.53-3.01
		c-0.32-0.22-0.53-0.2-0.84,0.01c-1.5,1.02-3.03,2-4.53,3.01c-0.41,0.28-0.84,0.4-1.34,0.37c-1.85-0.12-3.69-0.2-5.54-0.32
		c-0.35-0.02-0.53,0.08-0.68,0.4c-0.81,1.64-1.65,3.27-2.46,4.91c-0.22,0.45-0.53,0.76-0.98,0.98c-1.64,0.81-3.26,1.65-4.91,2.46
		c-0.3,0.15-0.4,0.31-0.38,0.64c0.12,1.83,0.2,3.66,0.32,5.49c0.03,0.54-0.08,0.99-0.39,1.44c-1.02,1.5-1.99,3.03-3.01,4.53
		c-0.22,0.32-0.2,0.53,0.01,0.84c0.96,1.41,1.86,2.86,2.84,4.26c0.45,0.65,0.59,1.31,0.53,2.08c-0.13,1.69-0.19,3.38-0.3,5.06
		c-0.02,0.35,0.07,0.53,0.4,0.69c1.64,0.8,3.27,1.64,4.91,2.45c0.45,0.22,0.76,0.53,0.98,0.98c0.79,1.61,1.63,3.2,2.41,4.82
		c0.19,0.4,0.43,0.5,0.85,0.47c1.83-0.12,3.66-0.24,5.49-0.3c0.39-0.01,0.84,0.12,1.18,0.33c1.53,0.97,3.04,1.97,4.54,2.99
		c0.35,0.24,0.6,0.27,0.97,0.02c1.48-1.01,2.98-2.01,4.5-2.96c0.38-0.23,0.88-0.36,1.32-0.37C37.19,50.92,38.07,51.02,38.95,51.07z"
		/>
	<path d="M13.15,29.97c0.06-9.33,7.62-16.86,16.88-16.83c9.33,0.03,16.93,7.67,16.83,16.92c-0.1,9.33-7.63,16.82-16.87,16.78
		C20.66,46.79,13.2,39.29,13.15,29.97z M44.61,29.97C44.6,21.93,38.02,15.37,30,15.39C21.95,15.4,15.4,21.97,15.42,30
		c0.02,8.05,6.58,14.6,14.61,14.58C38.07,44.56,44.63,37.99,44.61,29.97z"/>
	<path d="M28.12,32.43c1.15-1.08,2.47-2.33,3.78-3.57c1.32-1.24,2.63-2.5,3.97-3.72c0.25-0.23,0.62-0.4,0.96-0.46
		c0.43-0.07,0.84,0.16,0.97,0.57c0.1,0.33,0.04,0.74-0.03,1.09c-0.04,0.18-0.25,0.33-0.4,0.47c-2.79,2.64-5.58,5.27-8.38,7.9
		c-0.88,0.82-1.39,0.8-2.23-0.07c-1.36-1.4-2.73-2.8-4.09-4.2c-0.16-0.16-0.31-0.34-0.43-0.53c-0.25-0.43-0.17-0.96,0.19-1.31
		c0.35-0.35,0.89-0.44,1.31-0.18c0.21,0.13,0.38,0.31,0.56,0.48C25.55,30.07,26.8,31.23,28.12,32.43z"/>
</g>
</svg>
