<?xml version="1.0" encoding="utf-8"?>
<!-- Generator: Adobe Illustrator 26.0.1, SVG Export Plug-In . SVG Version: 6.00 Build 0)  -->
<svg version="1.1" id="Layer_1" xmlns="http://www.w3.org/2000/svg" xmlns:xlink="http://www.w3.org/1999/xlink" x="0px" y="0px"
	 viewBox="0 0 60 60" style="enable-background:new 0 0 60 60;" xml:space="preserve">
<g>
	<path d="M22.8,17.41c0.3,0,0.53,0,0.75,0c5.32,0,10.65,0,15.97,0c1,0,1.28,0.27,1.28,1.25c0,1.06,0,2.13,0,3.22
		c-0.61,0-1.16,0-1.78,0c0-0.87,0-1.74,0-2.64c-5.43,0-10.8,0-16.19,0c0,5.37,0,10.73,0,16.12c5.37,0,10.74,0,16.15,0
		c0-0.56,0-1.11,0-1.71c0.61,0,1.18,0,1.82,0c0,0.18,0,0.38,0,0.58c0,7.16,0,14.32,0,21.48c0,1.03-0.26,1.29-1.3,1.29
		c-11.74,0-23.47,0-35.21,0c-1.03,0-1.29-0.26-1.29-1.3C3,38.56,3,21.44,3,4.31c0-1.03,0.26-1.29,1.29-1.29c5.74,0,11.47,0,17.21,0
		c1.03,0,1.3,0.26,1.3,1.29c0,4.14,0,8.28,0,12.42C22.8,16.93,22.8,17.13,22.8,17.41z M4.82,35.36c5.41,0,10.78,0,16.13,0
		c0-10.2,0-20.36,0-30.52c-5.4,0-10.75,0-16.13,0C4.82,15.02,4.82,25.17,4.82,35.36z M38.97,53.43c-11.41,0-22.77,0-34.13,0
		c0,0.61,0,1.17,0,1.73c11.4,0,22.75,0,34.13,0C38.97,54.58,38.97,54.03,38.97,53.43z M38.97,49.83c-11.41,0-22.77,0-34.13,0
		c0,0.61,0,1.17,0,1.74c11.4,0,22.75,0,34.13,0C38.97,50.98,38.97,50.43,38.97,49.83z M4.84,37.22c0,0.61,0,1.17,0,1.73
		c11.4,0,22.77,0,34.13,0c0-0.6,0-1.15,0-1.73C27.59,37.22,16.24,37.22,4.84,37.22z M30.04,40.82c0,2.41,0,4.78,0,7.13
		c1.81,0,3.58,0,5.33,0c0-2.4,0-4.75,0-7.13C33.58,40.82,31.83,40.82,30.04,40.82z M19.24,40.82c0,2.41,0,4.78,0,7.13
		c1.81,0,3.58,0,5.33,0c0-2.4,0-4.75,0-7.13C22.78,40.82,21.03,40.82,19.24,40.82z M13.76,47.97c0-2.41,0-4.77,0-7.13
		c-1.81,0-3.57,0-5.33,0c0,2.4,0,4.75,0,7.13C10.21,47.97,11.96,47.97,13.76,47.97z M6.55,47.98c0-2.38,0-4.76,0-7.15
		c-0.58,0-1.15,0-1.71,0c0,2.4,0,4.77,0,7.15C5.42,47.98,5.96,47.98,6.55,47.98z M17.36,47.97c0-2.41,0-4.77,0-7.13
		c-0.61,0-1.18,0-1.73,0c0,2.4,0,4.75,0,7.13C16.21,47.97,16.77,47.97,17.36,47.97z M26.44,40.82c0,2.41,0,4.78,0,7.13
		c0.61,0,1.18,0,1.73,0c0-2.4,0-4.75,0-7.13C27.59,40.82,27.03,40.82,26.44,40.82z M38.96,47.97c0-2.41,0-4.77,0-7.13
		c-0.61,0-1.18,0-1.73,0c0,2.4,0,4.75,0,7.13C37.81,47.97,38.36,47.97,38.96,47.97z"/>
	<path d="M42.04,32.51c-1.04-1.04-2.21-2.22-3.41-3.39c-0.38-0.37-0.57-0.75-0.54-1.29c0.03-0.73,0-1.46,0.01-2.19
		c0.01-0.7,0.34-1.03,1.04-1.04c0.77-0.01,1.54-0.05,2.3,0.02c0.37,0.03,0.81,0.2,1.08,0.45c1.28,1.21,2.5,2.48,3.76,3.71
		c0.18,0.17,0.48,0.3,0.72,0.3c1.74,0.03,3.49-0.01,5.23,0.03c0.36,0.01,0.78,0.17,1.04,0.4c1.12,1.02,2.21,2.08,3.27,3.17
		c0.24,0.25,0.43,0.68,0.44,1.03C57,41.1,57,48.48,56.99,55.86c0,0.81-0.32,1.12-1.12,1.12c-3.43,0-6.86,0-10.29,0
		c-0.88,0-1.18-0.3-1.18-1.18c0-5-0.01-10,0.01-15.01c0-0.39-0.11-0.66-0.39-0.93c-0.6-0.56-1.15-1.18-1.76-1.74
		c-0.42-0.39-0.59-0.82-0.57-1.39c0.04-0.9-0.02-1.8,0.02-2.7C41.73,33.6,41.9,33.15,42.04,32.51z M55.17,42.04
		c-0.38,0.4-0.64,0.7-0.93,0.99c-0.64,0.64-1.04,0.64-1.67,0.02c-0.4-0.39-0.8-0.79-1.19-1.19c-1.17-1.16-2.32-2.34-3.5-3.49
		c-0.55-0.54-1.27-0.48-1.64,0.1c-0.28,0.44-0.2,0.9,0.26,1.36c1.33,1.34,2.63,2.72,4.03,3.99c0.82,0.75,1.18,1.54,1.09,2.65
		c-0.09,1.09-0.02,2.19-0.02,3.29c1.24,0,2.41,0,3.57,0C55.17,47.21,55.17,44.72,55.17,42.04z M54.78,39.88
		c-0.15-0.16-0.29-0.31-0.43-0.45c-4.15-4.15-8.31-8.28-12.43-12.46c-0.64-0.65-1.27-0.6-1.97-0.53c-0.22,0.93,0.08,1.56,0.74,2.21
		c4.11,4.05,8.18,8.14,12.26,12.22c0.14,0.14,0.29,0.28,0.39,0.38C53.85,40.77,54.3,40.34,54.78,39.88z M46.22,55.15
		c3.01,0,5.98,0,8.93,0c0-1.21,0-2.37,0-3.53c-3,0-5.95,0-8.93,0C46.22,52.8,46.22,53.96,46.22,55.15z M49.8,49.78
		c0-1.33,0.01-2.62-0.01-3.91c0-0.16-0.13-0.34-0.25-0.46c-1-1.01-2-2.01-3.01-3.02c-0.08-0.08-0.18-0.13-0.28-0.2
		c0,2.56,0,5.07,0,7.59C47.43,49.78,48.57,49.78,49.8,49.78z M55.2,37.64c0-1.16,0.02-2.26-0.01-3.36
		c-0.01-0.24-0.15-0.53-0.32-0.71c-0.59-0.62-1.27-1.17-1.83-1.82c-0.59-0.68-1.26-0.95-2.16-0.86c-0.78,0.08-1.58,0.02-2.44,0.02
		C50.72,33.17,52.92,35.37,55.2,37.64z M45.78,36.48c-0.76-0.78-1.51-1.56-2.29-2.35c0,0.64,0.07,1.3-0.02,1.93
		c-0.12,0.91,0.54,1.24,1.02,1.73c0.23-0.3,0.39-0.55,0.6-0.76C45.32,36.82,45.59,36.64,45.78,36.48z"/>
	<path d="M57,14.71c0,3.48,0,6.97,0,10.45c0,0.49-0.04,0.95-0.57,1.17c-0.54,0.22-0.88-0.1-1.22-0.44
		c-7.03-7.03-14.07-14.07-21.1-21.1c-0.35-0.35-0.65-0.69-0.42-1.23c0.23-0.53,0.69-0.55,1.18-0.55c6.95,0,13.9,0,20.85,0
		c1.02,0,1.28,0.26,1.28,1.3C57,7.78,57,11.25,57,14.71z M55.16,23.12c0-6.06,0-12.17,0-18.28c-6.14,0-12.24,0-18.28,0
		C42.96,10.93,49.07,17.03,55.16,23.12z"/>
	<path d="M37.2,23.71c0,0.58,0.01,1.16,0,1.74c-0.02,0.6-0.36,0.94-0.96,0.95c-1.16,0.02-2.32,0.02-3.49,0
		c-0.6-0.01-0.94-0.35-0.95-0.95c-0.01-1.16-0.02-2.32,0-3.49c0.01-0.6,0.35-0.94,0.95-0.95c1.16-0.01,2.32-0.02,3.49,0
		c0.6,0.01,0.93,0.35,0.95,0.95C37.21,22.54,37.2,23.13,37.2,23.71z M35.37,22.85c-0.61,0-1.18,0-1.73,0c0,0.61,0,1.18,0,1.73
		c0.6,0,1.15,0,1.73,0C35.37,23.99,35.37,23.44,35.37,22.85z"/>
	<path d="M27.28,26.4c-0.54,0-1.09,0.01-1.63,0c-0.71-0.01-1.04-0.33-1.05-1.03c-0.01-1.11-0.01-2.21,0-3.32
		c0.01-0.71,0.33-1.04,1.03-1.05c1.11-0.01,2.21-0.01,3.32,0c0.7,0.01,1.04,0.33,1.05,1.03c0.01,1.11,0.01,2.21,0,3.32
		c-0.01,0.72-0.34,1.04-1.08,1.05C28.37,26.41,27.82,26.4,27.28,26.4z M28.17,24.58c0-0.62,0-1.17,0-1.74c-0.6,0-1.16,0-1.73,0
		c0,0.6,0,1.17,0,1.74C27.03,24.58,27.59,24.58,28.17,24.58z"/>
	<path d="M27.26,33.6c-0.54,0-1.09,0.01-1.63,0c-0.67-0.01-1.02-0.34-1.03-0.99c-0.01-1.14-0.01-2.29,0-3.43
		c0.01-0.63,0.35-0.96,0.99-0.97c1.14-0.01,2.29-0.01,3.43,0c0.63,0.01,0.97,0.35,0.97,0.99c0.01,1.14,0.01,2.29,0,3.43
		c-0.01,0.63-0.35,0.96-0.99,0.97C28.42,33.61,27.84,33.6,27.26,33.6z M26.44,30.03c0,0.61,0,1.17,0,1.73c0.61,0,1.17,0,1.73,0
		c0-0.6,0-1.15,0-1.73C27.59,30.03,27.04,30.03,26.44,30.03z"/>
	<path d="M31.8,30.89c0-0.56-0.01-1.12,0-1.69c0.01-0.64,0.34-0.99,0.96-1c1.16-0.02,2.32-0.02,3.49,0c0.6,0.01,0.94,0.36,0.94,0.96
		c0.01,1.16,0.02,2.32,0,3.49c-0.01,0.59-0.36,0.94-0.96,0.94c-1.16,0.01-2.32,0.02-3.49,0c-0.6-0.01-0.93-0.36-0.94-0.96
		C31.79,32.06,31.8,31.47,31.8,30.89z M35.36,31.77c0-0.61,0-1.18,0-1.73c-0.61,0-1.17,0-1.73,0c0,0.6,0,1.15,0,1.73
		C34.21,31.77,34.76,31.77,35.36,31.77z"/>
	<path d="M9.3,12.01c-0.58,0-1.16,0.01-1.74,0c-0.6-0.02-0.94-0.35-0.95-0.95c-0.02-1.16-0.02-2.32,0-3.49
		c0.01-0.6,0.35-0.94,0.95-0.95c1.16-0.02,2.32-0.02,3.49,0c0.6,0.01,0.94,0.35,0.95,0.95c0.02,1.16,0.02,2.32,0,3.49
		c-0.01,0.6-0.35,0.93-0.95,0.95C10.46,12.02,9.88,12.01,9.3,12.01z M10.17,10.18c0-0.62,0-1.17,0-1.74c-0.6,0-1.17,0-1.73,0
		c0,0.6,0,1.17,0,1.74C9.04,10.18,9.59,10.18,10.17,10.18z"/>
	<path d="M6.6,16.5c0-0.56-0.01-1.12,0-1.69c0.01-0.64,0.34-0.99,0.96-1c1.16-0.01,2.32-0.02,3.49,0c0.59,0.01,0.94,0.36,0.94,0.96
		c0.01,1.16,0.02,2.32,0,3.49c-0.01,0.59-0.36,0.94-0.96,0.94c-1.16,0.01-2.32,0.02-3.49,0c-0.59-0.01-0.93-0.36-0.94-0.96
		C6.59,17.66,6.6,17.08,6.6,16.5z M8.43,15.63c0,0.62,0,1.17,0,1.74c0.6,0,1.17,0,1.73,0c0-0.6,0-1.17,0-1.74
		C9.56,15.63,9.01,15.63,8.43,15.63z"/>
	<path d="M16.55,19.21c-0.58,0-1.16,0.01-1.74,0c-0.66-0.01-1-0.35-1-1.02c-0.01-1.12-0.01-2.25,0-3.37c0.01-0.66,0.35-1,1.01-1
		c1.12-0.01,2.25-0.01,3.37,0c0.66,0.01,1,0.35,1,1.01c0.01,1.12,0.01,2.25,0,3.37c-0.01,0.66-0.35,0.99-1.01,1.01
		C17.64,19.21,17.09,19.21,16.55,19.21z M15.62,17.36c0.62,0,1.19,0,1.75,0c0-0.6,0-1.15,0-1.72c-0.6,0-1.16,0-1.75,0
		C15.62,16.23,15.62,16.78,15.62,17.36z"/>
	<path d="M12,23.73c0,0.56,0.01,1.12,0,1.69c-0.02,0.63-0.35,0.98-0.98,0.99c-1.14,0.01-2.29,0.01-3.43,0
		c-0.63-0.01-0.98-0.35-0.98-0.98c-0.01-1.14-0.01-2.29,0-3.43c0.01-0.63,0.35-0.98,0.97-0.98c1.14-0.01,2.29-0.01,3.43,0
		c0.63,0.01,0.97,0.35,0.99,0.97C12.01,22.56,12,23.15,12,23.73z M8.42,24.58c0.62,0,1.17,0,1.75,0c0-0.59,0-1.16,0-1.74
		c-0.6,0-1.17,0-1.75,0C8.42,23.43,8.42,23.98,8.42,24.58z"/>
	<path d="M16.52,21.01c0.56,0,1.12-0.01,1.69,0c0.63,0.01,0.98,0.35,0.99,0.97c0.01,1.14,0.01,2.29,0,3.43
		c-0.01,0.63-0.35,0.98-0.97,0.99c-1.14,0.01-2.29,0.01-3.43,0c-0.63-0.01-0.98-0.35-0.99-0.97c-0.01-1.14-0.01-2.29,0-3.43
		c0.01-0.65,0.35-0.98,1.03-0.99C15.39,21,15.96,21.01,16.52,21.01z M15.62,24.58c0.62,0,1.17,0,1.75,0c0-0.59,0-1.16,0-1.74
		c-0.6,0-1.17,0-1.75,0C15.62,23.43,15.62,23.98,15.62,24.58z"/>
	<path d="M19.2,9.36c0,0.54,0.01,1.09,0,1.63c-0.01,0.67-0.34,1.01-1,1.02c-1.12,0.01-2.25,0.01-3.37,0c-0.67-0.01-1.01-0.34-1.02-1
		c-0.01-1.12-0.01-2.25,0-3.37c0.01-0.67,0.34-1.01,1-1.02c1.12-0.01,2.25-0.01,3.37,0c0.67,0.01,1,0.34,1.02,1
		C19.21,8.2,19.2,8.78,19.2,9.36z M15.61,10.16c0.58,0,1.16,0,1.75,0c0-0.59,0-1.15,0-1.71c-0.61,0-1.17,0-1.75,0
		C15.61,9.04,15.61,9.58,15.61,10.16z"/>
	<path d="M12,30.9c0,0.58,0.01,1.16,0,1.74c-0.02,0.6-0.36,0.94-0.96,0.95c-1.16,0.02-2.32,0.02-3.49,0
		c-0.6-0.01-0.94-0.35-0.95-0.95c-0.01-1.16-0.02-2.32,0-3.49c0.01-0.6,0.35-0.94,0.95-0.95c1.16-0.01,2.32-0.02,3.49,0
		c0.6,0.01,0.93,0.35,0.95,0.95C12.01,29.74,12,30.32,12,30.9z M10.19,30.05c-0.58,0-1.16,0-1.75,0c0,0.59,0,1.15,0,1.71
		c0.61,0,1.17,0,1.75,0C10.19,31.18,10.19,30.64,10.19,30.05z"/>
	<path d="M19.2,30.94c0,0.54,0.01,1.09,0,1.63c-0.01,0.67-0.34,1.01-1,1.02c-1.12,0.01-2.25,0.01-3.37,0
		c-0.67-0.01-1.01-0.34-1.02-1c-0.01-1.12-0.01-2.25,0-3.37c0.01-0.67,0.34-1.01,1-1.02c1.12-0.01,2.25-0.01,3.37,0
		c0.69,0.01,1.01,0.34,1.02,1.05C19.21,29.82,19.2,30.38,19.2,30.94z M15.62,31.77c0.62,0,1.17,0,1.74,0c0-0.6,0-1.16,0-1.73
		c-0.6,0-1.17,0-1.74,0C15.62,30.63,15.62,31.19,15.62,31.77z"/>
	<path d="M48.06,6.61c1.4,0,2.81,0,4.21,0c0.81,0,1.12,0.32,1.13,1.12c0,2.85,0,5.69,0,8.54c0,0.47-0.1,0.86-0.57,1.06
		c-0.48,0.2-0.82-0.03-1.15-0.35c-2.88-2.89-5.77-5.77-8.66-8.66C42.7,8,42.47,7.65,42.67,7.18c0.2-0.47,0.59-0.57,1.06-0.57
		C45.17,6.62,46.61,6.61,48.06,6.61z M45.99,8.43c1.84,1.84,3.75,3.74,5.57,5.56c0-1.72,0-3.63,0-5.56
		C49.63,8.43,47.74,8.43,45.99,8.43z"/>
</g>
</svg>
