<?xml version="1.0" encoding="utf-8"?>
<!-- Generator: Adobe Illustrator 26.0.1, SVG Export Plug-In . SVG Version: 6.00 Build 0)  -->
<svg version="1.1" id="Layer_1" xmlns="http://www.w3.org/2000/svg" xmlns:xlink="http://www.w3.org/1999/xlink" x="0px" y="0px"
	 viewBox="0 0 60 60" style="enable-background:new 0 0 60 60;" xml:space="preserve">
<g>
	<path d="M14.49,3c0.44,0.16,0.9,0.28,1.32,0.49c1.19,0.58,1.87,1.46,2.42,3.11c0.94,0,1.9-0.02,2.86,0
		c2.16,0.04,3.91,1.52,4.32,3.62c0.08,0.39,0.06,0.81,0.12,1.2c0.18,1.09,0.81,1.8,1.87,2.13c0.43,0.13,0.87,0.23,1.3,0.34
		c0.51-1.31,1.03-1.65,2.39-1.51c1.98,0.19,3.95,0.4,5.92,0.63c1.15,0.13,1.82,1.09,1.58,2.23c-0.22,1.03-0.45,2.06-0.68,3.08
		c-0.29,1.29-1.28,1.85-2.54,1.43c-1.8-0.61-3.59-1.23-5.38-1.84c-1.27-0.43-1.62-0.9-1.66-2.24c-0.38-0.1-0.76-0.21-1.15-0.31
		c-2.06-0.53-3.34-2.07-3.48-4.17c-0.12-1.85-1.12-2.79-2.99-2.79c-0.82,0-1.65,0-2.4,0c-0.3,0.6-0.57,1.15-0.83,1.7
		c-0.06,0.12-0.07,0.27-0.07,0.41c-0.01,0.9,0.01,1.79-0.01,2.69c-0.01,0.29,0.09,0.43,0.36,0.56c3.87,1.85,5.91,4.93,5.93,9.23
		c0.03,10.35,0.01,20.7,0.01,31.06c0,1.89-1.08,2.97-2.98,2.97c-4.62,0-9.25,0-13.87,0C5.02,57,3.9,55.91,3.9,54.1
		C3.9,43.73,3.87,33.36,3.91,22.99c0.02-4.27,2.06-7.34,5.91-9.19c0.29-0.14,0.38-0.3,0.37-0.59c-0.02-0.63-0.01-1.27-0.01-1.9
		c0-1.09,0-1.09-0.61-2.15C8.65,9.9,7.72,10.64,6.8,11.38c-0.16,0.13-0.33,0.26-0.5,0.38c-0.49,0.33-1,0.28-1.31-0.13
		c-0.32-0.42-0.24-0.91,0.23-1.29c0.62-0.52,1.26-1.01,1.89-1.52c0.13-0.1,0.25-0.22,0.49-0.43c-1.12,0-2.09,0-3.07,0
		c-0.21,0-0.42,0.01-0.63,0C3.37,8.35,3.02,8.01,3,7.53C2.98,7.04,3.35,6.62,3.88,6.6c0.67-0.03,1.34-0.01,2-0.01
		c1.16,0,2.32,0,3.49,0c0.33-1.32,1.02-2.35,2.19-2.99C12.05,3.34,12.6,3.2,13.12,3C13.58,3,14.04,3,14.49,3z M21.86,49.78
		c0.01-0.15,0.03-0.27,0.03-0.38c0-8.97,0-17.93-0.01-26.9c0-1.37-0.41-2.62-1.08-3.81c-0.16-0.3-0.36-0.4-0.7-0.4
		c-4.2,0.01-8.4,0.01-12.6,0c-0.36,0-0.53,0.14-0.69,0.42c-0.77,1.35-1.1,2.79-1.1,4.34c0.01,8.72,0,17.44,0.01,26.16
		c0,0.19,0.02,0.37,0.03,0.58C11.13,49.78,16.48,49.78,21.86,49.78z M21.88,51.64c-5.42,0-10.77,0-16.11,0
		c-0.03,0.06-0.05,0.09-0.05,0.12C5.71,52.48,5.7,53.2,5.7,53.92c0,1.02,0.26,1.28,1.27,1.28c4.55,0,9.1,0,13.64,0
		c0.16,0,0.32,0.01,0.47-0.01c0.44-0.08,0.77-0.33,0.78-0.79C21.9,53.49,21.88,52.58,21.88,51.64z M18.71,16.47
		c0.02-0.04,0.04-0.09,0.06-0.13c-0.6-0.33-1.18-0.72-1.82-0.98c-0.95-0.4-1.39-1.06-1.36-2.08c0.02-0.52,0-1.05,0-1.63
		c-1.22,0.45-2.39,0.45-3.61-0.01c0,0.5-0.03,0.93,0.01,1.36c0.11,1.24-0.39,2.03-1.58,2.47c-0.56,0.21-1.06,0.59-1.59,0.89
		c0.02,0.04,0.04,0.07,0.07,0.11C12.17,16.47,15.44,16.47,18.71,16.47z M13.75,10.19C15.27,10.2,16.49,9,16.49,7.5
		c0-1.47-1.21-2.7-2.67-2.71c-1.51-0.01-2.72,1.19-2.72,2.7C11.09,8.99,12.27,10.18,13.75,10.19z M36.88,14.79
		c-2.14-0.22-4.22-0.44-6.3-0.66c-0.13,0.6-0.27,1.09-0.33,1.59c-0.02,0.14,0.12,0.39,0.25,0.44c0.46,0.2,0.95,0.34,1.44,0.51
		c1.39,0.47,2.78,0.94,4.21,1.43C36.39,16.99,36.62,15.93,36.88,14.79z"/>
	<path d="M57,47.09c-0.19,0.78-0.31,1.59-0.57,2.34c-0.91,2.62-2.75,4.41-5.17,5.64c-3.19,1.63-6.6,2.09-10.13,1.88
		c-2.71-0.17-5.32-0.78-7.69-2.14c-3.5-2.01-5.3-5.01-5.24-9.08c0.04-2.36,0.22-4.7,0.96-6.96c0.08-0.25,0.17-0.5,0.29-0.73
		c0.26-0.54,0.73-0.82,1.32-0.78c0.59,0.05,0.98,0.36,1.17,0.91c0.14,0.38,0.23,0.78,0.4,1.14c0.54,1.13,1.69,1.65,2.91,1.35
		c0.55-0.13,0.82-0.5,0.88-1.05c0.13-1.08-0.13-2.1-0.5-3.09c-0.45-1.21-1.03-2.39-1.43-3.62c-0.63-1.95-0.7-3.94,0.37-5.76
		c0.5-0.85,1.2-1.6,1.91-2.29c1.12-1.09,2.36-2.05,3.49-3.13c0.58-0.55,1.03-1.24,1.51-1.89c0.58-0.78,1.68-0.86,2.19-0.07
		c1.19,1.86,2.86,3.22,4.53,4.6c1.12,0.93,2.15,1.91,2.72,3.29c0.86,2.06,0.57,4.1-0.19,6.11c-0.43,1.15-0.99,2.25-1.34,3.42
		c-0.24,0.79-0.28,1.65-0.28,2.48c0,0.63,0.38,0.92,1.01,1.01c1.31,0.2,2.32-0.35,2.84-1.57c0.11-0.26,0.18-0.53,0.26-0.8
		c0.19-0.64,0.62-1.01,1.23-1.05c0.63-0.04,1.17,0.26,1.37,0.93c0.33,1.11,0.63,2.23,0.86,3.36c0.17,0.85,0.22,1.74,0.33,2.6
		C57,45.12,57,46.1,57,47.09z M54.67,40.11c-0.06,0-0.12,0-0.17,0c-0.09,0.15-0.18,0.29-0.27,0.44c-1.13,1.81-3.74,2.56-5.46,1.56
		c-1.31-0.76-1.62-2-1.54-3.4c0.09-1.44,0.57-2.77,1.18-4.07c0.36-0.78,0.71-1.57,0.94-2.39c0.74-2.57,0.06-4.56-2.04-6.2
		c-0.48-0.38-0.96-0.77-1.42-1.18c-1.18-1.05-2.35-2.1-3.44-3.08c-1.07,1.01-2.35,2.22-3.64,3.43c-0.49,0.45-1.02,0.86-1.51,1.31
		c-1.44,1.32-2.02,2.96-1.61,4.86c0.24,1.08,0.67,2.14,1.1,3.17c0.56,1.35,1.07,2.71,1.17,4.18c0.14,1.86-0.77,3.35-2.37,3.66
		c-1.81,0.35-3.52-0.18-4.63-1.88c-0.09-0.14-0.18-0.29-0.3-0.49c-0.06,0.23-0.1,0.4-0.14,0.57c-0.4,1.81-0.56,3.64-0.52,5.49
		c0.05,2.61,1.11,4.71,3.17,6.31c1.31,1.01,2.79,1.67,4.38,2.11c0.17,0.05,0.34,0.08,0.62,0.14c-0.13-0.18-0.18-0.25-0.23-0.32
		c-0.06-0.09-0.12-0.17-0.17-0.26c-1.3-2.17-1.87-4.46-1.15-6.95c0.34-1.18,1.35-1.68,2.47-1.22c1.49,0.62,2.82-0.68,2.55-2.07
		c-0.28-1.47,1.06-2.52,2.46-1.99c2.11,0.79,3.63,2.24,4.34,4.37c0.94,2.8,0.49,5.47-1.07,7.96c-0.09,0.15-0.19,0.29-0.29,0.44
		c0.03,0.04,0.07,0.09,0.1,0.13c0.98-0.37,1.99-0.68,2.93-1.13c2.55-1.23,4.4-3.09,4.92-5.98c0.17-0.96,0.2-1.96,0.14-2.94
		C55.08,43.15,54.85,41.63,54.67,40.11z M38.36,47.58c-0.06,0.2-0.13,0.36-0.15,0.53c-0.36,2.47,0.32,4.59,2.2,6.26
		c0.39,0.34,0.93,0.59,1.44,0.71c1.57,0.38,2.8-0.29,3.72-1.5c1.55-2.04,1.93-4.34,1.14-6.77c-0.53-1.61-1.67-2.69-3.28-3.28
		C44.04,46.39,41.2,48.68,38.36,47.58z"/>
	<path d="M7.51,31.33c0-2.46,0-4.92,0-7.38c0-1.35,0.7-2.05,2.04-2.05c2.83,0,5.66,0,8.49,0c1.35,0,2.05,0.7,2.05,2.04
		c0,4.94,0,9.88,0,14.82c0,1.36-0.68,2.04-2.04,2.04c-2.83,0-5.66,0-8.49,0c-1.39,0-2.05-0.68-2.05-2.08
		C7.5,36.25,7.51,33.79,7.51,31.33z M9.34,23.72c0,5.12,0,10.17,0,15.24c2.99,0,5.95,0,8.91,0c0-5.1,0-10.17,0-15.24
		C15.26,23.72,12.32,23.72,9.34,23.72z"/>
	<path d="M13.81,44.4c-1.67,0-3.34,0-5.01,0c-0.18,0-0.35,0-0.53-0.03c-0.47-0.08-0.76-0.41-0.76-0.87c0-0.46,0.28-0.8,0.74-0.88
		C8.43,42.6,8.6,42.6,8.78,42.6c3.34,0,6.68,0,10.02,0c0.11,0,0.21,0,0.32,0c0.61,0.04,0.97,0.37,0.97,0.89
		c0.01,0.52-0.35,0.87-0.95,0.91c-0.21,0.01-0.42,0.01-0.63,0.01C16.94,44.4,15.37,44.4,13.81,44.4z"/>
</g>
</svg>
