<?xml version="1.0" encoding="utf-8"?>
<!-- Generator: Adobe Illustrator 26.0.1, SVG Export Plug-In . SVG Version: 6.00 Build 0)  -->
<svg version="1.1" id="Layer_1" xmlns="http://www.w3.org/2000/svg" xmlns:xlink="http://www.w3.org/1999/xlink" x="0px" y="0px"
	 viewBox="0 0 60 60" style="enable-background:new 0 0 60 60;" xml:space="preserve">
<g>
	<path d="M57,55.4c-0.47,1.22-1.38,1.6-2.65,1.6c-16.29-0.02-32.59-0.02-48.88-0.02C3.75,56.99,3,56.23,3,54.52
		c0-1.41,0-2.81,0-4.22c0-1.37,0.83-2.19,2.2-2.2c1.67-0.01,3.33,0,5.04,0c0-1.91,0-3.78,0-5.7c-0.84-0.09-1.69-0.2-2.54-0.27
		c-2.72-0.21-4.67-2.29-4.69-5.01c-0.01-0.9-0.01-1.79,0-2.69c0.01-1.07,0.63-1.62,1.69-1.51c1,0.1,2,0.15,2.99,0.31
		c2.52,0.4,4.2,2.41,4.2,4.95c0,0.07,0,0.14,0,0.21c0.04,0.01,0.09,0.04,0.1,0.03c1.29-1.15,2.91-1.19,4.5-1.34
		c0.42-0.04,0.84-0.1,1.26-0.11c0.78-0.02,1.38,0.49,1.4,1.26c0.03,1.26,0.08,2.54-0.04,3.79c-0.16,1.71-1.66,4-4.71,4.21
		c-0.82,0.06-1.64,0.16-2.49,0.25c0,0.54,0,1.05,0,1.6c5.76,0,11.49,0,17.29,0c0-0.64,0-1.26,0-1.87c0-1.11-0.02-2.21,0.01-3.32
		c0.01-0.39-0.12-0.52-0.5-0.55c-0.94-0.08-1.89-0.15-2.83-0.31c-2.1-0.37-3.77-2.21-3.92-4.32c-0.08-1.14-0.06-2.28-0.03-3.42
		c0.02-0.88,0.62-1.44,1.46-1.38c1.05,0.08,2.1,0.16,3.15,0.31c2.52,0.38,4.22,2.36,4.27,4.91c0,0.09,0.01,0.17,0.02,0.32
		c0.16-0.11,0.29-0.18,0.41-0.27c0.73-0.53,1.53-0.84,2.43-0.92c0.87-0.08,1.75-0.18,2.62-0.28c1.18-0.13,1.8,0.42,1.81,1.61
		c0.01,0.81,0,1.62,0,2.43c0,2.93-1.9,4.97-4.83,5.22c-0.8,0.07-1.61,0.16-2.45,0.25c0,0.53,0,1.05,0,1.62c0.22,0,0.4,0,0.59,0
		c2.28,0,4.57,0,6.85,0c0.19,0,0.43-0.06,0.57,0.04c0.25,0.17,0.54,0.4,0.62,0.67c0.12,0.37-0.11,0.69-0.5,0.81
		c-0.25,0.07-0.52,0.07-0.78,0.07c-10.88,0-21.76,0-32.64,0c-0.96,0-0.97,0.01-0.97,0.98c0,1.34,0,2.67,0,4.01
		c0,0.62,0.12,0.73,0.75,0.73c16.45,0,32.9,0,49.36,0c0.61,0,0.73-0.12,0.73-0.75c0-1.41,0-2.81,0-4.22c0-0.67-0.08-0.75-0.77-0.75
		c-3.94,0-7.87,0-11.81,0c-0.19,0-0.39,0.01-0.58-0.03c-0.44-0.08-0.69-0.35-0.66-0.81c0.02-0.46,0.29-0.7,0.74-0.74
		c0.16-0.01,0.32-0.01,0.47-0.01c1.56,0,3.13,0,4.69,0c0.19,0,0.38,0,0.59,0c0-1.92,0-3.78,0-5.69c-0.87-0.09-1.74-0.21-2.61-0.28
		c-2.67-0.21-4.61-2.27-4.64-4.94c-0.01-0.95-0.01-1.9,0-2.85c0.01-0.98,0.63-1.53,1.6-1.44c1.03,0.1,2.07,0.16,3.09,0.33
		c2.42,0.38,4.1,2.33,4.17,4.77c0,0.13,0.01,0.26,0.02,0.31c0.77-0.33,1.51-0.78,2.3-0.95c1.16-0.24,2.37-0.31,3.56-0.4
		c0.73-0.06,1.15,0.41,1.41,1.04c0,1.34,0,2.67,0,4.01c-0.03,0.08-0.08,0.15-0.1,0.23c-0.49,2.14-2.06,3.61-4.23,3.9
		c-0.97,0.13-1.94,0.22-2.94,0.32c0,0.54,0,1.06,0,1.63c0.22,0,0.41,0,0.6,0c1.39,0,2.77,0.05,4.16-0.01
		c1.26-0.05,2.08,0.44,2.51,1.62C57,51.61,57,53.51,57,55.4z M31.97,44.76c0.67-0.07,1.2-0.11,1.73-0.2
		c1.3-0.21,2.18-0.98,2.61-2.18c0.44-1.23,0.14-2.52,0.22-3.83c-0.97,0.1-1.84,0.19-2.71,0.28c-2.26,0.25-3.46,2.3-2.92,4.75
		c0.6-0.67,1.17-1.33,1.79-1.96c0.19-0.19,0.5-0.37,0.76-0.37c0.22,0,0.58,0.24,0.63,0.43c0.07,0.27,0,0.68-0.17,0.9
		C33.32,43.31,32.68,43.98,31.97,44.76z M28.02,40.68c-0.21-0.24-0.31-0.37-0.43-0.5c-0.51-0.58-1.06-1.13-1.53-1.74
		c-0.15-0.2-0.21-0.58-0.13-0.82c0.07-0.21,0.4-0.44,0.63-0.44c0.25-0.01,0.57,0.16,0.76,0.35c0.61,0.62,1.18,1.28,1.86,2.03
		c0-0.71,0.05-1.29-0.01-1.85c-0.16-1.41-0.93-2.43-2.27-2.8c-1.06-0.3-2.21-0.32-3.37-0.47c0,1.09-0.05,2.09,0.01,3.08
		c0.1,1.46,1.22,2.67,2.66,2.95C26.75,40.59,27.31,40.61,28.02,40.68z M11.81,43.52c0.07,0.03,0.13,0.06,0.2,0.09
		c0.09-0.12,0.18-0.24,0.28-0.36c0.51-0.56,1-1.14,1.53-1.67c0.18-0.18,0.48-0.35,0.72-0.33c0.23,0.02,0.58,0.24,0.63,0.44
		c0.07,0.28,0,0.68-0.18,0.9c-0.57,0.72-1.22,1.39-1.93,2.17c0.67-0.08,1.2-0.12,1.73-0.2c1.32-0.21,2.31-0.98,2.6-2.24
		c0.28-1.2,0.2-2.49,0.28-3.79c-1.03,0.11-1.9,0.19-2.77,0.29c-1.44,0.17-2.42,0.97-2.83,2.32C11.84,41.9,11.89,42.73,11.81,43.52z
		 M55.4,38.55c-0.88,0.09-1.7,0.19-2.52,0.26c-2.37,0.19-3.6,2.24-3.08,4.81c0.11-0.14,0.2-0.25,0.29-0.35
		c0.53-0.59,1.05-1.18,1.59-1.76c0.34-0.36,0.8-0.38,1.13-0.09c0.34,0.3,0.36,0.73,0.05,1.13c-0.17,0.22-0.37,0.42-0.56,0.63
		c-0.45,0.5-0.9,1-1.44,1.6c0.69-0.08,1.23-0.12,1.76-0.21c1.45-0.23,2.66-1.45,2.76-2.91C55.46,40.65,55.4,39.63,55.4,38.55z
		 M10.29,39.58c0-0.63,0.01-1.08,0-1.54c-0.03-1.75-1.32-3.14-3.06-3.3c-0.61-0.06-1.22-0.13-1.83-0.19c-0.25-0.02-0.51,0-0.8,0
		c0,0.78,0.02,1.54,0,2.29c-0.09,2.43,1.7,3.99,4.44,3.74c-0.15-0.18-0.28-0.34-0.42-0.49c-0.49-0.55-1-1.09-1.48-1.65
		c-0.27-0.32-0.29-0.68-0.02-1.01c0.25-0.31,0.59-0.38,0.94-0.2c0.17,0.08,0.3,0.24,0.43,0.38C9.07,38.23,9.62,38.85,10.29,39.58z
		 M48.01,39.48c0.05-0.01,0.1-0.02,0.16-0.03c-0.04-0.71,0-1.44-0.15-2.12c-0.26-1.22-1.03-2.12-2.25-2.42
		c-1.06-0.26-2.18-0.3-3.28-0.44c0,1.21-0.18,2.36,0.04,3.43c0.44,2.11,2.13,2.83,4.34,2.69c-0.61-0.67-1.19-1.32-1.77-1.97
		c-0.42-0.47-0.44-0.91-0.09-1.25c0.36-0.35,0.83-0.27,1.27,0.21C46.86,38.21,47.43,38.85,48.01,39.48z"/>
	<path d="M48.46,3c0.34,0.09,0.67,0.16,1.01,0.26c4.99,1.38,6.98,7.3,3.83,11.41c-0.07,0.1-0.14,0.2-0.24,0.33
		c0.75,1.08,1.45,2.2,2.25,3.24c1.23,1.58,0.25,3.26-1.01,3.85c-4.07,1.91-8.11,3.86-12.18,5.77c-1.59,0.75-3.04,0.05-3.54-1.63
		c-0.13-0.44-0.15-1-0.45-1.26c-0.27-0.24-0.83-0.14-1.27-0.18c-1.65-0.13-3.29-0.27-4.94-0.38c-0.3-0.02-0.62,0.06-0.91,0.17
		c-0.71,0.26-1.39,0.58-2.1,0.85c-1.4,0.54-2.62-0.29-2.62-1.79c-0.01-1.34-0.01-2.67,0-4.01c0.01-1.38,1.19-2.21,2.5-1.76
		c0.33,0.11,0.67,0.23,0.97,0.4c2.12,1.22,4.42,0.55,6.73,0.76c-0.27-0.95-0.52-1.78-0.75-2.62c-0.12-0.46-0.26-0.92-0.29-1.39
		c-0.07-1.12,0.39-1.97,1.44-2.47c1.03-0.48,2.06-0.98,3.09-1.46c0.25-0.12,0.37-0.25,0.36-0.55c-0.18-3.75,2.6-6.99,6.19-7.48
		c0.05-0.01,0.09-0.05,0.13-0.08C47.26,3,47.86,3,48.46,3z M49.4,12.5c-3.78,1.8-7.5,3.56-11.22,5.35
		c-0.13,0.06-0.27,0.33-0.23,0.46c0.72,2.57,1.47,5.13,2.21,7.69c0.11,0.38,0.36,0.57,0.74,0.53c0.25-0.02,0.52-0.1,0.75-0.21
		c2.75-1.29,5.49-2.6,8.23-3.9c1.27-0.6,2.54-1.19,3.8-1.81c0.67-0.33,0.78-0.8,0.37-1.4c-0.51-0.74-1.02-1.47-1.53-2.21
		C51.49,15.51,50.46,14.03,49.4,12.5z M52.08,13.58c1.5-1.73,1.51-4.66,0.07-6.67c-1.52-2.11-4.36-2.9-6.77-1.89
		c-2.07,0.87-3.7,3.31-3.39,5.12c1.27-0.6,2.54-1.2,3.81-1.81c1.02-0.49,1.95-0.32,2.79,0.4c0.28,0.24,0.5,0.54,0.71,0.84
		C50.22,10.89,51.13,12.22,52.08,13.58z M37.44,16.43c3.69-1.75,7.35-3.49,11.04-5.25c-0.23-0.34-0.43-0.65-0.65-0.94
		c-0.48-0.64-0.86-0.72-1.59-0.37c-2.6,1.23-5.2,2.47-7.8,3.7c-1.6,0.76-1.68,0.96-1.1,2.66C37.36,16.28,37.39,16.32,37.44,16.43z
		 M37.72,23.26c-0.23-0.8-0.46-1.54-0.65-2.28c-0.08-0.32-0.24-0.4-0.55-0.4c-1.32,0.02-2.63,0.01-3.95,0.01
		c-0.13,0-0.26,0.03-0.39,0.04c0,0.75,0,1.46,0,2.2C34.02,22.98,35.82,23.11,37.72,23.26z M27.88,23.96
		c0.14,0.02,0.22,0.05,0.28,0.03c0.75-0.29,1.5-0.58,2.24-0.9c0.1-0.04,0.16-0.26,0.16-0.39c0.02-0.68,0.02-1.37,0-2.05
		c0-0.15-0.09-0.37-0.2-0.42c-0.68-0.31-1.38-0.6-2.09-0.85c-0.09-0.03-0.37,0.15-0.37,0.24C27.87,21.05,27.88,22.49,27.88,23.96z"
		/>
	<path d="M15.86,24.64c0.08-0.62,0.08-1.28,0.27-1.86c0.55-1.66,1.76-2.58,3.5-2.76c0.61-0.06,1.23-0.04,1.84-0.02
		c0.54,0.02,0.85,0.35,0.84,0.82c-0.02,0.46-0.34,0.74-0.89,0.75c-0.47,0.01-0.95-0.01-1.42,0c-1.46,0.04-2.44,1-2.48,2.46
		c-0.02,0.54,0.01,1.09-0.01,1.63c-0.02,0.56-0.32,0.86-0.79,0.86c-0.47,0-0.75-0.31-0.78-0.87c-0.01-0.33,0-0.67,0-1
		C15.9,24.65,15.88,24.65,15.86,24.64z"/>
	<path d="M19.66,26.8c0-0.62-0.01-1.23,0-1.84c0.03-1.2,0.96-2.11,2.16-2.15c0.47-0.01,0.95-0.01,1.42,0
		c0.47,0.01,0.79,0.31,0.82,0.73c0.03,0.42-0.3,0.78-0.77,0.84c-0.16,0.02-0.32,0.01-0.47,0.01c-1.57,0-1.57,0-1.57,1.6
		c0,0.88,0,1.76,0,2.64c0,0.65-0.31,1.03-0.81,1.02c-0.48-0.01-0.77-0.37-0.77-1C19.65,28.03,19.66,27.42,19.66,26.8
		C19.66,26.8,19.66,26.8,19.66,26.8z"/>
	<path d="M17.5,30.57c0,0.42,0.02,0.84,0,1.26c-0.03,0.51-0.33,0.81-0.79,0.8c-0.45,0-0.76-0.3-0.77-0.81
		c-0.02-0.86-0.02-1.72,0-2.57c0.01-0.48,0.33-0.77,0.75-0.78c0.45-0.01,0.77,0.29,0.8,0.79C17.52,29.69,17.5,30.13,17.5,30.57z"/>
	<path d="M16.79,52.56c-0.01,0.44-0.39,0.78-0.84,0.75c-0.43-0.02-0.74-0.37-0.73-0.8c0.01-0.42,0.36-0.77,0.78-0.77
		C16.43,51.75,16.81,52.13,16.79,52.56z"/>
	<path d="M36.83,52.54c0,0.44-0.37,0.79-0.82,0.78c-0.43-0.01-0.75-0.35-0.75-0.78c0-0.43,0.33-0.77,0.75-0.79
		C36.44,51.73,36.83,52.11,36.83,52.54z"/>
	<path d="M24.49,52.93c0.01,0.41-0.34,0.77-0.75,0.79c-0.45,0.02-0.81-0.32-0.82-0.77c-0.01-0.42,0.32-0.78,0.74-0.8
		C24.09,52.13,24.48,52.5,24.49,52.93z"/>
	<path d="M43.47,52.95c-0.01,0.44-0.39,0.79-0.83,0.77c-0.42-0.02-0.75-0.37-0.74-0.79c0.01-0.42,0.35-0.77,0.76-0.78
		C43.1,52.14,43.48,52.52,43.47,52.95z"/>
</g>
</svg>
