<?xml version="1.0" encoding="utf-8"?>
<!-- Generator: Adobe Illustrator 26.0.1, SVG Export Plug-In . SVG Version: 6.00 Build 0)  -->
<svg version="1.1" id="Layer_1" xmlns="http://www.w3.org/2000/svg" xmlns:xlink="http://www.w3.org/1999/xlink" x="0px" y="0px"
	 viewBox="0 0 60 60" style="enable-background:new 0 0 60 60;" xml:space="preserve">
<g>
	<path d="M57,48.45C56.76,48.89,56.39,49,55.9,49c-17.26-0.01-34.52-0.01-51.78-0.01c-0.11,0-0.21,0-0.32,0
		c-0.46-0.03-0.8-0.32-0.8-0.74c-0.01-0.45,0.25-0.69,0.67-0.83c0.27-0.1,0.58-0.23,0.76-0.44c1.35-1.52,2.67-3.08,4.03-4.6
		c0.2-0.22,0.56-0.43,0.84-0.42c0.66,0.02,0.9,0.8,0.42,1.35c-1.01,1.19-2.05,2.37-3.07,3.55C6.52,47,6.39,47.15,6.21,47.37
		c0.22,0.02,0.36,0.04,0.5,0.04c3.8,0,7.59,0.01,11.39-0.01c0.26,0,0.55-0.1,0.77-0.24c2.36-1.52,4.72-3.05,7.07-4.59
		c1.83-1.2,3.64-1.21,5.47-0.02c2.39,1.54,4.79,3.07,7.2,4.58c0.26,0.17,0.61,0.27,0.92,0.28c2.21,0.02,4.43,0.01,6.64,0.01
		c0.16,0,0.31,0,0.6,0c-0.23-0.16-0.34-0.25-0.47-0.32c-4.96-2.85-9.93-5.7-14.89-8.55c-0.14-0.08-0.28-0.15-0.41-0.24
		c-0.45-0.29-0.58-0.73-0.34-1.12c0.23-0.38,0.66-0.49,1.11-0.25c0.56,0.3,1.1,0.62,1.65,0.94c0.66,0.37,1.33,0.73,1.96,1.13
		c0.33,0.21,0.58,0.18,0.92,0.04c4.17-1.76,8.21-1.48,12.14,0.75c0.41,0.23,0.65,0.55,0.49,1.03c-0.16,0.51-0.72,0.66-1.26,0.34
		c-1.28-0.76-2.65-1.28-4.12-1.53c-1.89-0.32-3.74-0.17-5.56,0.44c-0.11,0.04-0.22,0.09-0.39,0.17c0.19,0.12,0.33,0.21,0.47,0.3
		c3.87,2.22,7.73,4.44,11.61,6.65c0.23,0.13,0.52,0.2,0.79,0.21c1.07,0.02,2.14,0.01,3.33,0.01c-0.18-0.22-0.29-0.37-0.41-0.5
		c-0.93-1.08-1.87-2.15-2.8-3.22c-0.43-0.5-0.45-0.95-0.06-1.29c0.37-0.31,0.82-0.24,1.23,0.23c1.27,1.46,2.53,2.92,3.82,4.37
		c0.18,0.2,0.48,0.28,0.71,0.43c0.24,0.16,0.47,0.33,0.7,0.5C57,48.1,57,48.28,57,48.45z M21.5,47.37c4.86,0,9.63,0,14.53,0
		c-1.91-1.22-3.72-2.37-5.51-3.53c-1.24-0.8-2.46-0.78-3.69,0.03c-1.61,1.07-3.24,2.11-4.85,3.16C21.83,47.13,21.7,47.23,21.5,47.37
		z"/>
	<path d="M17.64,25.66c-2.58,0-5.17,0.01-7.75,0c-1.23-0.01-2.23-0.76-2.58-1.89c-0.34-1.11,0.05-2.35,1.05-2.95
		c0.47-0.28,1.08-0.46,1.63-0.48c2.27-0.05,4.53-0.03,6.8-0.02c0.7,0,1.07,0.36,0.99,0.92c-0.07,0.45-0.36,0.65-0.98,0.65
		c-2.16,0-4.32,0-6.49,0c-0.21,0-0.42,0-0.63,0.03c-0.58,0.1-0.93,0.55-0.9,1.12C8.81,23.58,9.2,24,9.75,24.07
		c0.19,0.02,0.39,0.01,0.58,0.01c5.08,0,10.16-0.01,15.24,0c1.73,0,2.85,1.71,2.14,3.24c-0.45,0.97-1.26,1.38-2.3,1.38
		c-2.9,0-5.8,0-8.7,0c-1.65,0-3.3,0-4.96-0.01c-0.24,0-0.56,0-0.7-0.13c-0.2-0.19-0.4-0.54-0.36-0.78c0.04-0.24,0.35-0.47,0.59-0.63
		c0.14-0.09,0.38-0.03,0.57-0.03c4.45,0,8.9,0,13.34,0c0.21,0,0.43,0,0.62-0.06c0.37-0.11,0.6-0.41,0.47-0.76
		c-0.09-0.25-0.37-0.45-0.6-0.62c-0.11-0.08-0.31-0.02-0.47-0.02C22.7,25.66,20.17,25.66,17.64,25.66z"/>
	<path d="M29.87,16.34c-2.18,0-4.36,0-6.54,0.01c-0.24,0-0.54,0.01-0.69,0.15c-0.18,0.16-0.31,0.48-0.29,0.72
		c0.03,0.37,0.33,0.56,0.71,0.57c0.86,0,1.72,0,2.58,0.01c1.02,0,2.04-0.01,3.06,0c0.62,0,0.97,0.31,0.97,0.8
		c0,0.49-0.35,0.78-0.98,0.78c-1.84,0.01-3.69,0.01-5.53,0c-1.42-0.01-2.43-0.98-2.44-2.29c-0.01-1.32,1.03-2.31,2.48-2.31
		c4.27-0.01,8.54,0,12.81,0c0.21,0,0.42,0.01,0.63-0.02c0.63-0.07,1.06-0.53,1.04-1.11c-0.03-0.58-0.49-1.03-1.12-1.04
		c-1.07-0.02-2.14,0-3.22-0.01c-0.83,0-1.65,0.01-2.48,0c-0.57-0.01-0.92-0.31-0.92-0.79c0-0.48,0.35-0.79,0.92-0.79
		c1.92-0.01,3.83-0.01,5.75,0c1.44,0.01,2.58,1.13,2.65,2.55c0.07,1.4-0.99,2.68-2.43,2.73c-2.14,0.08-4.29,0.04-6.43,0.04
		C30.22,16.34,30.05,16.34,29.87,16.34z"/>
	<path d="M41.63,30.97c-2.4,0.01-4.34-1.91-4.36-4.29c-0.01-2.41,1.94-4.38,4.34-4.38c2.38,0,4.32,1.94,4.32,4.33
		C45.94,29.03,44.03,30.96,41.63,30.97z M41.62,29.39c1.53-0.01,2.74-1.22,2.74-2.74c0-1.52-1.22-2.75-2.73-2.76
		c-1.53-0.01-2.78,1.25-2.77,2.78C38.87,28.18,40.09,29.39,41.62,29.39z"/>
	<path d="M21.24,32.32c1.66,0.03,3.12,0.38,4.46,1.13c0.91,0.5,1.8,1.02,2.7,1.54c0.54,0.31,0.7,0.74,0.46,1.17
		c-0.24,0.43-0.69,0.51-1.23,0.21c-0.93-0.53-1.85-1.08-2.79-1.58c-2.96-1.57-6.61-0.99-8.91,1.44c-1.18,1.25-2.28,2.58-3.41,3.88
		c-0.12,0.13-0.22,0.27-0.35,0.39c-0.34,0.32-0.77,0.34-1.09,0.05c-0.32-0.29-0.37-0.72-0.08-1.09c0.27-0.35,0.57-0.67,0.86-1
		c0.92-1.06,1.82-2.14,2.77-3.18C16.42,33.31,18.71,32.38,21.24,32.32z"/>
	<path d="M33.91,25.86c0.34-0.02,0.72,0.02,0.93,0.43c0.18,0.36,0.1,0.69-0.2,0.95c-0.33,0.3-1.25,0.3-1.59,0
		c-0.3-0.26-0.37-0.59-0.2-0.95C33.01,25.96,33.27,25.86,33.91,25.86z"/>
	<path d="M49.4,25.86c0.73,0,1.16,0.38,1.03,0.92c-0.12,0.52-0.5,0.67-0.99,0.67c-0.69,0-1.01-0.17-1.12-0.63
		C48.17,26.22,48.59,25.86,49.4,25.86z"/>
	<path d="M40.82,34.39c0-0.66,0.19-1.02,0.64-1.02c0.26,0,0.71,0.14,0.75,0.3c0.12,0.45,0.13,0.95,0.04,1.4
		c-0.03,0.17-0.46,0.37-0.71,0.38C41.05,35.48,40.82,35.09,40.82,34.39z"/>
	<path d="M40.7,18.91c0.16-0.35,0.25-0.7,0.46-0.93c0.26-0.29,0.77-0.19,1.03,0.1c0.3,0.34,0.29,1.3-0.01,1.63
		c-0.28,0.3-0.76,0.38-1.03,0.08C40.95,19.57,40.86,19.24,40.7,18.91z"/>
	<path d="M37.1,21.34c0.01,0.44-0.35,0.82-0.78,0.81c-0.46,0-1.17-0.71-1.18-1.18c-0.01-0.43,0.3-0.78,0.73-0.8
		C36.37,20.15,37.09,20.83,37.1,21.34z"/>
	<path d="M46.9,31.14c0.51,0.01,1.2,0.73,1.18,1.23c-0.02,0.42-0.38,0.76-0.79,0.75c-0.49-0.01-1.19-0.75-1.17-1.24
		C46.13,31.46,46.47,31.14,46.9,31.14z"/>
	<path d="M48.08,20.98c-0.01,0.47-0.73,1.17-1.19,1.18c-0.44,0-0.79-0.37-0.78-0.82c0.01-0.51,0.74-1.19,1.24-1.16
		C47.78,20.2,48.09,20.54,48.08,20.98z"/>
	<path d="M35.86,33.12c-0.44-0.03-0.76-0.42-0.72-0.87c0.04-0.49,0.76-1.14,1.23-1.11c0.45,0.03,0.77,0.4,0.72,0.86
		C37.05,32.49,36.31,33.16,35.86,33.12z"/>
	<path d="M22.81,40.96c-0.5-0.01-0.99-0.7-0.96-1.32c0.02-0.43,0.37-0.75,0.8-0.74c0.47,0.02,0.97,0.67,0.97,1.27
		C23.62,40.6,23.25,40.97,22.81,40.96z"/>
	<path d="M25.19,40.96c-0.42,0.01-0.77-0.33-0.79-0.75c-0.03-0.61,0.49-1.3,0.97-1.31c0.43-0.01,0.81,0.37,0.81,0.8
		C26.16,40.31,25.66,40.95,25.19,40.96z"/>
	<path d="M17.66,44.25c0.01,0.6-0.47,1.25-0.95,1.27c-0.45,0.02-0.82-0.33-0.83-0.76c-0.01-0.62,0.51-1.28,1.01-1.27
		C17.32,43.49,17.65,43.83,17.66,44.25z"/>
	<path d="M15.12,44.76c-0.01,0.44-0.37,0.79-0.82,0.77c-0.47-0.02-0.97-0.68-0.96-1.27c0.01-0.44,0.38-0.79,0.82-0.77
		C14.63,43.51,15.13,44.17,15.12,44.76z"/>
</g>
</svg>
