<?xml version="1.0" encoding="utf-8"?>
<!-- Generator: Adobe Illustrator 26.0.1, SVG Export Plug-In . SVG Version: 6.00 Build 0)  -->
<svg version="1.1" id="Layer_1" xmlns="http://www.w3.org/2000/svg" xmlns:xlink="http://www.w3.org/1999/xlink" x="0px" y="0px"
	 viewBox="0 0 60 60" style="enable-background:new 0 0 60 60;" xml:space="preserve">
<g>
	<path d="M39.64,8.81c-1.14,0-2.22-0.08-3.29,0.02c-1.48,0.14-2.49,1.41-2.49,2.99c0,6.03,0,12.05-0.01,18.08
		c0,2.56-1.75,4.58-4.25,4.88c-0.85,0.1-1.72,0.02-2.64,0.02c-0.03,0.27-0.06,0.48-0.06,0.7c-0.25,6.76-0.5,13.53-0.75,20.29
		C26.12,56.69,25.8,57,24.89,57c-4.94,0-9.88,0-14.82,0c-0.95,0-1.25-0.3-1.29-1.25c-0.29-7.87-0.58-15.74-0.87-23.6
		c-0.01-0.38-0.05-0.75-0.07-1.18c-0.3,0-0.55,0-0.81,0c-0.76-0.02-1.12-0.36-1.13-1.1c-0.01-1.19-0.01-2.37,0-3.56
		c0.01-0.78,0.36-1.12,1.16-1.13c0.24,0,0.47,0,0.77,0c0-0.91,0-1.77,0-2.63c0-0.9,0.33-1.23,1.24-1.23c5.6,0,11.21,0,16.81,0
		c0.9,0,1.23,0.33,1.23,1.24c0,0.84,0,1.68,0,2.62c0.34,0,0.65-0.02,0.96,0c0.57,0.03,0.95,0.38,0.96,0.95
		c0.02,1.29,0.02,2.57,0,3.86c-0.01,0.6-0.4,0.94-1.01,0.97c-0.3,0.01-0.59,0-0.93,0c-0.03,0.66-0.06,1.25-0.09,1.85
		c0.92,0,1.81,0.12,2.66-0.03c1.43-0.24,2.27-1.43,2.28-2.98c0-5.91,0-11.81,0-17.72c0-3.26,1.99-5.24,5.26-5.24c0.8,0,1.6,0,2.45,0
		c0-0.9,0-1.74,0-2.57c0-0.96,0.31-1.28,1.25-1.28c3.03,0,6.07,0,9.1,0c0.9,0,1.22,0.33,1.22,1.25c0,1.79,0,3.58,0,5.36
		c0,1.21-0.53,2.1-1.58,2.71c-0.16,0.09-0.23,0.35-0.34,0.53c-0.02,0.03,0,0.08,0,0.12c-0.16,1.19,0.1,1.93,1.38,2.55
		c2.26,1.09,3.42,3.16,3.42,5.68c0.04,11.55,0.02,23.1,0.02,34.65c0,0.79-0.36,1.14-1.14,1.14c-5.02,0-10.04,0-15.06,0
		c-0.79,0-1.14-0.36-1.14-1.14c0-11.55-0.01-23.1,0.01-34.65c0-2.73,1.7-5.13,4.28-6.14c0.43-0.17,0.61-0.38,0.54-0.82
		c-0.03-0.16-0.01-0.32,0-0.48c0.05-0.75,0.02-1.36-0.82-1.81c-0.79-0.42-1.09-1.3-1.1-2.22C39.64,9.44,39.64,9.14,39.64,8.81z
		 M52.15,48.29c0.02-0.11,0.03-0.15,0.03-0.19c0-8.98,0.02-17.95-0.01-26.93c-0.01-2.54-2.13-4.61-4.67-4.67
		c-1.22-0.03-2.45-0.01-3.67-0.01c-3.1,0-5.14,2.03-5.14,5.12c0,8.68,0,17.35,0,26.03c0,0.21,0,0.42,0,0.64
		C43.21,48.29,47.66,48.29,52.15,48.29z M14.57,30.99c0,0.26,0,0.48,0,0.7c0,4.42,0,8.84,0,13.25c0,0.2,0.02,0.41-0.02,0.6
		c-0.09,0.52-0.42,0.83-0.95,0.83c-0.53,0-0.85-0.31-0.95-0.83c-0.04-0.19-0.02-0.4-0.02-0.6c0-4.44,0-8.88,0-13.31
		c0-0.21,0-0.42,0-0.63c-1,0-1.91,0-2.85,0c0.3,8.04,0.59,16.03,0.89,24.04c4.56,0,9.03,0,13.57,0c0.3-8.02,0.59-16.01,0.89-24.03
		c-0.97,0-1.9,0-2.85,0c0,0.27,0,0.49,0,0.71c0,4.4,0,8.8,0,13.19c0,0.2,0.01,0.4-0.01,0.6c-0.06,0.52-0.48,0.9-0.98,0.87
		c-0.53-0.03-0.85-0.34-0.93-0.86c-0.03-0.2-0.01-0.4-0.01-0.6c0-4.42,0-8.84,0-13.25c0-0.22,0-0.43,0-0.67
		C18.42,30.99,16.54,30.99,14.57,30.99z M38.72,50.27c0,1.62,0,3.19,0,4.75c4.51,0,8.97,0,13.42,0c0-1.61,0-3.16,0-4.75
		C47.66,50.27,43.21,50.27,38.72,50.27z M41.57,4.95c0,1.63-0.01,3.21,0.01,4.79c0.01,0.57,0.38,0.95,0.95,0.96
		c1.92,0.02,3.85,0.01,5.77,0c0.53,0,0.94-0.31,0.95-0.82c0.04-1.64,0.02-3.27,0.02-4.93C46.69,4.95,44.17,4.95,41.57,4.95z
		 M7.85,28.99c6.44,0,12.83,0,19.23,0c0-0.64,0-1.23,0-1.85c-6.42,0-12.81,0-19.23,0C7.85,27.77,7.85,28.36,7.85,28.99z M9.78,25.14
		c5.16,0,10.27,0,15.37,0c0-0.64,0-1.23,0-1.85c-5.13,0-10.24,0-15.37,0C9.78,23.91,9.78,24.5,9.78,25.14z M47.33,12.69
		c-1.3,0-2.55,0-3.78,0c0,0.65,0,1.26,0,1.85c1.28,0,2.52,0,3.78,0C47.33,13.91,47.33,13.32,47.33,12.69z"/>
</g>
</svg>
