<?xml version="1.0" encoding="utf-8"?>
<!-- Generator: Adobe Illustrator 26.0.1, SVG Export Plug-In . SVG Version: 6.00 Build 0)  -->
<svg version="1.1" id="Layer_1" xmlns="http://www.w3.org/2000/svg" xmlns:xlink="http://www.w3.org/1999/xlink" x="0px" y="0px"
	 viewBox="0 0 60 60" style="enable-background:new 0 0 60 60;" xml:space="preserve">
<g>
	<path d="M10.73,52.72c-1.09,0-2.18,0-3.26,0c-0.39,0-0.77,0.01-1.16-0.01c-1.36-0.06-2.43-1.19-2.42-2.55
		c0.01-1.33,1.09-2.45,2.43-2.49c0.84-0.03,1.68,0,2.53-0.01c0.55-0.01,0.87-0.29,0.93-0.8c0.21-1.61,0.86-2.3,2.4-2.59
		c-0.2-0.54-0.48-1.07-0.6-1.63c-0.41-1.82,0.41-3.61,2.03-4.51c0.31-0.17,0.44-0.37,0.52-0.71c0.38-1.72,1.85-2.99,3.67-3.21
		c0.12-0.01,0.24-0.02,0.36-0.03c0.02-0.07,0.05-0.11,0.05-0.16c0-1.03,0-2.07,0-3.16c-3.07,0-6.13,0-9.22,0
		c-0.17-1.67,0.22-3.1,1.36-4.29c0.65-0.68,1.34-1.34,2-2.01c0.12-0.12,0.23-0.25,0.41-0.44c-1.3,0-2.51,0-3.77,0
		c-0.16-1.6,0.18-3,1.25-4.16c0.66-0.72,1.38-1.4,2.07-2.1c0.13-0.13,0.26-0.27,0.45-0.47c-1.3,0-2.51,0-3.71,0
		c-0.47-1.67-0.02-3.01,1.28-3.98c2.86-2.14,5.08-4.81,6.65-8.02c0.29-0.6,0.67-1.11,1.32-1.36c1.03-0.39,2.08,0.06,2.68,1.05
		c0.9,1.5,1.79,3.01,2.8,4.43c1.09,1.52,2.46,2.79,3.99,3.87c1,0.7,1.49,1.59,1.39,2.81c-0.03,0.36,0,0.73,0,1.16
		c-1.26,0-2.49,0-3.81,0c1.45,1.74,3.56,2.89,3.77,5.38c3.2-2.52,4.66-2.63,7.74-0.69c0.28-0.48,0.57-0.95,0.83-1.43
		c0.07-0.12,0.08-0.3,0.05-0.43c-0.56-2.55,0.74-4.66,3.24-5.26c0.17-0.04,0.37-0.2,0.46-0.36c0.83-1.45,2.07-2.24,3.73-2.24
		c1.66,0,2.9,0.8,3.72,2.25c0.09,0.16,0.29,0.3,0.47,0.34c2.45,0.58,3.8,2.76,3.24,5.23c-0.04,0.17,0.02,0.41,0.12,0.56
		c0.94,1.32,1.13,2.72,0.51,4.23c-0.06,0.14-0.01,0.41,0.09,0.53c1.61,1.92,1.45,4.39-0.4,6.06c-0.12,0.11-0.22,0.32-0.21,0.47
		c0.14,1.75-0.48,3.15-1.97,4.08c-1.49,0.93-3.02,0.88-4.52-0.05c-0.04-0.03-0.09-0.04-0.18-0.09c0,1.95,0,3.88,0,5.82
		c1.52,0.14,2.59,0.88,3.15,2.32c0.04,0.12,0.29,0.22,0.45,0.22c1.19,0.02,2.39,0.06,3.58,0c1.93-0.09,2.88,1.35,2.89,2.52
		c0.01,1.16-0.93,2.6-2.92,2.56c-3.07-0.07-6.14-0.02-9.21-0.02c-0.14,0-0.28,0-0.42,0c-0.57,0.02-0.94,0.36-0.92,0.86
		c0.01,0.47,0.37,0.81,0.91,0.82c0.75,0.01,1.51,0,2.26,0c1.57,0.01,2.72,1.07,2.72,2.53c0,1.46-1.14,2.53-2.72,2.53
		c-10.7,0-21.4-0.03-32.1,0.03C11.82,56.13,10.24,54.88,10.73,52.72z M41.06,51.02c-0.51-2.15,1.12-3.43,2.78-3.38
		c3.12,0.09,6.24,0.03,9.37,0.02c0.16,0,0.32,0.02,0.47-0.01c0.45-0.08,0.73-0.36,0.73-0.83c0-0.46-0.27-0.75-0.73-0.83
		c-0.19-0.03-0.38-0.01-0.58-0.01c-13.43,0-26.87,0-40.3,0c-0.14,0-0.28,0-0.42,0c-0.56,0.03-0.85,0.31-0.91,0.88
		c-0.14,1.56-1.14,2.48-2.71,2.48c-0.79,0-1.58-0.01-2.37,0.01c-0.46,0.01-0.75,0.29-0.81,0.75c-0.05,0.44,0.18,0.75,0.59,0.88
		c0.18,0.06,0.38,0.04,0.57,0.05c3.61,0,7.23,0,10.84,0c0.19,0,0.38,0,0.58,0c0,0.58,0,1.12,0,1.68c-1.59,0-3.15,0-4.71,0
		c-0.76,0-1.15,0.29-1.15,0.84c0,0.55,0.4,0.84,1.16,0.84c0.04,0,0.07,0,0.11,0c10.66,0,21.33,0,31.99,0c0.18,0,0.35,0.02,0.53-0.01
		c0.45-0.08,0.73-0.36,0.73-0.82c0-0.46-0.27-0.75-0.72-0.83c-0.15-0.03-0.31-0.01-0.47-0.01c-1.93,0-3.86,0-5.79,0
		c-0.19,0-0.37,0-0.54,0c0-0.61,0-1.14,0-1.7C39.91,51.02,40.46,51.02,41.06,51.02z M10.64,29.12c5.46,0,10.72,0,15.97,0
		c0.23-0.71,0.17-1.27-0.44-1.79c-0.82-0.71-1.59-1.49-2.31-2.3c-0.59-0.67-1.23-1.11-2.16-0.95c-0.03,0-0.06-0.03-0.09-0.05
		c0-0.53,0-1.06,0-1.64c1.92,0,3.8,0,5.68,0c0.04-0.04,0.07-0.09,0.11-0.13c-0.33-0.46-0.61-0.97-0.99-1.38
		c-0.84-0.9-1.76-1.71-2.58-2.63c-0.59-0.66-1.21-1.07-2.12-0.91c-0.03,0-0.06-0.03-0.1-0.05c0-0.53,0-1.06,0-1.65
		c1.96,0,3.9,0,5.99,0c-0.25-0.31-0.38-0.55-0.57-0.69C23.8,12.58,21.3,9.6,19.54,6c-0.09-0.18-0.32-0.39-0.49-0.39
		c-0.17,0-0.41,0.2-0.49,0.38c-1.76,3.6-4.26,6.58-7.48,8.95c-0.2,0.15-0.33,0.4-0.59,0.72c2.11,0,4.05,0,6,0c0,0.58,0,1.12,0,1.68
		c-0.35,0-0.66-0.03-0.97,0.01c-0.19,0.02-0.41,0.09-0.55,0.22c-1.14,1.12-2.28,2.23-3.38,3.39c-0.36,0.38-0.6,0.87-0.89,1.31
		c0.04,0.05,0.08,0.09,0.11,0.14c1.9,0,3.8,0,5.68,0c0,0.59,0,1.11,0,1.67c-0.34,0-0.66-0.03-0.96,0.01
		c-0.19,0.02-0.42,0.09-0.55,0.22c-1.15,1.13-2.31,2.26-3.42,3.43C11.21,28.11,10.99,28.59,10.64,29.12z M46,27.56
		c0.67-0.83,1.26-1.55,1.87-2.31c0.45,0.36,0.87,0.7,1.31,1.05c-0.65,0.81-1.19,1.64-1.89,2.32c-1.13,1.09-1.47,2.37-1.31,3.88
		c0.11,1.08,0.56,1.88,1.55,2.31c0.98,0.43,1.91,0.26,2.69-0.46c0.8-0.73,1.02-1.65,0.68-2.69c-0.09-0.26-0.18-0.51-0.29-0.79
		c1.22-0.49,2.1-1.21,2.11-2.58c0.01-1.4-0.97-2.09-2.1-2.67c0.66-0.76,1.32-1.45,1.26-2.51c-0.06-1.05-0.72-1.7-1.49-2.28
		c0.13-0.25,0.24-0.45,0.34-0.65c0.88-1.79-0.36-3.75-2.36-3.66c-0.51,0.02-0.69-0.14-0.81-0.61c-0.3-1.2-1.27-1.94-2.43-1.94
		c-1.14,0-2.13,0.74-2.41,1.9c-0.13,0.53-0.34,0.67-0.88,0.65c-1.93-0.07-3.15,1.87-2.31,3.62c0.11,0.23,0.23,0.46,0.35,0.69
		c-0.28,0.25-0.56,0.47-0.8,0.72c-0.64,0.67-0.9,1.9-0.54,2.53c1.66,2.91,1.92,5.99,1.12,9.2c-0.06,0.23,0.01,0.56,0.15,0.75
		c0.64,0.87,1.76,1.19,2.77,0.85c1-0.34,1.7-1.27,1.71-2.35c0.02-1.77,0.01-3.54,0-5.31c0-0.2-0.1-0.44-0.23-0.61
		c-0.56-0.74-1.16-1.46-1.74-2.18c-0.4-0.5-0.8-1-1.21-1.52c0.47-0.37,0.88-0.7,1.31-1.04c0.63,0.78,1.21,1.49,1.78,2.21
		c0.04-0.01,0.07-0.02,0.11-0.03c0-1.67,0-3.34,0-4.99c0.58,0,1.1,0,1.67,0C46,21.87,46,24.65,46,27.56z M24.19,39.68
		c-0.16-0.32-0.29-0.6-0.46-0.87c-0.51-0.83-1.27-1.33-2.23-1.21c-0.65,0.08-0.93-0.14-1.25-0.62c-0.63-0.95-1.76-1.32-2.82-0.98
		c-1.06,0.34-1.81,1.34-1.73,2.48c0.04,0.55-0.13,0.74-0.65,0.88c-1.93,0.52-2.52,2.75-1.15,4.2c0.12,0.13,0.26,0.24,0.36,0.38
		c0.2,0.28,0.46,0.36,0.81,0.36c3.56-0.01,7.12-0.04,10.67,0.01c0.87,0.01,1.46-0.2,1.98-0.91c0.66-0.91,0.79-2.05,0.19-2.99
		c-0.6-0.95-1.7-1.37-2.79-1.07C24.82,39.44,24.53,39.56,24.19,39.68z M32.52,37.42c0-0.5-0.03-0.95,0.01-1.4
		c0.04-0.5-0.1-0.91-0.39-1.32c-0.79-1.14-1.54-2.3-2.31-3.45c-0.17-0.26-0.34-0.52-0.53-0.8c0.49-0.32,0.92-0.61,1.4-0.93
		c0.59,0.88,1.16,1.73,1.74,2.59c0.04-0.02,0.07-0.03,0.11-0.05c0-2.08,0-4.16,0-6.25c0.57,0,1.1,0,1.68,0c0,0.85,0,1.66,0,2.58
		c0.65-0.81,1.23-1.53,1.85-2.3c0.44,0.36,0.87,0.7,1.31,1.05c-1.01,1.26-1.98,2.46-2.93,3.68c-0.15,0.19-0.24,0.47-0.24,0.7
		c-0.02,1.82-0.01,3.65-0.01,5.47c0,0.13,0.02,0.26,0.03,0.42c0.13-0.03,0.21-0.04,0.29-0.07c0.13-0.05,0.26-0.11,0.39-0.17
		c1.07-0.52,1.81-1.38,2.35-2.41c1.2-2.29,1.42-4.7,0.88-7.2c-0.35-1.61-1.02-3.06-2.29-4.17c-1.53-1.34-3.5-1.34-5,0.03
		c-0.45,0.41-0.86,0.89-1.17,1.41c-1.32,2.18-1.61,4.56-1.2,7.05c0.29,1.71,0.93,3.27,2.2,4.5C31.19,36.88,31.77,37.26,32.52,37.42z
		 M32.5,39.24c-4.11-1.34-5.36-4.62-5.89-8.41c-1.12,0-2.22,0-3.33,0c-1.12,0-2.23,0-3.39,0c0,1.05,0.02,2.05-0.01,3.04
		c-0.02,0.47,0.07,0.77,0.53,0.99c0.32,0.15,0.56,0.47,0.86,0.68c0.21,0.15,0.45,0.31,0.7,0.35c1.08,0.16,2.02,0.58,2.73,1.42
		c0.21,0.24,0.38,0.31,0.71,0.28c2.8-0.26,5.07,2.27,4.48,5.02c-0.12,0.57-0.4,1.1-0.61,1.66c1.05,0,2.12,0,3.22,0
		C32.5,42.57,32.5,40.89,32.5,39.24z M44.29,35.9c-1.99,1.25-3.8,1.03-5.51-0.41c-1.05,1.84-2.42,3.22-4.53,3.68c0,1.7,0,3.38,0,4.9
		c0.4-0.49,0.86-1.04,1.3-1.61c0.17-0.22,0.37-0.46,0.43-0.72c0.42-1.66,1.43-2.77,3.08-3.2c1.65-0.43,3.06,0.08,4.23,1.33
		c0.26,0.27,0.61,0.46,1.01,0.75C44.29,38.97,44.29,37.47,44.29,35.9z M44.5,43.93c-0.1-0.36-0.18-0.63-0.26-0.89
		c-0.2-0.69-0.67-1.06-1.35-1.26c-0.23-0.07-0.48-0.25-0.62-0.45c-0.5-0.73-1.15-1.18-2.03-1.24c-1.48-0.1-2.71,1.1-2.65,2.61
		c0.02,0.46-0.06,0.73-0.56,0.87c-0.31,0.09-0.57,0.37-0.86,0.57c0.03,0.04,0.05,0.07,0.08,0.11c3.69,0,7.38,0,11.14,0
		C46.53,43.11,45.54,43.46,44.5,43.93z M27.28,25.94c0.26-0.57,0.54-1.18,0.82-1.8c-0.92,0-1.8,0-2.6,0
		C26.09,24.72,26.68,25.33,27.28,25.94z"/>
	<path d="M18.23,49.35c0-0.58,0-1.1,0-1.65c1.11,0,2.22-0.07,3.31,0.02c0.92,0.08,1.62,0.87,1.7,1.81c0.04,0.54,0.28,0.68,0.77,0.67
		c0.85-0.02,1.71-0.01,2.59-0.01c0,0.56,0,1.08,0,1.59c-1.17,0-2.36,0.11-3.52-0.04c-0.89-0.11-1.39-0.86-1.48-1.76
		c-0.05-0.51-0.27-0.65-0.74-0.64C20,49.37,19.14,49.35,18.23,49.35z"/>
</g>
</svg>
