<?xml version="1.0" encoding="utf-8"?>
<!-- Generator: Adobe Illustrator 26.0.1, SVG Export Plug-In . SVG Version: 6.00 Build 0)  -->
<svg version="1.1" id="Layer_1" xmlns="http://www.w3.org/2000/svg" xmlns:xlink="http://www.w3.org/1999/xlink" x="0px" y="0px"
	 viewBox="0 0 60 60" style="enable-background:new 0 0 60 60;" xml:space="preserve">
<g>
	<path d="M10.27,57c-0.17-0.23-0.41-0.45-0.49-0.71c-0.15-0.46,0.25-0.92,0.78-0.97c0.26-0.02,0.53,0,0.87,0c0-0.24,0-0.46,0-0.69
		c0-13.39,0-26.79,0-40.18c0-1.11,0.22-1.33,1.32-1.33c9.81,0,19.62,0,29.43,0c1.1,0,1.32,0.22,1.32,1.33c0,13.38,0,26.75,0,40.13
		c0,0.22,0,0.45,0,0.71c0.62,0.09,1.37-0.18,1.64,0.65c0.16,0.5-0.19,0.77-0.48,1.06C33.2,57,21.74,57,10.27,57z M26.59,55.29
		c0-12.67,0-25.3,0-37.92c-3.65,0-7.27,0-10.9,0c0,12.65,0,25.28,0,37.92C19.32,55.29,22.94,55.29,26.59,55.29z M28.35,17.36
		c0,12.67,0,25.29,0,37.91c3.66,0,7.29,0,10.91,0c0-12.66,0-25.27,0-37.91C35.61,17.36,32,17.36,28.35,17.36z M13.16,14.83
		c0,13.51,0,26.98,0,40.46c0.28,0,0.52,0,0.81,0c0-0.23,0-0.44,0-0.64c0-12.57,0-25.14,0-37.7c0-1.06,0.23-1.29,1.31-1.29
		c8.1,0,16.21,0,24.31,0c1.18,0,1.39,0.2,1.39,1.37c0,12.53,0,25.06,0,37.6c0,0.22,0,0.44,0,0.65c0.32,0,0.57,0,0.82,0
		c0-13.5,0-26.96,0-40.44C32.24,14.83,22.72,14.83,13.16,14.83z"/>
	<path d="M27.41,11.43c-2.16,0-4.32,0-6.48,0c-0.79,0-1.08-0.3-1.06-1.08c0.11-3.88,3.27-7.13,7.12-7.34
		c3.98-0.21,7.43,2.6,7.97,6.51c0.04,0.31,0.08,0.63,0.09,0.94c0.02,0.65-0.3,0.97-0.95,0.97C31.87,11.44,29.64,11.43,27.41,11.43z
		 M33.26,9.72c-0.11-2.03-2.17-5.03-5.79-5.03c-3.52,0-5.65,2.9-5.79,5.02c1.64,0,3.28,0,4.95,0c0-0.84-0.02-1.65,0.01-2.45
		c0.03-0.73,0.77-1.15,1.29-0.7c0.22,0.18,0.36,0.56,0.38,0.86c0.05,0.76,0.02,1.53,0.02,2.31C30,9.72,31.63,9.72,33.26,9.72z"/>
	<path d="M47.72,31.99c-0.37,0.39-0.67,0.73-0.99,1.04c-0.44,0.42-0.9,0.45-1.26,0.1c-0.38-0.36-0.35-0.84,0.09-1.3
		c0.5-0.52,1.01-1.03,1.52-1.53c0.42-0.41,0.88-0.41,1.3,0c0.53,0.51,1.05,1.04,1.56,1.57c0.41,0.43,0.42,0.92,0.06,1.26
		c-0.36,0.35-0.83,0.32-1.26-0.09C48.39,32.72,48.09,32.38,47.72,31.99z"/>
	<path d="M47.71,38.18c0.4-0.43,0.69-0.78,1.02-1.09c0.43-0.42,0.91-0.43,1.26-0.08c0.36,0.35,0.34,0.83-0.07,1.26
		c-0.51,0.54-1.03,1.06-1.56,1.57c-0.42,0.41-0.87,0.4-1.3-0.02c-0.52-0.5-1.02-1.01-1.52-1.53c-0.42-0.44-0.45-0.9-0.11-1.27
		c0.36-0.38,0.84-0.35,1.3,0.08c0.17,0.15,0.33,0.32,0.48,0.48C47.36,37.74,47.49,37.91,47.71,38.18z"/>
</g>
</svg>
