<?xml version="1.0" encoding="utf-8"?>
<!-- Generator: Adobe Illustrator 26.0.1, SVG Export Plug-In . SVG Version: 6.00 Build 0)  -->
<svg version="1.1" id="Layer_1" xmlns="http://www.w3.org/2000/svg" xmlns:xlink="http://www.w3.org/1999/xlink" x="0px" y="0px"
	 viewBox="0 0 60 60" style="enable-background:new 0 0 60 60;" xml:space="preserve">
<g>
	<path d="M27.8,57c-1.05-0.11-2.09-0.19-3.14-0.32c-3.2-0.41-6.35-1.04-9.19-2.66c-0.9-0.51-1.75-1.2-2.43-1.97
		c-1.31-1.47-1.27-3.32-0.04-4.86c1.05-1.32,2.48-2.1,4-2.74c2.06-0.88,4.23-1.37,6.53-1.74c-0.16-0.22-0.29-0.4-0.42-0.57
		c-2.34-3.09-4.74-6.15-7.01-9.3c-1.87-2.6-3.18-5.48-3.76-8.67C10.59,14.62,16.98,5.2,26.49,3.34c9.74-1.91,19.21,4.4,21.1,14.09
		c0.89,4.56,0.1,8.87-2.15,12.92c-1.55,2.81-3.5,5.34-5.47,7.87c-1.14,1.47-2.29,2.93-3.48,4.46c0.88,0.17,1.7,0.32,2.51,0.5
		c1.99,0.45,3.95,1.03,5.7,2.11c0.78,0.48,1.54,1.07,2.16,1.74c1.46,1.59,1.42,3.55,0,5.19c-0.93,1.07-2.11,1.78-3.39,2.36
		c-2.59,1.17-5.33,1.75-8.13,2.09c-1.04,0.13-2.09,0.22-3.14,0.32C30.75,57,29.27,57,27.8,57z M29.97,47.82
		c0.17-0.21,0.27-0.32,0.36-0.44c2.12-2.78,4.25-5.55,6.35-8.35c2.07-2.77,4.21-5.5,6.12-8.38c2.46-3.68,3.51-7.76,2.84-12.23
		C44.31,9.57,35.34,3.45,26.61,5.48C17.2,7.66,11.91,17.3,15.1,26.43c0.95,2.7,2.49,5.07,4.2,7.33c3.5,4.62,7.03,9.22,10.55,13.83
		C29.89,47.64,29.91,47.71,29.97,47.82z M29.24,54.89c4.03,0.01,7.94-0.34,11.72-1.59c1.49-0.49,2.94-1.08,4.1-2.2
		c1.04-1,1.05-1.99-0.01-2.95c-0.54-0.49-1.16-0.92-1.81-1.26c-2.48-1.3-5.18-1.85-7.92-2.21c-0.18-0.02-0.46,0.15-0.58,0.31
		c-1.24,1.64-2.45,3.3-3.67,4.96c-0.71,0.97-1.41,0.97-2.12,0c-1.21-1.66-2.44-3.31-3.65-4.97c-0.19-0.26-0.39-0.36-0.71-0.29
		c-1.63,0.35-3.28,0.62-4.88,1.05c-1.68,0.45-3.3,1.11-4.63,2.3c-1.21,1.09-1.24,2.17,0.04,3.19c0.84,0.67,1.81,1.23,2.8,1.64
		C21.57,54.36,25.42,54.77,29.24,54.89z"/>
	<path d="M30,28.31c-4.06,0-7.37-3.32-7.37-7.38c0-4.09,3.33-7.39,7.42-7.38c4.05,0.01,7.35,3.34,7.34,7.41
		C37.38,25.01,34.06,28.31,30,28.31z M35.28,20.96c0.01-2.9-2.34-5.28-5.23-5.31c-2.9-0.02-5.29,2.33-5.32,5.21
		c-0.02,2.92,2.34,5.32,5.25,5.33C32.88,26.21,35.27,23.85,35.28,20.96z"/>
	<path d="M43.72,20.5c0,0.18,0,0.32,0,0.46c-0.02,0.64-0.45,1.1-1.03,1.12c-0.59,0.02-1.07-0.46-1.08-1.12
		c-0.01-1.46-0.25-2.87-0.79-4.22c-1.28-3.19-3.52-5.41-6.71-6.66c-0.66-0.26-0.97-0.67-0.9-1.19c0.1-0.73,0.79-1.1,1.56-0.81
		c2.62,0.98,4.76,2.61,6.39,4.89C42.78,15.22,43.61,17.76,43.72,20.5z"/>
	<path d="M30.08,9.32c-0.59-0.01-1.05-0.51-1.02-1.1c0.03-0.57,0.5-1.01,1.07-1c0.56,0.01,1.03,0.49,1.03,1.05
		C31.16,8.85,30.66,9.34,30.08,9.32z"/>
</g>
</svg>
