<?xml version="1.0" encoding="utf-8"?>
<!-- Generator: Adobe Illustrator 26.0.1, SVG Export Plug-In . SVG Version: 6.00 Build 0)  -->
<svg version="1.1" id="Layer_1" xmlns="http://www.w3.org/2000/svg" xmlns:xlink="http://www.w3.org/1999/xlink" x="0px" y="0px"
	 viewBox="0 0 60 60" style="enable-background:new 0 0 60 60;" xml:space="preserve">
<g>
	<path d="M57,52.41c-0.29,0.42-0.71,0.5-1.19,0.5C38.6,52.9,21.39,52.9,4.18,52.9c-0.14,0-0.28,0-0.42-0.01
		C3.29,52.82,3,52.51,3,52.09c0-0.44,0.32-0.76,0.83-0.77c1.2-0.01,2.39-0.01,3.59-0.01c0.19,0,0.38,0,0.61,0c0-0.6,0-1.15,0-1.73
		c-1.3-0.23-2.42-0.78-3.34-1.74c-2.01-2.1-2.16-5.36-0.34-7.62c0.21-0.26,0.26-0.47,0.17-0.81c-0.54-2.03,0.38-4.13,2.21-5.12
		c1.81-0.98,4.03-0.61,5.45,0.92c0.09,0.1,0.19,0.2,0.3,0.31c1.54-1.7,3.38-2.3,5.47-1.34c2.09,0.96,2.85,2.74,2.58,5.08
		c0.2-0.14,0.36-0.24,0.51-0.35c1.31-0.94,2.64-1.87,3.93-2.84c0.48-0.36,0.95-0.52,1.55-0.51c1.31,0.04,2.63,0.01,4.04,0.01
		c0-0.61-0.04-1.18,0.02-1.75c0.03-0.29,0.16-0.64,0.37-0.81c0.48-0.39,1.15-0.01,1.18,0.65c0.03,0.61,0.01,1.22,0.01,1.91
		c0.88,0,1.7-0.03,2.52,0.01c0.34,0.02,0.73,0.13,1.01,0.33c1.26,0.86,2.49,1.76,3.77,2.69c0.05-0.44,0.06-0.82,0.13-1.18
		c0.34-1.67,1.32-2.81,2.91-3.4c0.34-0.12,0.45-0.27,0.45-0.63c-0.02-2.8-0.01-5.6,0-8.4c0-0.34-0.11-0.54-0.38-0.74
		c-1.57-1.11-3.12-2.22-4.67-3.35c-0.25-0.18-0.41-0.21-0.68-0.01c-1.56,1.14-3.13,2.27-4.71,3.38c-0.28,0.2-0.36,0.42-0.36,0.75
		c0.01,1.71,0.01,3.42,0,5.13c0,0.6-0.29,0.92-0.78,0.92c-0.45,0-0.78-0.3-0.79-0.81c-0.02-1.96-0.01-3.91,0-5.87
		c0-0.51,0.28-0.88,0.7-1.18c0.78-0.55,1.56-1.12,2.41-1.73c-2.07-0.21-3.85,0.08-5.26,1.67c-2.06,2.31-4.18,4.57-6.26,6.87
		c-1.37,1.51-3.05,2.25-5.09,2.24c-4.31-0.02-8.61-0.01-12.92-0.01c-0.11,0-0.21,0-0.32,0c-0.5-0.03-0.83-0.33-0.83-0.77
		c-0.01-0.44,0.31-0.78,0.81-0.8C4.4,30.64,5,30.66,5.6,30.66c0.42,0,0.84,0,1.33,0c0-0.25,0-0.45,0-0.66
		c0-2.84,0.01-5.67-0.01-8.51c0-0.57,0.19-0.95,0.66-1.28c1.12-0.76,2.19-1.59,3.31-2.35c0.3-0.2,0.7-0.32,1.06-0.33
		c1.51-0.04,3.02-0.02,4.53-0.02c0.19,0,0.38,0,0.62,0c0-0.58,0-1.1,0-1.63c0-1.46,0.01-2.92-0.01-4.39
		c-0.01-0.47,0.15-0.79,0.54-1.06c1.42-1,2.82-2.04,4.25-3.03c0.27-0.19,0.64-0.3,0.97-0.31c2.06-0.03,4.11-0.03,6.17,0
		c0.34,0,0.73,0.13,1.02,0.33c1.4,0.97,2.77,1.99,4.17,2.96c0.27,0.18,0.63,0.31,0.95,0.31c6.87,0.02,13.75,0.02,20.62,0.01
		c0.48,0,0.89,0.08,1.2,0.47c0,0.21,0,0.42,0,0.63c-0.31,0.43-0.75,0.5-1.24,0.5c-6.74-0.01-13.49-0.01-20.23-0.01
		c-0.22,0-0.44,0-0.68,0c0,0.96,0,1.85,0,2.79c0.24,0,0.45,0,0.65,0c6.8,0,13.59,0,20.39-0.01c0.48,0,0.86,0.11,1.11,0.53
		c0,0.18,0,0.35,0,0.53c-0.25,0.42-0.62,0.54-1.11,0.54c-6.8-0.01-13.6-0.01-20.4-0.01c-0.21,0-0.41,0-0.63,0c0,1.08,0,2.1,0,3.11
		c0.7,0.16,1.29,0.03,1.79-0.45c0.39-0.38,0.86-0.47,1.4-0.46c2.57,0.02,5.13,0.03,7.7,0c0.74-0.01,1.36,0.15,1.94,0.62
		c0.26,0.21,0.66,0.33,1,0.33c2.41,0.03,4.81,0.03,7.22,0.01c0.49,0,0.86,0.11,1.1,0.55c0,0.18,0,0.35,0,0.53
		c-0.27,0.41-0.64,0.53-1.12,0.52c-1.63-0.02-3.27-0.01-4.9-0.01c-0.16,0-0.32,0-0.48,0c0.74,0.66,1.49,1.22,2.26,1.74
		c0.55,0.37,0.77,0.85,0.76,1.51c-0.02,3.08-0.01,6.16,0,9.24c0,0.21,0.09,0.5,0.24,0.62c1.68,1.3,2.27,2.97,1.75,5.04
		c-0.03,0.12-0.06,0.31,0,0.38c0.81,0.9,1.22,1.99,1.48,3.15c0,0.49,0,0.99,0,1.48c-0.03,0.06-0.07,0.12-0.08,0.19
		c-0.51,2.55-2.05,4.11-4.55,4.75c-0.11,0.03-0.22,0.06-0.32,0.09c0,0.57,0,1.11,0,1.7c1.28,0,2.52,0.02,3.76-0.01
		c0.48-0.01,0.89,0.08,1.2,0.47C57,51.99,57,52.2,57,52.41z M18.73,12.07c-0.02,0.1-0.04,0.16-0.04,0.23c0,1.92-0.01,3.84,0.01,5.76
		c0,0.17,0.14,0.39,0.29,0.5c0.76,0.57,1.52,1.14,2.31,1.66c0.47,0.32,0.67,0.7,0.66,1.27c-0.02,1.9-0.01,3.8-0.01,5.71
		c0,0.18,0,0.36,0,0.67c0.61-0.67,1.14-1.2,1.6-1.77c0.18-0.22,0.32-0.55,0.32-0.83c0.02-2.48,0.01-4.97,0.02-7.45
		c0-0.66,0.29-1.03,0.8-1.03c0.5,0,0.78,0.37,0.78,1.03c0,1.85,0,3.7,0,5.55c0,0.17,0,0.33,0,0.65c0.67-0.73,1.24-1.35,1.8-1.97
		c1.32-1.46,2.96-2.22,4.94-2.2c0.33,0,0.65,0,0.95,0c0.04-0.12,0.06-0.15,0.06-0.18c0-2.57,0.01-5.14,0-7.71
		c0-0.17-0.15-0.39-0.3-0.5c-1.07-0.79-2.17-1.56-3.25-2.35c-0.24-0.18-0.4-0.18-0.64,0c-1.07,0.79-2.17,1.55-3.24,2.35
		c-0.16,0.12-0.29,0.38-0.3,0.59c-0.04,0.67-0.01,1.34-0.02,2.01c0,0.17,0,0.42-0.1,0.5c-0.24,0.19-0.55,0.41-0.82,0.41
		c-0.44-0.01-0.65-0.38-0.65-0.82c-0.01-0.68,0-1.36,0-2.07C22.15,12.07,20.47,12.07,18.73,12.07z M8.55,21.91c0,2.92,0,5.81,0,8.72
		c1.36,0,2.68,0,3.98,0c0.03-0.05,0.05-0.06,0.05-0.08c0.01-0.49,0.01-0.99,0.02-1.48c0.01-0.58,0.3-0.94,0.77-0.95
		c0.48-0.02,0.8,0.36,0.81,0.96c0.01,0.52,0,1.04,0,1.57c1.2,0,2.33,0.02,3.45-0.01c0.9-0.02,1.72-0.34,2.44-0.88
		c0.15-0.11,0.29-0.36,0.3-0.55c0.02-2.45,0.02-4.89,0-7.34c0-0.19-0.13-0.44-0.28-0.56c-0.82-0.63-1.68-1.21-2.51-1.83
		c-0.22-0.17-0.37-0.16-0.59,0c-0.8,0.6-1.62,1.18-2.44,1.75c-0.28,0.19-0.37,0.41-0.36,0.74c0.02,1.14,0.01,2.29,0,3.43
		c0,0.57-0.32,0.91-0.81,0.9c-0.46-0.01-0.77-0.34-0.77-0.88c-0.01-1,0-2.01,0-3.01c0-0.17-0.02-0.34-0.03-0.51
		C11.2,21.91,9.89,21.91,8.55,21.91z M21.08,40.82c0.04,0.11,0.05,0.17,0.07,0.21c1.11,2.18,0.96,4.27-0.43,6.27
		c-0.09,0.12-0.17,0.28-0.17,0.43c-0.01,1.09-0.01,2.18,0,3.27c0,0.1,0.16,0.29,0.25,0.29c0.57,0.03,1.14,0.01,1.78,0.01
		c0-0.99-0.04-1.91,0.01-2.81c0.13-2.17,2.26-3.62,4.34-2.97c1.34,0.42,2.28,1.59,2.34,3c0.04,0.91,0.01,1.82,0.01,2.79
		c0.64,0,1.2,0.02,1.76-0.02c0.1-0.01,0.28-0.24,0.28-0.37c0.02-3.13,0.02-6.27,0-9.4c0-0.16-0.1-0.38-0.23-0.48
		c-1.63-1.19-3.27-2.37-4.92-3.53c-0.1-0.07-0.35-0.08-0.45-0.01C24.17,38.6,22.63,39.71,21.08,40.82z M51.9,33.78
		c0-2.96,0-5.89,0-8.82c-2.48,0-4.92,0-7.37,0c0,2.96,0,5.87,0,8.73c0.6,0.24,1.18,0.39,1.69,0.69c0.5,0.29,0.93,0.72,1.4,1.09
		C49.27,33.95,49.86,33.72,51.9,33.78z M16.88,47.98c1.57-0.38,2.62-1.26,3.15-2.7c0.56-1.55,0.3-3.02-0.82-4.22
		c-0.56-0.6-0.71-1.07-0.39-1.85c0.47-1.13,0.15-2.2-0.72-3.04c-0.86-0.84-1.91-1.03-3.03-0.63c-1.59,0.57-2.33,2.35-1.63,3.95
		c0.23,0.53,0.19,0.93-0.25,1.32c-0.26,0.23-0.48,0.52-0.67,0.81c-1.57,2.48-0.08,5.96,2.77,6.33c0-0.81-0.05-1.62,0.01-2.42
		c0.06-0.73-0.12-1.3-0.76-1.69c-0.18-0.11-0.32-0.27-0.47-0.42c-0.28-0.29-0.33-0.63-0.12-0.96c0.22-0.36,0.56-0.47,0.96-0.32
		c0.11,0.04,0.21,0.09,0.35,0.16c0.02-0.34,0.01-0.62,0.05-0.89c0.05-0.41,0.33-0.63,0.71-0.65c0.39-0.02,0.69,0.17,0.79,0.56
		c0.05,0.2,0.05,0.42,0.05,0.63c0,1.8,0,3.59,0,5.39C16.88,47.51,16.88,47.72,16.88,47.98z M44.77,47.95
		c0.12-0.02,0.19-0.02,0.25-0.04c1.54-0.44,2.58-1.42,3-2.97c0.42-1.57,0.05-2.97-1.11-4.12c-0.44-0.43-0.49-0.81-0.29-1.4
		c0.19-0.57,0.29-1.26,0.17-1.84c-0.35-1.7-2.12-2.65-3.74-2.09c-1.63,0.55-2.43,2.35-1.72,3.95c0.24,0.55,0.2,0.95-0.24,1.36
		c-1.03,0.97-1.42,2.19-1.27,3.59c0.18,1.74,1.7,3.33,3.38,3.54c0-0.3,0-0.6,0-0.9c0-1.81-0.01-3.63,0-5.44
		c0-0.53,0.34-0.88,0.79-0.88c0.45,0,0.77,0.35,0.79,0.88c0.01,0.22,0,0.44,0,0.69c0.11-0.04,0.16-0.06,0.2-0.08
		c0.48-0.24,0.87-0.18,1.12,0.19c0.25,0.36,0.18,0.76-0.22,1.12c-0.28,0.26-0.59,0.5-0.87,0.77c-0.1,0.1-0.22,0.25-0.23,0.38
		C44.76,45.76,44.77,46.84,44.77,47.95z M52.04,47.9c0.04,0.02,0.06,0.03,0.07,0.03c0.05,0,0.1-0.01,0.15-0.02
		c1.54-0.44,2.57-1.43,3-2.97c0.42-1.55,0.02-2.92-1.08-4.08c-0.58-0.6-0.6-0.69-0.3-1.43c0.44-1.09,0.31-2.11-0.43-3.02
		c-0.75-0.91-1.74-1.22-2.88-1c-1.31,0.25-2.12,1.33-2.11,2.67c0.01,0.45-0.04,0.92-0.14,1.36c-0.08,0.31-0.05,0.51,0.15,0.76
		c0.96,1.18,1.37,2.55,1.28,4.08c-0.07,1.08-0.46,2.04-1.08,3.01c0.59,0.26,1.12,0.5,1.72,0.77c0.08-0.71-0.15-1.59,0.81-1.59
		C52.17,46.45,51.95,47.32,52.04,47.9z M11.38,47.29c-1.52-2.59-1.48-4.97,0.34-7.26c0.06-0.08,0.12-0.19,0.11-0.28
		c-0.06-0.78-0.12-1.56-0.2-2.34c-0.02-0.15-0.1-0.3-0.17-0.44c-0.69-1.41-2.37-2.02-3.81-1.37c-1.45,0.65-2.1,2.33-1.48,3.82
		c0.32,0.76,0.3,0.86-0.27,1.43C4.94,41.82,4.55,43,4.68,44.36c0.17,1.75,1.76,3.44,3.35,3.55c0.11-1.16,0.27-1.5,0.79-1.47
		c1.02,0.05,0.76,0.89,0.86,1.6C10.27,47.78,10.81,47.54,11.38,47.29z M32.96,41.63c0,3.25,0,6.45,0,9.66c2.26,0,4.48,0,6.75,0
		c0-1.03,0.02-2.04-0.01-3.03c-0.01-0.29-0.12-0.61-0.29-0.85c-0.8-1.11-1.26-2.32-1.18-3.69c0.04-0.69,0.2-1.38,0.3-2.08
		C36.7,41.63,34.84,41.63,32.96,41.63z M28.61,37.16c-0.01,0.04-0.02,0.08-0.02,0.12c1.2,0.86,2.39,1.73,3.6,2.57
		c0.16,0.11,0.39,0.15,0.59,0.15c1.77,0.01,3.55,0.01,5.32,0c0.13,0,0.26-0.02,0.51-0.05c-1.34-0.96-2.57-1.86-3.82-2.73
		c-0.13-0.09-0.34-0.07-0.51-0.07c-1.33-0.01-2.67,0-4,0C29.72,37.16,29.17,37.16,28.61,37.16z M50.16,23.33
		c-0.11-0.12-0.14-0.18-0.19-0.21c-1.15-0.83-2.3-1.67-3.47-2.48c-0.16-0.11-0.39-0.15-0.59-0.15c-1.79-0.01-3.58-0.01-5.37,0
		c-0.12,0-0.24,0.03-0.46,0.05c1.3,0.93,2.51,1.81,3.73,2.67c0.14,0.1,0.36,0.12,0.54,0.13c1,0.01,2,0.01,3,0.01
		C48.26,23.33,49.16,23.33,50.16,23.33z M27.72,51.2c0-0.24,0-0.41,0-0.58c-0.01-0.7,0.02-1.41-0.03-2.11
		c-0.06-0.84-0.75-1.46-1.6-1.55c-0.81-0.08-1.73,0.45-1.83,1.26c-0.12,0.97-0.03,1.98-0.03,2.98C25.38,51.2,26.51,51.2,27.72,51.2z
		 M12.56,48.48c-0.99,0.43-1.91,0.83-2.87,1.24c0,0.45,0,1,0,1.56c1.88,0,3.71,0,5.58,0c0-0.58,0-1.13,0-1.65
		c-0.51-0.16-0.99-0.28-1.44-0.47C13.36,48.96,12.93,48.69,12.56,48.48z M50.44,49.75c-1.04-0.45-1.97-0.86-2.84-1.23
		c-0.92,0.4-1.84,0.79-2.8,1.21c0,0.45,0,0.99,0,1.59c0.21,0,0.4,0,0.59,0c1.19,0,2.39,0,3.58,0c1.62,0,1.62,0,1.43-1.64
		C50.39,49.66,50.38,49.64,50.44,49.75z M20.5,10.35c0.01,0.03,0.02,0.07,0.03,0.1c1.25,0,2.51,0,3.76,0c0.07,0,0.15-0.01,0.2-0.05
		c0.75-0.53,1.5-1.07,2.25-1.6c-1.29-0.11-2.54-0.11-3.8-0.11c-0.07,0-0.14,0.02-0.2,0.06C22,9.28,21.25,9.82,20.5,10.35z
		 M18.93,48.96c-0.71,0.24-1.36,0.46-2.02,0.68c0,0.54,0,1.07,0,1.63c0.69,0,1.34,0,2.02,0C18.93,50.49,18.93,49.74,18.93,48.96z
		 M43.16,51.29c0-0.61,0-1.15,0-1.66c-0.64-0.2-1.24-0.39-1.84-0.58c0,0.76,0,1.49,0,2.24C41.95,51.29,42.54,51.29,43.16,51.29z
		 M14.61,19.12c-1.5,0.02-3.1-0.38-4.21,1.16C11.9,20.27,13.5,20.68,14.61,19.12z"/>
	<path d="M37.66,29.9c-0.47,0-0.95,0.01-1.42,0c-0.76-0.02-1.28-0.49-1.31-1.23c-0.04-1.04-0.04-2.07,0-3.11
		c0.02-0.74,0.55-1.24,1.3-1.25c0.98-0.02,1.97-0.02,2.95,0c0.75,0.01,1.28,0.49,1.31,1.24c0.04,1.04,0.05,2.07,0,3.11
		c-0.03,0.78-0.56,1.23-1.35,1.25C38.64,29.91,38.15,29.9,37.66,29.9z M38.89,28.3c0-0.8,0-1.58,0-2.38c-0.8,0-1.58,0-2.36,0
		c0,0.81,0,1.59,0,2.38C37.33,28.3,38.1,28.3,38.89,28.3z"/>
	<path d="M29.46,17.11c-0.42,0-0.84,0.01-1.26,0c-0.72-0.02-1.25-0.49-1.28-1.2c-0.04-0.89-0.04-1.79,0-2.69
		c0.03-0.71,0.51-1.18,1.21-1.21c0.88-0.03,1.75-0.03,2.63,0c0.74,0.02,1.23,0.54,1.24,1.3c0.02,0.83,0.02,1.65,0,2.48
		c-0.02,0.79-0.54,1.3-1.33,1.33C30.27,17.12,29.87,17.11,29.46,17.11z M30.39,15.5c0-0.67,0-1.27,0-1.87c-0.65,0-1.27,0-1.88,0
		c0,0.65,0,1.25,0,1.87C29.16,15.5,29.76,15.5,30.39,15.5z"/>
	<path d="M28.1,41.73c0,0.21,0,0.42,0,0.63c-0.02,0.85-0.57,1.47-1.42,1.54c-0.5,0.04-1.02,0.04-1.52,0
		c-0.82-0.08-1.36-0.69-1.39-1.52c-0.01-0.46-0.02-0.91,0-1.37c0.04-0.75,0.56-1.33,1.31-1.41c0.49-0.05,0.98-0.05,1.47-0.03
		c0.97,0.04,1.53,0.65,1.55,1.63C28.11,41.38,28.1,41.55,28.1,41.73z M25.37,42.29c0.38,0,0.75,0,1.13,0c0-0.39,0-0.74,0-1.11
		c-0.39,0-0.75,0-1.13,0C25.37,41.54,25.37,41.87,25.37,42.29z"/>
</g>
</svg>
