<?xml version="1.0" encoding="utf-8"?>
<!-- Generator: Adobe Illustrator 26.0.1, SVG Export Plug-In . SVG Version: 6.00 Build 0)  -->
<svg version="1.1" id="Layer_1" xmlns="http://www.w3.org/2000/svg" xmlns:xlink="http://www.w3.org/1999/xlink" x="0px" y="0px"
	 viewBox="0 0 60 60" style="enable-background:new 0 0 60 60;" xml:space="preserve">
<g>
	<path d="M57.01,55.21c0,0.6,0,1.2,0,1.79C39,57,21,57,2.99,57c0-0.56,0-1.12,0-1.75c0.59,0,1.14,0,1.75,0c0-17.46,0-34.84,0-52.25
		c12.22,0,24.38,0,36.6,0c0,0.25,0,0.47,0,0.7c0,4.47,0.01,8.93-0.01,13.4c0,0.4,0.11,0.63,0.46,0.84
		c4.33,2.58,8.65,5.18,12.98,7.76c0.38,0.23,0.52,0.47,0.52,0.91c-0.01,9.29-0.01,18.57-0.01,27.86c0,0.24,0,0.48,0,0.74
		C55.9,55.21,56.45,55.21,57.01,55.21z M17.83,55.22c0-4.09,0-8.1,0-12.13c3.49,0,6.93,0,10.44,0c0,4.06,0,8.09,0,12.15
		c3.8,0,7.54,0,11.28,0c0-16.85,0-33.66,0-50.49c-11.04,0-22.03,0-33.05,0c0,16.84,0,33.64,0,50.47
		C10.27,55.22,14,55.22,17.83,55.22z M41.32,19.7c0,0.25,0,0.39,0,0.52c0,11.5,0,23-0.01,34.49c0,0.43,0.11,0.57,0.56,0.56
		c3.71-0.02,7.42-0.01,11.13-0.01c0.17,0,0.34-0.02,0.53-0.02c0-0.22,0-0.38,0-0.53c0-9.07,0-18.14,0.01-27.22
		c0-0.39-0.14-0.59-0.46-0.78c-3.74-2.23-7.47-4.48-11.21-6.72C41.72,19.92,41.57,19.84,41.32,19.7z M19.58,55.23
		c2.34,0,4.63,0,6.92,0c0-3.48,0-6.92,0-10.38c-2.32,0-4.61,0-6.92,0C19.58,48.33,19.58,51.76,19.58,55.23z"/>
	<path d="M15.16,51.75c-2.29,0-4.56,0-6.89,0c0-2.3,0-4.59,0-6.91c2.29,0,4.56,0,6.89,0C15.16,47.13,15.16,49.42,15.16,51.75z
		 M9.97,50c1.18,0,2.31,0,3.43,0c0-1.16,0-2.29,0-3.41c-1.17,0-2.3,0-3.43,0C9.97,47.74,9.97,48.85,9.97,50z"/>
	<path d="M37.82,44.84c0,2.31,0,4.59,0,6.91c-2.31,0-4.6,0-6.92,0c0-2.31,0-4.59,0-6.91C33.21,44.84,35.5,44.84,37.82,44.84z
		 M36.08,50.01c0-1.16,0-2.29,0-3.42c-1.16,0-2.29,0-3.41,0c0,1.17,0,2.3,0,3.42C33.83,50.01,34.94,50.01,36.08,50.01z"/>
	<path d="M26.49,39.55c-2.31,0-4.58,0-6.9,0c0-2.3,0-4.59,0-6.91c2.29,0,4.58,0,6.9,0C26.49,34.95,26.49,37.24,26.49,39.55z
		 M21.31,34.38c0,1.17,0,2.28,0,3.42c1.16,0,2.28,0,3.43,0c0-1.15,0-2.27,0-3.42C23.6,34.38,22.48,34.38,21.31,34.38z"/>
	<path d="M26.5,20.43c0,2.32,0,4.59,0,6.9c-2.31,0-4.6,0-6.92,0c0-2.31,0-4.58,0-6.9C21.87,20.43,24.16,20.43,26.5,20.43z
		 M21.32,22.18c0,1.18,0,2.29,0,3.41c1.16,0,2.29,0,3.42,0c0-1.16,0-2.27,0-3.41C23.59,22.18,22.47,22.18,21.32,22.18z"/>
	<path d="M19.58,15.15c0-2.32,0-4.6,0-6.91c2.3,0,4.58,0,6.9,0c0,2.29,0,4.58,0,6.91C24.2,15.15,21.91,15.15,19.58,15.15z
		 M21.33,9.96c0,1.16,0,2.3,0,3.43c1.17,0,2.28,0,3.39,0c0-1.16,0-2.29,0-3.43C23.59,9.96,22.5,9.96,21.33,9.96z"/>
	<path d="M15.17,20.43c0,2.3,0,4.58,0,6.9c-2.3,0-4.58,0-6.91,0c0-2.29,0-4.57,0-6.9C10.57,20.43,12.86,20.43,15.17,20.43z
		 M13.42,25.61c0-1.17,0-2.29,0-3.42c-1.16,0-2.29,0-3.43,0c0,1.16,0,2.27,0,3.42C11.14,25.61,12.25,25.61,13.42,25.61z"/>
	<path d="M30.9,27.33c0-2.31,0-4.58,0-6.9c2.3,0,4.59,0,6.91,0c0,2.3,0,4.58,0,6.9C35.5,27.33,33.21,27.33,30.9,27.33z M32.64,25.6
		c1.18,0,2.31,0,3.44,0c0-1.16,0-2.28,0-3.4c-1.16,0-2.29,0-3.44,0C32.64,23.35,32.64,24.45,32.64,25.6z"/>
	<path d="M30.9,32.63c2.32,0,4.59,0,6.91,0c0,2.31,0,4.6,0,6.92c-2.3,0-4.59,0-6.91,0C30.9,37.24,30.9,34.97,30.9,32.63z
		 M36.1,34.39c-1.18,0-2.31,0-3.43,0c0,1.16,0,2.28,0,3.4c1.16,0,2.29,0,3.43,0C36.1,36.64,36.1,35.53,36.1,34.39z"/>
	<path d="M8.26,39.54c0-2.3,0-4.58,0-6.9c2.29,0,4.58,0,6.91,0c0,2.28,0,4.57,0,6.9C12.86,39.54,10.58,39.54,8.26,39.54z
		 M9.99,37.79c1.16,0,2.29,0,3.42,0c0-1.16,0-2.27,0-3.41c-1.16,0-2.29,0-3.42,0C9.99,35.54,9.99,36.66,9.99,37.79z"/>
	<path d="M15.18,15.15c-2.34,0-4.61,0-6.92,0c0-2.31,0-4.59,0-6.91c2.31,0,4.6,0,6.92,0C15.18,10.56,15.18,12.83,15.18,15.15z
		 M10,9.97c0,1.17,0,2.29,0,3.42c1.17,0,2.29,0,3.42,0c0-1.16,0-2.27,0-3.42C12.28,9.97,11.16,9.97,10,9.97z"/>
	<path d="M37.81,15.16c-2.32,0-4.6,0-6.91,0c0-2.31,0-4.58,0-6.9c2.3,0,4.59,0,6.91,0C37.81,10.55,37.81,12.82,37.81,15.16z
		 M36.07,13.41c0-1.18,0-2.3,0-3.44c-1.16,0-2.27,0-3.41,0c0,1.16,0,2.28,0,3.44C33.81,13.41,34.92,13.41,36.07,13.41z"/>
	<path d="M49.14,36.07c-0.58,0-1.12,0-1.69,0c0-0.56,0-1.1,0-1.68c0.55,0,1.1,0,1.69,0C49.14,34.94,49.14,35.49,49.14,36.07z"/>
	<path d="M47.46,44.83c0.57,0,1.11,0,1.69,0c0,0.57,0,1.1,0,1.68c-0.56,0-1.11,0-1.69,0C47.46,45.97,47.46,45.42,47.46,44.83z"/>
	<path d="M49.15,51.75c-0.58,0-1.11,0-1.69,0c0-0.57,0-1.11,0-1.69c0.56,0,1.11,0,1.69,0C49.15,50.62,49.15,51.16,49.15,51.75z"/>
	<path d="M43.1,36.07c0-0.59,0-1.13,0-1.7c0.56,0,1.1,0,1.67,0c0,0.58,0,1.12,0,1.7C44.21,36.07,43.67,36.07,43.1,36.07z"/>
	<path d="M47.44,41.26c0-0.56,0-1.08,0-1.64c0.56,0,1.11,0,1.7,0c0,0.53,0,1.06,0,1.64C48.6,41.26,48.05,41.26,47.44,41.26z"/>
	<path d="M49.16,29.17c0,0.56,0,1.08,0,1.64c-0.57,0-1.12,0-1.7,0c0-0.53,0-1.07,0-1.64C48.01,29.17,48.56,29.17,49.16,29.17z"/>
	<path d="M44.78,44.83c0,0.58,0,1.12,0,1.69c-0.56,0-1.1,0-1.67,0c0-0.55,0-1.1,0-1.69C43.65,44.83,44.18,44.83,44.78,44.83z"/>
	<path d="M43.1,51.75c0-0.58,0-1.12,0-1.68c0.56,0,1.09,0,1.67,0c0,0.55,0,1.1,0,1.68C44.22,51.75,43.69,51.75,43.1,51.75z"/>
	<path d="M44.79,39.61c0,0.56,0,1.09,0,1.65c-0.56,0-1.11,0-1.69,0c0-0.55,0-1.09,0-1.65C43.66,39.61,44.19,39.61,44.79,39.61z"/>
	<path d="M44.78,29.17c0,0.57,0,1.09,0,1.65c-0.56,0-1.1,0-1.67,0c0-0.53,0-1.07,0-1.65C43.65,29.17,44.2,29.17,44.78,29.17z"/>
</g>
</svg>
