<?xml version="1.0" encoding="utf-8"?>
<!-- Generator: Adobe Illustrator 26.0.1, SVG Export Plug-In . SVG Version: 6.00 Build 0)  -->
<svg version="1.1" id="Layer_1" xmlns="http://www.w3.org/2000/svg" xmlns:xlink="http://www.w3.org/1999/xlink" x="0px" y="0px"
	 viewBox="0 0 60 60" style="enable-background:new 0 0 60 60;" xml:space="preserve">
<g>
	<path d="M25.86,29.96c0.94,0,1.81,0,2.76,0c-0.22-3.85,1.44-6.15,5.51-6.47c0-1.3-0.01-2.61,0.01-3.93c0.01-0.53,0-1.08,0.12-1.6
		c0.52-2.29,2.62-3.78,4.92-3.55c2.27,0.23,4.07,2.16,4.09,4.49c0.01,1.58,0.24,3.19-0.57,4.69c3.29,0.89,4.49,3.15,4.22,6.4
		c1.47,0,2.85,0,4.23,0c1,0,1.28,0.27,1.28,1.27c0,2.98,0,5.96,0,8.94c0,0.24,0,0.48,0,0.72c0.11,0.04,0.18,0.09,0.23,0.08
		c1.26-0.14,1.69,0.24,1.63,1.69c-0.05,1.16-0.01,2.33-0.01,3.49c0,0.94-0.31,1.25-1.24,1.26c-0.36,0.01-0.71,0-1.17,0
		c0.1,0.35,0.18,0.63,0.27,0.92c0.49,1.63,1,3.25,1.46,4.89c0.14,0.49,0.36,0.64,0.84,0.61c0.53-0.04,1.07-0.03,1.61,0
		c0.65,0.04,1.01,0.4,0.96,0.96c-0.05,0.6-0.42,0.86-0.99,0.86c-0.16,0-0.31,0-0.47,0c-17.02,0-34.04,0-51.05,0
		c-0.22,0-0.45,0.01-0.67-0.01C3.33,55.61,3.03,55.33,3,54.84c-0.03-0.52,0.22-0.89,0.74-0.95c0.58-0.06,1.16-0.04,1.74-0.05
		c1.03-0.01,2.06,0.01,3.09-0.01c0.18,0,0.47-0.13,0.51-0.27c0.62-2.01,1.2-4.02,1.82-6.12c-1.04,0-2,0-2.96,0
		c-1.02-0.01-1.3-0.29-1.3-1.33c0-1.23,0-2.46,0-3.7c0-1.19,0.2-1.38,1.4-1.41c0.11,0,0.22-0.02,0.43-0.03c0-0.27,0-0.53,0-0.79
		c0-2.96,0-5.91,0-8.87c0-1.09,0.25-1.33,1.35-1.33c4.47,0,8.95,0,13.42,0c0.24,0,0.48,0,0.74,0c0-1.08,0.07-2.11-0.02-3.13
		c-0.08-0.84-0.85-1.42-1.68-1.45c-0.87-0.03-1.62,0.52-1.83,1.37c-0.04,0.17-0.07,0.35-0.09,0.53c-0.08,0.55-0.41,0.85-0.96,0.81
		c-0.56-0.04-0.81-0.39-0.83-0.94c-0.07-2.07,1.98-3.89,4.05-3.6c1.91,0.27,3.21,1.72,3.24,3.67
		C25.88,28.15,25.86,29.04,25.86,29.96z M45.08,41.16c0.02-0.35,0.04-0.46,0.04-0.57c0-3.92,0-7.84,0-11.76
		c0-0.29-0.04-0.58-0.09-0.87c-0.27-1.72-2.53-3.29-4.51-2.22c-0.48,0.26-1.04,0.45-1.58,0.49c-1.29,0.09-2.59,0.1-3.88,0.06
		c-0.29-0.01-0.57-0.35-0.85-0.54c-0.19-0.12-0.39-0.33-0.59-0.33c-1.76-0.01-3.12,1.41-3.15,3.31c-0.03,1.48-0.01,2.96-0.01,4.43
		c0,1.19-0.21,1.4-1.41,1.4c-1.04,0-2.08,0-3.12,0c0,0.67,0,1.24,0,1.81c2.14,0,4.23,0,6.37,0c0-0.29,0-0.53,0-0.78
		c0-1.23-0.01-2.46,0.01-3.7c0.01-0.57,0.29-0.94,0.89-0.98c0.52-0.03,0.89,0.33,0.95,0.92c0.02,0.18,0.01,0.36,0.01,0.54
		c0,2.35,0,4.7,0.01,7.05c0,0.21,0.01,0.52,0.14,0.6c0.76,0.48,1.39,1.25,2.48,0.99c0.46-0.11,0.98-0.02,1.47-0.02
		c0.98-0.01,1.98,0.17,2.76-0.74c0.24-0.28,0.46-0.44,0.46-0.85c-0.02-2.37-0.01-4.75-0.01-7.12c0-0.94,0.28-1.36,0.91-1.37
		c0.64-0.01,0.93,0.4,0.93,1.34c0,1.99,0.02,3.99-0.01,5.98c-0.01,0.98-0.17,1.97,1.03,2.43C44.54,40.76,44.74,40.94,45.08,41.16z
		 M10.32,33.66c0.3,0,0.54,0,0.78,0c2.57,0,5.14,0,7.71,0c0.83,0,1.65-0.02,2.48,0.01c0.57,0.02,0.96,0.46,0.91,0.96
		c-0.06,0.54-0.39,0.83-0.93,0.87c-0.18,0.01-0.36,0-0.54,0c-3.22,0-6.44,0-9.66,0c-0.24,0-0.48,0-0.73,0c0,0.64,0,1.21,0,1.84
		c0.31,0,0.58,0,0.84,0c3.15,0,6.3,0,9.45,0c0.2,0,0.4,0,0.6,0.01c0.58,0.02,0.93,0.31,0.96,0.9c0.03,0.51-0.37,0.87-0.95,0.91
		c-0.2,0.01-0.4,0-0.6,0c-3.2,0-6.39,0-9.59,0c-0.24,0-0.47,0-0.72,0c0,0.67,0,1.23,0,1.82c4.58,0,9.1,0,13.67,0
		c0-3.04,0-6.05,0-9.08c-4.58,0-9.12,0-13.69,0C10.32,32.48,10.32,33.01,10.32,33.66z M24.05,47.54c-0.13-0.04-0.19-0.08-0.26-0.08
		c-2.35-0.01-4.69-0.02-7.04,0.01c-0.19,0-0.46,0.24-0.54,0.43c-0.63,1.41-1.22,2.83-1.83,4.25c-0.23,0.53-0.45,1.06-0.67,1.57
		c0.09,0.06,0.1,0.08,0.12,0.08c3.28,0.02,6.56,0.04,9.84,0.02c0.12,0,0.35-0.35,0.35-0.54c0.03-1.12,0.02-2.24,0.02-3.36
		C24.05,49.12,24.05,48.32,24.05,47.54z M8.53,42.89c0,0.93,0,1.79,0,2.66c5.18,0,10.32,0,15.48,0c0-0.9,0-1.76,0-2.66
		C18.84,42.89,13.71,42.89,8.53,42.89z M36.01,24.49c0.46,0,0.93,0,1.39,0c0.45-0.01,0.9,0.02,1.34-0.05
		c1.53-0.24,2.63-1.5,2.69-3.05c0.03-0.87,0.03-1.74-0.01-2.61c-0.06-1.35-1.16-2.43-2.5-2.52c-1.44-0.09-2.78,0.82-2.87,2.22
		C35.92,20.44,36.01,22.43,36.01,24.49z M30.44,47.49c-1.55,0-3.03,0-4.53,0c0,2.13,0,4.21,0,6.35c1.18,0,2.32,0,3.45,0
		c0.1,0,0.26-0.03,0.3-0.1c0.27-0.51,0.71-1.01,0.74-1.54C30.51,50.64,30.44,49.08,30.44,47.49z M50.58,33.6c0-0.58,0-1.13,0-1.72
		c-1.21,0-2.39,0-3.6,0c0,3.04,0,6.05,0,9.1c1.21,0,2.38,0,3.58,0c0-0.61,0-1.19,0-1.83c-0.35,0-0.64,0.02-0.93,0
		c-0.52-0.04-0.82-0.36-0.84-0.87c-0.01-0.52,0.27-0.84,0.79-0.91c0.22-0.03,0.45,0.02,0.67-0.04c0.13-0.03,0.33-0.18,0.34-0.29
		c0.04-0.5,0.02-1,0.02-1.49c-1.45-0.12-1.8-0.31-1.83-0.94C48.77,33.97,49.11,33.77,50.58,33.6z M39.63,47.48
		c-1.25,0-2.42,0-3.68,0c0,1.05,0,2.07,0,3.09c0,0.95-0.08,1.87,0.57,2.74c0.3,0.4,0.51,0.58,0.97,0.54
		c0.44-0.04,1.06,0.12,1.29-0.11c0.41-0.42,0.78-1.06,0.82-1.63C39.7,50.6,39.63,49.08,39.63,47.48z M45.16,45.55
		c2.45,0,4.84,0,7.22,0c0-0.91,0-1.77,0-2.66c-2.42,0-4.8,0-7.22,0C45.16,43.79,45.16,44.65,45.16,45.55z M34.09,51.15
		c0.01-0.12,0.04-0.25,0.04-0.38c0-2.64,0.01-5.27,0-7.91c0-0.75-0.33-1.16-0.9-1.17c-0.6-0.01-0.94,0.41-0.94,1.2
		c0,1.92,0,3.84,0,5.76c0,0.84,0,1.69,0,2.5C32.92,51.15,33.49,51.15,34.09,51.15z M43.28,51.15c0-2.5,0-5.01,0-7.51
		c0-0.38,0.03-0.77-0.02-1.14c-0.06-0.47-0.36-0.77-0.85-0.8c-0.49-0.03-0.81,0.24-0.93,0.7c-0.05,0.19-0.05,0.4-0.05,0.6
		c0,2.53,0,5.06,0,7.59c0,0.19,0.02,0.38,0.04,0.56C42.09,51.15,42.64,51.15,43.28,51.15z M25.9,41.01c1.12,0,2.17,0,3.22,0
		c0.96,0,1.98,0.2,2.68-0.76c0.05-0.07,0.17-0.07,0.23-0.14c0.1-0.12,0.24-0.26,0.25-0.41c0.03-0.46,0.01-0.93,0.01-1.41
		c-2.16,0-4.26,0-6.38,0C25.9,39.2,25.9,40.06,25.9,41.01z M45.12,47.52c0,1.42,0.06,2.81-0.02,4.19c-0.05,0.83,0.63,1.31,0.79,2.02
		c0.01,0.05,0.15,0.11,0.23,0.11c0.97,0.01,1.94,0,2.99,0c-0.13-0.32-0.2-0.52-0.29-0.72c-0.69-1.6-1.39-3.19-2.08-4.79
		C46.32,47.35,46.32,47.35,45.12,47.52z M30.4,45.57c0-0.93,0-1.79,0-2.66c-1.52,0-3,0-4.49,0c0,0.91,0,1.77,0,2.66
		C27.42,45.57,28.89,45.57,30.4,45.57z M35.98,42.88c0,0.93,0,1.79,0,2.66c1.23,0,2.41,0,3.59,0c0-0.91,0-1.77,0-2.66
		C38.37,42.88,37.21,42.88,35.98,42.88z M48.37,47.49c0.9,2.06,1.76,4.07,2.66,6.05c0.08,0.18,0.44,0.24,0.67,0.36
		c-0.39-1.84-0.89-3.5-1.39-5.17C49.91,47.36,49.9,47.36,48.37,47.49z M10.97,53.76c0.51,0.19,0.73,0.04,0.9-0.37
		c0.71-1.71,1.45-3.41,2.18-5.12c0.1-0.24,0.2-0.48,0.33-0.82c-0.48,0-0.86-0.04-1.23,0.02c-0.17,0.03-0.4,0.21-0.44,0.36
		C12.12,49.79,11.55,51.77,10.97,53.76z M25.9,32.67c0.93,0,1.81,0,2.74,0c-0.01-0.3-0.02-0.54-0.03-0.78c-0.94,0-1.81,0-2.7,0
		C25.9,32.18,25.9,32.41,25.9,32.67z M43.9,53.82c-0.49-0.7-1.05-0.93-1.74-0.85c-0.54,0.06-0.99,0.28-1.28,0.85
		C41.89,53.82,42.83,53.82,43.9,53.82z M31.74,53.77c1.01,0,1.96,0,2.97,0C33.78,52.66,32.57,52.67,31.74,53.77z"/>
	<path d="M13.96,18.05c-2.52,0-4.56-2.05-4.57-4.57c-0.01-2.53,2.08-4.61,4.62-4.59c2.5,0.02,4.56,2.11,4.54,4.61
		C18.53,16.02,16.48,18.05,13.96,18.05z M13.94,10.74c-1.51,0.01-2.72,1.23-2.72,2.73c0,1.52,1.27,2.78,2.78,2.76
		c1.5-0.02,2.71-1.26,2.72-2.75C16.71,11.94,15.48,10.73,13.94,10.74z"/>
	<path d="M48.78,17.58c0.01-1.76,1.45-3.18,3.21-3.18c1.75,0,3.2,1.45,3.2,3.2c0.01,1.76-1.51,3.26-3.26,3.23
		C50.18,20.79,48.77,19.34,48.78,17.58z M52.06,16.25c-0.78-0.04-1.39,0.52-1.43,1.28c-0.03,0.78,0.52,1.4,1.28,1.44
		c0.75,0.04,1.4-0.54,1.44-1.29C53.39,16.91,52.82,16.28,52.06,16.25z"/>
	<path d="M6.64,14.38c-0.33,0-0.67,0.03-1-0.01c-0.51-0.06-0.81-0.39-0.82-0.9C4.81,13,5.09,12.63,5.57,12.59
		c0.71-0.06,1.43-0.06,2.13,0c0.51,0.04,0.78,0.43,0.75,0.95c-0.03,0.52-0.36,0.81-0.87,0.85C7.27,14.41,6.95,14.39,6.64,14.38
		C6.64,14.39,6.64,14.39,6.64,14.38z"/>
	<path d="M10.44,17.97c-0.17,0.31-0.25,0.55-0.4,0.72c-0.39,0.43-0.8,0.84-1.23,1.23c-0.42,0.39-0.98,0.39-1.32,0.02
		c-0.39-0.44-0.36-0.9,0.04-1.31c0.43-0.45,0.85-0.93,1.35-1.3c0.23-0.17,0.69-0.19,0.97-0.09C10.1,17.35,10.25,17.72,10.44,17.97z"
		/>
	<path d="M8.04,6.62C8.35,6.77,8.6,6.84,8.77,6.99c0.46,0.42,0.91,0.86,1.33,1.32c0.36,0.41,0.36,0.87-0.03,1.26
		c-0.4,0.39-0.86,0.37-1.26,0C8.34,9.16,7.86,8.73,7.49,8.24C7.31,8,7.26,7.56,7.35,7.27C7.43,7.01,7.79,6.84,8.04,6.62z"/>
	<path d="M21.33,14.39c-0.33,0-0.67,0.03-1-0.01c-0.51-0.05-0.82-0.35-0.84-0.87c-0.02-0.53,0.27-0.88,0.77-0.93
		c0.69-0.06,1.38-0.06,2.07,0c0.51,0.04,0.81,0.41,0.79,0.92c-0.02,0.51-0.34,0.82-0.85,0.88C21.96,14.41,21.64,14.39,21.33,14.39z"
		/>
	<path d="M20.8,7.56c-0.14,0.3-0.2,0.53-0.34,0.68c-0.44,0.48-0.89,0.95-1.37,1.37c-0.38,0.33-0.84,0.33-1.21-0.04
		c-0.39-0.39-0.4-0.86-0.04-1.26c0.43-0.48,0.87-0.97,1.39-1.35c0.23-0.17,0.69-0.21,0.97-0.11C20.45,6.95,20.61,7.32,20.8,7.56z"/>
	<path d="M20.76,19.45c-0.16,0.19-0.32,0.55-0.58,0.65c-0.26,0.11-0.71,0.08-0.92-0.09c-0.54-0.42-1.06-0.91-1.45-1.47
		c-0.17-0.25-0.15-0.81,0.03-1.07c0.15-0.22,0.79-0.4,0.96-0.27c0.67,0.53,1.24,1.19,1.84,1.81C20.71,19.08,20.7,19.22,20.76,19.45z
		"/>
	<path d="M14.86,20.81c0,0.33,0.02,0.67-0.01,1c-0.05,0.52-0.36,0.81-0.88,0.82c-0.52,0-0.86-0.28-0.89-0.8
		c-0.04-0.67-0.03-1.34,0-2.01c0.02-0.53,0.38-0.82,0.88-0.82c0.5,0,0.84,0.28,0.89,0.81C14.88,20.13,14.86,20.47,14.86,20.81
		C14.86,20.81,14.86,20.81,14.86,20.81z"/>
	<path d="M13.08,6.09c0-0.33-0.03-0.67,0.01-1c0.05-0.49,0.37-0.76,0.85-0.77c0.52-0.01,0.88,0.26,0.91,0.78
		c0.04,0.69,0.04,1.38,0,2.07c-0.03,0.52-0.4,0.79-0.91,0.78c-0.49-0.02-0.8-0.29-0.85-0.78C13.05,6.81,13.08,6.45,13.08,6.09z"/>
	<path d="M52.56,7.58c0.01,0.55-0.43,1-0.96,1c-0.53,0-0.97-0.45-0.96-1c0.01-0.52,0.42-0.94,0.93-0.96
		C52.1,6.6,52.55,7.04,52.56,7.58z"/>
</g>
</svg>
