<?xml version="1.0" encoding="utf-8"?>
<!-- Generator: Adobe Illustrator 26.0.1, SVG Export Plug-In . SVG Version: 6.00 Build 0)  -->
<svg version="1.1" id="Layer_1" xmlns="http://www.w3.org/2000/svg" xmlns:xlink="http://www.w3.org/1999/xlink" x="0px" y="0px"
	 viewBox="0 0 60 60" style="enable-background:new 0 0 60 60;" xml:space="preserve">
<g>
	<path d="M7.22,23.27c-1.06,0-2.05,0-3.03,0c-0.9,0-1.19-0.29-1.19-1.18c0-2.81,0-5.62,0-8.43c0-1.15,0.2-1.35,1.33-1.35
		c6.59,0,13.18,0,19.77,0c0.85,0,0.85,0,0.85-0.86c0-1.43,0-2.85,0-4.28c0-0.24,0-0.47,0-0.76c-0.63,0-1.17,0-1.72,0
		c-2.5,0-5.01,0-7.51,0c-0.2,0-0.4,0.02-0.59-0.02c-0.47-0.1-0.73-0.39-0.7-0.88c0.03-0.46,0.31-0.71,0.75-0.77
		c0.19-0.03,0.39-0.01,0.59-0.01c13.29,0,26.58,0,39.86,0c1.16,0,1.37,0.21,1.37,1.39c0,15.94,0,31.88,0,47.83
		c0,0.94-0.27,1.37-0.84,1.38c-0.59,0.01-0.85-0.42-0.85-1.36c0-9.93,0-19.85,0-29.78c0-0.26,0-0.52,0-0.84
		c-15.45,0-30.88,0-46.39,0c0,0.25,0,0.5,0,0.76c0,9.95,0,19.89,0,29.84c0,0.22,0.08,0.5-0.03,0.64c-0.21,0.29-0.51,0.65-0.81,0.68
		c-0.25,0.03-0.6-0.33-0.79-0.61c-0.13-0.18-0.06-0.51-0.06-0.77c0-9.88,0-19.76,0-29.64C7.22,23.94,7.22,23.66,7.22,23.27z
		 M26.65,21.53c9.59,0,19.1,0,28.61,0c0-5.06,0-10.07,0-15.08c-9.56,0-19.07,0-28.61,0C26.65,11.49,26.65,16.49,26.65,21.53z
		 M18.15,13.97c-1.95,0-3.81,0.02-5.67-0.01c-0.49-0.01-0.64,0.14-0.63,0.63c0.02,2.15,0.01,4.3,0.01,6.45
		c0,0.17,0.04,0.33,0.05,0.48c2.11,0,4.17,0,6.24,0C18.15,19.01,18.15,16.54,18.15,13.97z M10.11,21.55
		c0.04-0.12,0.06-0.16,0.06-0.2c0.01-1.98,0.01-3.95,0.01-5.93c0-1.45,0-1.45-1.44-1.45c-1.33,0-2.67,0-4.01,0c0,2.57,0,5.06,0,7.58
		C6.55,21.55,8.33,21.55,10.11,21.55z M19.92,13.97c0,2.59,0,5.07,0,7.57c1.68,0,3.32,0,5.03,0c0-2.43,0.01-4.84-0.02-7.24
		c0-0.11-0.24-0.31-0.37-0.31C23.03,13.97,21.5,13.97,19.92,13.97z"/>
	<path d="M35.91,31.72c0,1.3,0,2.59,0,3.89c0,0.86-0.28,1.13-1.15,1.14c-1.78,0-3.56,0-5.34,0c-0.83,0-1.12-0.28-1.12-1.09
		c-0.01-2.63-0.01-5.27,0-7.9c0-0.82,0.29-1.11,1.11-1.12c1.78-0.01,3.56-0.01,5.34,0c0.89,0,1.16,0.29,1.16,1.21
		C35.92,29.13,35.91,30.42,35.91,31.72z M34.18,35.02c0-2.24,0-4.44,0-6.67c-1.4,0-2.77,0-4.14,0c0,2.25,0,4.45,0,6.67
		C31.44,35.02,32.79,35.02,34.18,35.02z"/>
	<path d="M35.91,46.02c0,1.32,0.01,2.63,0,3.95c0,0.82-0.3,1.11-1.11,1.12c-1.8,0.01-3.6,0.01-5.4,0c-0.78,0-1.09-0.3-1.09-1.06
		c-0.01-2.66-0.01-5.31,0-7.97c0-0.78,0.31-1.09,1.07-1.09c1.82-0.01,3.65-0.01,5.47,0c0.76,0,1.06,0.32,1.06,1.1
		C35.92,43.38,35.91,44.7,35.91,46.02z M34.19,42.69c-1.43,0-2.78,0-4.15,0c0,2.24,0,4.45,0,6.65c1.41,0,2.78,0,4.15,0
		C34.19,47.1,34.19,44.91,34.19,42.69z"/>
	<path d="M12.72,31.65c0-1.32-0.01-2.63,0-3.95c0-0.79,0.27-1.07,1.07-1.07c1.8-0.01,3.6-0.01,5.4,0c0.83,0,1.09,0.27,1.1,1.12
		c0.01,2.63,0.01,5.27,0,7.9c0,0.84-0.26,1.09-1.11,1.09c-1.8,0-3.6,0.01-5.4,0c-0.8,0-1.05-0.26-1.06-1.07
		C12.72,34.33,12.72,32.99,12.72,31.65z M18.58,35.02c0-2.23,0-4.43,0-6.67c-1.39,0-2.74,0-4.13,0c0,2.23,0,4.43,0,6.67
		C15.84,35.02,17.19,35.02,18.58,35.02z"/>
	<path d="M51.5,31.73c0,1.32,0.01,2.63,0,3.95c0,0.8-0.27,1.06-1.07,1.06c-1.8,0.01-3.6,0.01-5.4,0c-0.82,0-1.09-0.25-1.09-1.04
		c-0.01-2.68-0.01-5.35,0-8.03c0-0.76,0.28-1.03,1.04-1.04c1.82-0.01,3.64-0.01,5.46,0c0.79,0.01,1.06,0.29,1.06,1.09
		C51.5,29.05,51.5,30.39,51.5,31.73z M45.64,28.34c0,2.24,0,4.44,0,6.65c1.41,0,2.78,0,4.13,0c0-2.25,0-4.43,0-6.65
		C48.38,28.34,47.03,28.34,45.64,28.34z"/>
	<path d="M12.72,46c0-1.32-0.01-2.63,0-3.95c0-0.79,0.28-1.08,1.06-1.09c1.82-0.01,3.64-0.01,5.47,0c0.74,0,1.04,0.29,1.04,1.04
		c0.01,2.68,0.01,5.36,0,8.03c0,0.76-0.29,1.04-1.03,1.05c-1.84,0.01-3.69,0.01-5.53,0c-0.71,0-1-0.29-1-1
		C12.71,48.72,12.72,47.36,12.72,46z M14.45,42.69c0,2.25,0,4.45,0,6.67c1.4,0,2.74,0,4.13,0c0-2.23,0-4.43,0-6.67
		C17.2,42.69,15.85,42.69,14.45,42.69z"/>
	<path d="M51.5,46.07c0,1.32,0.01,2.63,0,3.95c0,0.78-0.29,1.06-1.08,1.06c-1.8,0.01-3.6,0.01-5.4,0c-0.8,0-1.08-0.27-1.09-1.05
		c-0.01-2.68-0.01-5.36,0-8.03c0-0.75,0.29-1.03,1.05-1.04c1.82-0.01,3.64-0.01,5.47,0c0.77,0,1.05,0.3,1.05,1.09
		C51.5,43.39,51.5,44.73,51.5,46.07z M49.76,49.36c0-2.27,0-4.46,0-6.67c-1.4,0-2.75,0-4.12,0c0,2.24,0,4.44,0,6.67
		C47.02,49.36,48.37,49.36,49.76,49.36z"/>
	<path d="M34.15,19.87c-1.58,0-3.16,0-4.74,0c-0.82,0-1.1-0.28-1.1-1.11c-0.01-3.18-0.01-6.37,0-9.55c0-0.84,0.27-1.11,1.1-1.12
		c3.21-0.01,6.41-0.01,9.62,0c0.83,0,1.1,0.28,1.1,1.11c0.01,3.18,0.01,6.37,0,9.55c0,0.83-0.28,1.11-1.1,1.12
		C37.4,19.88,35.78,19.87,34.15,19.87z M30.02,18.14c2.83,0,5.6,0,8.37,0c0-2.81,0-5.56,0-8.33c-2.81,0-5.59,0-8.37,0
		C30.02,12.6,30.02,15.34,30.02,18.14z"/>
	<path d="M53.61,13.99c0,1.6,0,3.2,0,4.81c0,0.81-0.26,1.07-1.06,1.07c-3.23,0.01-6.45,0.01-9.68,0c-0.76,0-1.04-0.27-1.04-1.03
		c-0.01-3.25-0.01-6.5,0-9.75c0-0.73,0.27-1,1-1.01c3.25-0.01,6.5-0.01,9.75,0c0.79,0,1.04,0.28,1.04,1.1
		C53.61,10.79,53.61,12.39,53.61,13.99z M43.49,18.15c2.86,0,5.61,0,8.4,0c0-2.8,0-5.55,0-8.3c-0.09-0.03-0.15-0.07-0.21-0.07
		c-2.59-0.01-5.18,0-7.77-0.02c-0.38,0-0.42,0.21-0.42,0.5c0.01,1.19,0,2.37,0,3.56C43.49,15.24,43.49,16.66,43.49,18.15z"/>
</g>
</svg>
