<?xml version="1.0" encoding="utf-8"?>
<!-- Generator: Adobe Illustrator 26.0.1, SVG Export Plug-In . SVG Version: 6.00 Build 0)  -->
<svg version="1.1" id="Layer_1" xmlns="http://www.w3.org/2000/svg" xmlns:xlink="http://www.w3.org/1999/xlink" x="0px" y="0px"
	 viewBox="0 0 60 60" style="enable-background:new 0 0 60 60;" xml:space="preserve">
<g>
	<path d="M3,15.85c0.2-0.46,0.55-0.73,1-0.94c8.21-3.81,16.42-7.62,24.62-11.46c0.94-0.44,1.79-0.45,2.72-0.01
		c2.55,1.21,5.12,2.39,7.68,3.58c0.19,0.09,0.39,0.17,0.55,0.3c0.29,0.22,0.4,0.53,0.26,0.89C39.69,8.58,39.4,8.75,39,8.7
		c-0.19-0.03-0.37-0.11-0.54-0.19c-2.59-1.2-5.19-2.4-7.77-3.62c-0.49-0.23-0.9-0.23-1.39,0c-7.02,3.28-14.06,6.55-21.09,9.82
		c-0.2,0.09-0.39,0.19-0.56,0.37c14.89,0,29.78,0,44.84,0c-0.28-0.15-0.43-0.23-0.59-0.3c-3.13-1.46-6.26-2.92-9.4-4.38
		c-0.11-0.05-0.23-0.09-0.33-0.15c-0.44-0.24-0.6-0.65-0.41-1.06c0.19-0.41,0.61-0.57,1.06-0.38c0.6,0.25,1.18,0.54,1.77,0.82
		c3.72,1.73,7.44,3.48,11.17,5.18c0.87,0.39,1.33,0.92,1.21,1.9c-0.05,0.42-0.02,0.85-0.11,1.25c-0.27,1.17-1.27,2.05-2.46,2.13
		c-1.01,0.07-2.04,0.04-3.05,0.05c-1.9,0.01-3.8-0.01-5.69,0.01c-0.96,0.01-1.85-0.17-2.57-0.92c-0.78,0.81-1.74,0.92-2.78,0.91
		c-2.46-0.03-4.92,0-7.38-0.01c-0.69,0-1.39-0.09-2.12-0.14c0,9.47,0,19.02,0,28.65c0.24,0,0.48,0,0.72,0
		c0.9,0.02,1.36,0.47,1.37,1.37c0.01,1.53,0,3.06,0,4.59c0,0.21,0,0.42,0,0.67c1,0,1.97,0,2.98,0c0.21-1.67,0.42-3.34,0.63-5.01
		c0.16-1.31,0.33-2.61,0.47-3.92c0.02-0.17-0.04-0.44-0.16-0.51c-0.97-0.64-1.3-1.3-0.98-2.41c0.17-0.59,0.56-1.12,0.83-1.68
		c0.09-0.17,0.2-0.38,0.18-0.55c-0.3-2.71-0.6-5.41-0.94-8.11c-0.35-2.8,1.58-5.15,4.4-5.21c2.46-0.05,4.92-0.04,7.38-0.01
		c2.92,0.04,4.87,2.34,4.51,5.26c-0.32,2.54-0.6,5.09-0.92,7.64c-0.05,0.41,0.03,0.72,0.33,1.03c0.6,0.61,0.88,1.39,0.91,2.24
		c0.03,0.75-0.26,1.35-0.94,1.69c-0.3,0.15-0.35,0.33-0.31,0.62c0.34,2.67,0.67,5.33,1,8c0.04,0.31,0.08,0.62,0.13,0.97
		c1.14,0,2.24,0,3.35,0c0.19,0,0.39-0.01,0.58,0.04c0.41,0.1,0.65,0.37,0.62,0.8c-0.03,0.44-0.29,0.7-0.74,0.74
		c-0.14,0.01-0.28,0.01-0.42,0.01c-17.22,0-34.44,0-51.65,0.01c-0.5,0-0.9-0.08-1.15-0.55c0-0.18,0-0.35,0-0.53
		c0.27-0.4,0.65-0.52,1.12-0.52c2.48,0.02,4.95,0.01,7.43,0.01c0.19,0,0.37,0,0.61,0c0-0.25,0-0.44,0-0.63c0-2.23,0-4.46,0-6.69
		c0-1.15,0.64-1.79,1.78-1.82c0.34-0.01,0.69,0,1.05,0c0-1.94,0-3.81,0-5.69c-0.11-0.02-0.2-0.03-0.28-0.05
		c-3.66-0.69-6.04-3.76-5.72-7.48c0.2-2.38,1.01-4.58,2.19-6.65c0.6-1.06,1.33-2.02,2.33-2.76c1.47-1.09,3.09-1.17,4.52-0.04
		c0.77,0.61,1.47,1.37,2.03,2.18c1.35,1.96,2.13,4.18,2.52,6.53c0.44,2.7-0.32,5-2.45,6.78c-1.01,0.84-2.19,1.29-3.48,1.49
		c0,1.91,0,3.78,0,5.7c0.44,0,0.84-0.02,1.24,0c0.95,0.07,1.55,0.69,1.6,1.63c0.02,0.46,0.01,0.91,0,1.37
		c-0.01,0.59-0.3,0.94-0.77,0.95c-0.48,0.01-0.8-0.35-0.81-0.96c-0.01-0.45,0-0.9,0-1.38c-1.42,0-2.78,0-4.13,0
		c0,2.53,0,5.01,0,7.49c1.39,0,2.73,0,4.13,0c0-0.75-0.01-1.46,0-2.18c0.02-0.57,0.41-0.94,0.9-0.85c0.47,0.09,0.67,0.42,0.67,0.87
		c0,0.72,0,1.43,0,2.15c2.56,0,5.04,0,7.57,0c0-0.22,0-0.41,0-0.6c0-1.55-0.01-3.09,0-4.64c0.01-0.92,0.46-1.37,1.35-1.4
		c0.24-0.01,0.48,0,0.73,0c0-9.62,0-19.18,0-28.66c-0.65,0.05-1.26,0.14-1.86,0.15c-2.48,0.02-4.95-0.01-7.43,0.01
		c-1.09,0.01-2.15-0.04-2.97-0.91c-0.65,0.65-1.41,0.91-2.28,0.91c-2.85,0-5.69,0-8.54,0c-1.32,0-2.29-0.58-2.85-1.79
		C3.14,18.14,3.07,17.94,3,17.75C3,17.11,3,16.48,3,15.85z M49.69,40.57c0.03-0.08,0.06-0.13,0.06-0.18c0.3-2.6,0.65-5.19,0.89-7.8
		c0.17-1.82-1.1-3.14-2.94-3.16c-2.39-0.02-4.78-0.02-7.17,0c-2.03,0.01-3.28,1.47-3.04,3.48c0.21,1.76,0.41,3.52,0.62,5.28
		c0.1,0.81,0.2,1.62,0.3,2.37C42.22,40.57,45.94,40.57,49.69,40.57z M16.61,35.06c0.08,0,0.11,0.01,0.11,0
		c0.24-0.23,0.48-0.46,0.72-0.69c0.39-0.36,0.85-0.38,1.17-0.06c0.32,0.32,0.31,0.79-0.06,1.17c-0.4,0.42-0.78,0.88-1.23,1.22
		c-0.74,0.56-0.83,1.27-0.67,2.11c0.1-0.01,0.2-0.01,0.3-0.03c2.66-0.58,4.46-3.14,4.13-5.84c-0.23-1.87-0.81-3.63-1.66-5.29
		c-0.55-1.07-1.19-2.08-2.16-2.82c-0.97-0.75-1.9-0.78-2.83-0.01c-0.52,0.43-1,0.94-1.39,1.5c-1.29,1.86-2.06,3.94-2.42,6.17
		c-0.39,2.43,0.57,4.59,2.57,5.71c0.55,0.31,1.17,0.48,1.84,0.75c0-1.28,0.01-2.41-0.01-3.53c0-0.16-0.14-0.35-0.26-0.48
		c-0.55-0.57-1.12-1.12-1.67-1.68c-0.37-0.39-0.38-0.84-0.05-1.17c0.33-0.32,0.78-0.31,1.17,0.07c0.25,0.24,0.46,0.5,0.69,0.75
		c0.04-0.03,0.09-0.06,0.13-0.09c0-0.35,0-0.69,0-1.04c0.01-0.62,0.29-0.97,0.79-0.97c0.5,0,0.79,0.33,0.79,0.96
		C16.61,32.86,16.61,33.95,16.61,35.06z M40.94,48.66c-0.27,2.2-0.55,4.39-0.82,6.6c2.69,0,5.35,0,8.05,0
		c-0.28-2.23-0.55-4.41-0.82-6.6C45.19,48.66,43.09,48.66,40.94,48.66z M44.12,44.36c2.11,0,4.22-0.01,6.32,0.01
		c0.46,0,0.59-0.16,0.49-0.6c-0.21-0.94-0.97-1.65-1.92-1.66c-3.25-0.02-6.5-0.02-9.75,0c-0.88,0.01-1.65,0.69-1.86,1.53
		c-0.15,0.6-0.07,0.72,0.55,0.72C40.01,44.37,42.06,44.36,44.12,44.36z M55.37,16.71c-3.84,0-7.64,0-11.44,0
		c-0.14,1.25,0.35,1.83,1.57,1.83c2.76,0.01,5.51,0.01,8.27,0C54.99,18.54,55.47,17.99,55.37,16.71z M16.04,16.72
		c-3.84,0-7.64,0-11.44,0C4.52,18,4.99,18.54,6.21,18.54c2.76,0.01,5.51,0.01,8.27,0C15.7,18.54,16.2,17.95,16.04,16.72z
		 M17.73,16.71c-0.17,1.16,0.35,1.81,1.46,1.82c2.84,0.01,5.69,0.01,8.53,0c1.11,0,1.65-0.71,1.41-1.82
		C25.32,16.71,21.52,16.71,17.73,16.71z M42.28,16.72c-3.85,0-7.66,0-11.47,0c-0.11,1.25,0.37,1.8,1.56,1.81c2.76,0,5.51,0,8.27,0
		C41.88,18.53,42.36,18.01,42.28,16.72z M28.67,55.27c0.9,0,1.75,0,2.62,0c0-1.7,0-3.36,0-5.03c-0.89,0-1.74,0-2.62,0
		C28.67,51.92,28.67,53.57,28.67,55.27z M38.53,55.27c0.38-3.1,0.77-6.19,1.15-9.29c-0.39,0-0.7,0-1.04,0
		c-0.39,3.1-0.77,6.18-1.15,9.29C37.83,55.27,38.14,55.27,38.53,55.27z M50.75,55.27c0-0.2,0.02-0.37,0-0.54
		c-0.33-2.66-0.66-5.33-1-7.99c-0.11-0.86-0.13-0.86-1-0.77c-0.03,0-0.05,0.04-0.12,0.09c0.38,3.05,0.76,6.12,1.14,9.21
		C50.13,55.27,50.44,55.27,50.75,55.27z M47.15,47.04c-0.02-0.2-0.07-0.37-0.06-0.54c0.04-0.48-0.2-0.59-0.63-0.56
		c-0.54,0.03-1.08,0.01-1.63,0.01c-1.17,0-2.34,0-3.54,0c-0.05,0.38-0.1,0.72-0.14,1.09C43.18,47.04,45.15,47.04,47.15,47.04z"/>
</g>
</svg>
