<?xml version="1.0" encoding="utf-8"?>
<!-- Generator: Adobe Illustrator 26.0.1, SVG Export Plug-In . SVG Version: 6.00 Build 0)  -->
<svg version="1.1" id="Layer_1" xmlns="http://www.w3.org/2000/svg" xmlns:xlink="http://www.w3.org/1999/xlink" x="0px" y="0px"
	 viewBox="0 0 60 60" style="enable-background:new 0 0 60 60;" xml:space="preserve">
<g>
	<path d="M3,16.81c0.41-1.19,1.28-1.76,2.47-2.08c7.18-1.93,14.36-3.9,21.53-5.87c2.11-0.58,4.19-0.51,6.29,0.07
		c7.17,1.97,14.35,3.93,21.53,5.89c1.52,0.42,2.14,1.23,2.16,2.81c0,0.28,0.01,0.56,0.01,0.84c-0.02,1.63-1.04,2.67-2.67,2.68
		c-2.27,0.02-4.53,0-6.8,0c-1.53,0-3.06-0.01-4.59,0c-0.63,0-1.22-0.1-1.75-0.46c-0.1-0.07-0.34-0.06-0.45,0.01
		c-0.54,0.36-1.13,0.46-1.75,0.45c-2.5-0.01-4.99,0-7.49,0c-0.19,0-0.38,0-0.61,0c0,5.35,0,10.66,0,16.03c0.2,0,0.39,0,0.58,0
		c2.37,0,4.75,0,7.12,0c0.11,0,0.21,0,0.32,0c0.8,0,1.22,0.29,1.22,0.85c0,0.56-0.4,0.84-1.21,0.84c-1.92,0-3.83,0-5.75,0
		c-0.19,0-0.38,0-0.63,0c0,0.33,0.01,0.61,0,0.88c-0.04,0.97-0.47,1.73-1.33,2.18c-0.28,0.15-0.36,0.31-0.36,0.61
		c0.01,1.18,0.02,2.36,0,3.53c-0.01,0.35,0.08,0.51,0.44,0.62c1.65,0.5,2.78,1.97,2.92,3.69c0.05,0.66-0.22,1.08-0.75,1.12
		c-0.54,0.04-0.86-0.28-0.93-0.97c-0.11-1.08-0.7-1.87-1.68-2.18c0,0.71,0,1.41,0,2.1c-0.01,0.68-0.31,1.05-0.84,1.05
		c-0.54,0-0.84-0.37-0.84-1.05c-0.01-0.69,0-1.37,0-2.06c-0.79,0.11-1.5,0.94-1.66,1.93c-0.02,0.1-0.01,0.21-0.03,0.32
		c-0.07,0.59-0.41,0.9-0.92,0.86c-0.49-0.04-0.78-0.43-0.76-1.02c0.07-1.71,1.24-3.27,2.88-3.78c0.4-0.12,0.5-0.3,0.49-0.7
		c-0.03-1.18,0-2.36-0.02-3.53c0-0.16-0.09-0.4-0.21-0.46c-1.07-0.57-1.51-1.47-1.47-2.64c0-0.12,0-0.25-0.01-0.37
		c0-0.03-0.03-0.06-0.07-0.14c-0.25,0-0.53,0-0.8,0c-1.81,0-3.62,0-5.43,0c-0.19,0-0.39,0-0.58-0.03c-0.42-0.07-0.65-0.35-0.68-0.76
		c-0.02-0.41,0.18-0.72,0.59-0.83c0.22-0.06,0.45-0.07,0.68-0.07c2.46,0,4.92,0,7.38,0c0.19,0,0.38,0,0.59,0c0-5.36,0-10.66,0-16.03
		c-0.2,0-0.39,0-0.58,0c-2.46,0-4.92-0.01-7.38,0c-0.7,0-1.36-0.05-1.95-0.49c-0.09-0.06-0.28-0.02-0.41,0.02
		c-0.53,0.15-1.06,0.44-1.59,0.44c-3.85,0.04-7.7,0.02-11.55,0.02c-1.41,0-2.23-0.77-2.67-2.03C3,18.36,3,17.59,3,16.81z
		 M41.81,16.93c0,0.52,0,0.94,0,1.36c0,0.93,0.26,1.18,1.2,1.18c2.46,0,4.92,0,7.38,0c1.3,0,2.6,0.01,3.9,0
		c0.72-0.01,1.01-0.31,1.02-1.04c0.01-0.3,0-0.6,0.01-0.9c0.02-0.44-0.13-0.61-0.61-0.61c-2.74,0.02-5.48,0.01-8.22,0.01
		c-0.21,0-0.43,0.01-0.63-0.03c-0.42-0.08-0.7-0.38-0.64-0.77c0.05-0.29,0.31-0.6,0.55-0.79c0.16-0.13,0.47-0.09,0.71-0.09
		c1.02-0.01,2.05,0,3.07,0c0-0.04,0.01-0.07,0.01-0.11c-4.68-1.28-9.35-2.56-14.03-3.83c0.11,0.19,0.26,0.3,0.41,0.41
		c1.41,0.95,2.84,1.88,4.23,2.87c0.67,0.47,1.34,0.81,2.18,0.68c0.13-0.02,0.28,0.01,0.42,0.04c0.46,0.09,0.72,0.4,0.69,0.85
		c-0.02,0.46-0.3,0.74-0.78,0.78C42.43,16.95,42.15,16.93,41.81,16.93z M19.88,16.98c0,0.41,0,0.8,0,1.18
		c0,1.11,0.21,1.32,1.32,1.32c5.87,0,11.74,0,17.61,0c0.19,0,0.42,0.05,0.57-0.03c0.27-0.16,0.65-0.37,0.68-0.61
		c0.1-0.61,0.03-1.24,0.03-1.86C33.33,16.98,26.63,16.98,19.88,16.98z M22.03,15.2c5.42,0,10.7,0,16.09,0
		c-2.3-1.55-4.5-3.03-6.7-4.51c-1.02-0.69-1.91-0.66-2.92,0.06c-1.2,0.86-2.4,1.72-3.61,2.56C23.98,13.93,23.05,14.53,22.03,15.2z
		 M18.18,16.95c-0.28,0-0.49,0-0.7,0c-3.83,0-7.66,0-11.49,0c-1.31,0-1.31,0-1.31,1.31c0,0.98,0.24,1.22,1.21,1.22
		c3.62,0,7.24,0,10.86,0c0.19,0,0.39,0.01,0.58-0.01c0.52-0.04,0.82-0.32,0.85-0.83C18.2,18.1,18.18,17.56,18.18,16.95z
		 M10.43,15.14c0.01,0.04,0.01,0.08,0.02,0.11c1.86,0,3.73-0.12,5.58,0.03c1.96,0.16,3.62-0.34,5.17-1.53
		c1.16-0.9,2.44-1.64,3.66-2.46c-0.01-0.03-0.03-0.06-0.04-0.09C20.02,12.52,15.23,13.83,10.43,15.14z M29.16,38.91
		c0.03,0.57-0.2,1.2,0.44,1.52c0.23,0.12,0.65,0.1,0.87-0.04c0.55-0.35,0.36-0.94,0.34-1.48C30.25,38.91,29.73,38.91,29.16,38.91z"
		/>
	<path d="M10.59,40.57c2.59,0,5.1,0,7.62,0c0.19,0,0.39-0.01,0.58,0.01c0.71,0.08,1.06,0.47,1.08,1.18c0.01,0.18,0.01,0.35,0,0.53
		c-0.16,2.49,0.22,4.94,0.68,7.37c0.05,0.26,0.1,0.52,0.14,0.78c0.08,0.56-0.19,1-0.67,1.08c-0.5,0.08-0.89-0.21-0.99-0.78
		c-0.22-1.24-0.44-2.49-0.62-3.74c-0.06-0.38-0.17-0.53-0.59-0.53c-2.28,0.02-4.57,0.02-6.85,0c-0.4,0-0.54,0.12-0.6,0.52
		c-0.18,1.23-0.4,2.46-0.61,3.69c-0.11,0.63-0.47,0.93-0.99,0.85C8.26,51.44,8,50.99,8.1,50.35c0.26-1.52,0.52-3.05,0.77-4.57
		c0.03-0.17,0.03-0.35,0.03-0.53c0-3.41,0-6.82,0-10.23c0-0.85-0.14-1.02-0.97-1.23c-0.49-0.12-0.78-0.52-0.69-0.96
		c0.09-0.45,0.47-0.72,0.98-0.68c1.37,0.09,2.36,1.16,2.37,2.61c0.02,1.72,0,3.44,0,5.17C10.59,40.13,10.59,40.32,10.59,40.57z
		 M10.62,42.29c0,0.85,0,1.65,0,2.46c2.53,0,5.03,0,7.54,0c0-0.84,0-1.64,0-2.46C15.64,42.29,13.16,42.29,10.62,42.29z"/>
	<path d="M49.41,40.57c0-1.2,0-2.34,0-3.48c0-0.83-0.02-1.65,0.01-2.48c0.05-1.33,1.01-2.32,2.31-2.45
		c0.55-0.05,0.94,0.21,1.03,0.67c0.09,0.46-0.2,0.84-0.74,0.97c-0.76,0.18-0.92,0.38-0.92,1.16c0,3.44-0.05,6.89,0.03,10.33
		c0.03,1.25,0.36,2.5,0.56,3.74c0.07,0.47,0.17,0.93,0.24,1.4c0.08,0.56-0.2,0.99-0.68,1.07c-0.5,0.08-0.88-0.21-0.98-0.79
		c-0.22-1.26-0.44-2.53-0.63-3.79c-0.05-0.35-0.18-0.47-0.53-0.46c-2.32,0.01-4.64,0.02-6.96,0c-0.37,0-0.48,0.13-0.53,0.47
		c-0.18,1.21-0.39,2.43-0.6,3.64c-0.12,0.72-0.48,1.03-1.01,0.94c-0.53-0.09-0.76-0.54-0.65-1.23c0.23-1.33,0.51-2.66,0.65-4
		c0.13-1.24,0.1-2.49,0.13-3.73c0.01-0.21,0-0.42,0-0.63c0.01-0.95,0.4-1.35,1.34-1.35c2.41-0.01,4.82,0,7.22,0
		C48.9,40.57,49.11,40.57,49.41,40.57z M41.84,42.28c0,0.86,0,1.66,0,2.46c2.53,0,5.03,0,7.53,0c0-0.84,0-1.64,0-2.46
		C46.86,42.28,44.37,42.28,41.84,42.28z"/>
</g>
</svg>
