<?xml version="1.0" encoding="utf-8"?>
<!-- Generator: Adobe Illustrator 26.0.1, SVG Export Plug-In . SVG Version: 6.00 Build 0)  -->
<svg version="1.1" id="Layer_1" xmlns="http://www.w3.org/2000/svg" xmlns:xlink="http://www.w3.org/1999/xlink" x="0px" y="0px"
	 viewBox="0 0 60 60" style="enable-background:new 0 0 60 60;" xml:space="preserve">
<g>
	<path d="M36.12,18.68c0,8.16,0,16.24,0,24.37c0.71,0,1.4,0.02,2.08-0.02c0.18-0.01,0.37-0.2,0.51-0.35
		c4.62-4.61,9.24-9.23,13.85-13.85c0.79-0.79,1.1-0.8,1.89-0.01c0.69,0.69,1.39,1.38,2.08,2.08c0.63,0.64,0.63,1.02,0,1.66
		c-3.77,3.77-7.54,7.54-11.32,11.3c-0.29,0.29-0.42,0.57-0.42,0.99c0.02,3.63,0.01,7.25,0.01,10.88c0,0.99-0.26,1.25-1.26,1.25
		c-12.51,0-25.03,0-37.54,0c-1,0-1.25-0.25-1.25-1.25c0-12.11,0-24.23,0-36.34c0-0.22,0-0.43,0-0.72c-0.3,0-0.56,0.01-0.82,0
		c-0.55-0.03-0.9-0.34-0.91-0.88c-0.02-1.16-0.02-2.32,0.01-3.48c0-0.22,0.13-0.45,0.26-0.64c0.79-1.08,1.61-2.14,2.41-3.22
		c0.26-0.36,0.59-0.49,1.02-0.49c1.34,0.01,2.68-0.01,4.03,0.01c0.34,0,0.5-0.07,0.62-0.42c1.37-3.97,4.96-6.55,9.07-6.55
		c4.11,0,7.67,2.57,9.06,6.56c0.11,0.31,0.24,0.42,0.57,0.41c1.34-0.02,2.68,0,4.03-0.01c0.48-0.01,0.82,0.15,1.11,0.54
		c0.77,1.05,1.58,2.08,2.33,3.14c0.18,0.25,0.28,0.59,0.29,0.89c0.04,0.98,0.01,1.96,0.01,2.94c0,0.92-0.27,1.19-1.2,1.2
		C36.47,18.68,36.31,18.68,36.12,18.68z M8.23,50c0-0.27,0-0.49,0-0.7c0-6.87,0-13.75,0-20.62c0-1.05,0.24-1.29,1.26-1.29
		c4.39,0,8.78,0,13.17,0c0.99,0,1.24,0.25,1.24,1.26c0,6.91,0,13.82,0,20.73c0,0.21,0,0.42,0,0.62c3.52,0,6.96,0,10.41,0
		c0-2.9,0-5.77,0-8.68c-0.23,0-0.43,0-0.62,0c-2.3,0-4.61,0-6.91,0c-0.85,0-1.14-0.29-1.14-1.15c0-3.88,0-7.76,0-11.64
		c0-0.85,0.29-1.14,1.14-1.14c2.32,0,4.64,0,6.96,0c0.19,0,0.38,0,0.57,0c0-2.94,0-5.8,0-8.64c-0.06-0.03-0.09-0.05-0.12-0.05
		c-2.05,0-4.1-0.01-6.15,0c-0.16,0-0.36,0.14-0.49,0.27c-3.97,4.28-10.36,4.28-14.31,0c-0.14-0.15-0.39-0.26-0.59-0.27
		c-0.89-0.03-1.78-0.01-2.67-0.01c-1.16,0-2.31,0-3.49,0c0,10.47,0,20.88,0,31.32C7.09,50,7.63,50,8.23,50z M22.12,55.22
		c0-8.72,0-17.39,0-26.05c-4.07,0-8.1,0-12.12,0c0,8.71,0,17.37,0,26.05C14.05,55.22,18.07,55.22,22.12,55.22z M20.41,4.75
		c-4.27-0.01-7.81,3.5-7.83,7.76c-0.02,4.35,3.47,7.9,7.79,7.91c4.35,0.01,7.87-3.48,7.88-7.81C28.26,8.27,24.76,4.76,20.41,4.75z
		 M34.31,39.55c0-3.49,0-6.94,0-10.38c-2.33,0-4.62,0-6.9,0c0,3.48,0,6.92,0,10.38C29.72,39.55,32,39.55,34.31,39.55z M43.02,55.22
		c0-3.49,0-6.94,0-10.38c-2.33,0-4.62,0-6.9,0c0,3.48,0,6.92,0,10.38C38.43,55.22,40.7,55.22,43.02,55.22z M34.32,55.22
		c0-1.16,0-2.29,0-3.42c-3.49,0-6.94,0-10.39,0c0,1.16,0,2.27,0,3.42C27.39,55.22,30.83,55.22,34.32,55.22z M36.07,15.2
		c-2.09,0-4.13,0-6.18,0.01c-0.1,0-0.27,0.07-0.3,0.15c-0.21,0.51-0.39,1.03-0.58,1.56c2.38,0,4.71,0,7.06,0
		C36.07,16.35,36.07,15.81,36.07,15.2z M11.85,16.91c-0.19-0.49-0.39-0.92-0.52-1.37c-0.08-0.29-0.22-0.35-0.5-0.35
		C8.89,15.2,6.96,15.2,5.02,15.2c-0.08,0-0.17,0.03-0.25,0.05c0,0.57,0,1.1,0,1.67C7.13,16.91,9.46,16.91,11.85,16.91z M10.85,11.72
		c-1.27,0-2.49,0-3.72,0.01c-0.11,0-0.25,0.07-0.32,0.15c-0.39,0.49-0.76,0.99-1.17,1.54c1.79,0,3.49,0,5.2,0
		C10.85,12.85,10.85,12.33,10.85,11.72z M30,13.42c1.72,0,3.42,0,5.19,0c-0.4-0.54-0.75-1.01-1.12-1.48
		c-0.07-0.09-0.19-0.2-0.29-0.21c-1.26-0.01-2.52-0.01-3.78-0.01C30,12.33,30,12.86,30,13.42z M8.19,55.22c0-1.17,0-2.3,0-3.41
		c-0.59,0-1.14,0-1.68,0c0,1.16,0,2.27,0,3.41C7.08,55.22,7.61,55.22,8.19,55.22z M47.85,35.96c0.03,0.05,0.06,0.09,0.09,0.14
		c0.78,0,1.56,0,2.33,0c0.12,0,0.27-0.02,0.35-0.09c0.53-0.5,1.05-1.02,1.67-1.64c-0.97,0-1.77-0.01-2.58,0.01
		c-0.11,0-0.24,0.07-0.33,0.15C48.86,34.98,48.35,35.47,47.85,35.96z M44.37,39.44c0.03,0.05,0.06,0.09,0.08,0.14
		c0.8,0,1.59,0,2.39,0c0.1,0,0.23-0.03,0.3-0.09c0.53-0.51,1.05-1.02,1.68-1.65c-0.97,0-1.78-0.01-2.59,0.01
		c-0.11,0-0.25,0.06-0.33,0.14C45.38,38.46,44.87,38.95,44.37,39.44z M45.22,41.44c-0.02-0.04-0.04-0.08-0.06-0.13
		c-0.81,0-1.62,0-2.43,0c-0.07,0-0.16,0.01-0.2,0.05c-0.54,0.53-1.08,1.07-1.71,1.69c0.93,0,1.71,0.01,2.49-0.01
		c0.14,0,0.32-0.07,0.42-0.17C44.24,42.41,44.73,41.92,45.22,41.44z M53.57,30.48c-0.72,0.71-1.43,1.41-2.17,2.13
		c0.6,0,1.22-0.06,1.82,0.02c0.81,0.11,1.21-0.36,1.57-0.85C54.35,31.31,53.93,30.86,53.57,30.48z"/>
	<path d="M16.06,30.87c1.11,0,2.21-0.01,3.32,0c0.71,0,1.03,0.32,1.04,1.03c0.01,1.63,0.01,3.26,0,4.9c0,0.71-0.32,1.03-1.03,1.04
		c-2.21,0.01-4.43,0.01-6.64,0c-0.71,0-1.03-0.32-1.03-1.03c-0.01-1.63-0.01-3.26,0-4.9c0-0.71,0.32-1.03,1.03-1.03
		C13.85,30.87,14.96,30.87,16.06,30.87z M13.49,32.63c0,1.18,0,2.31,0,3.42c1.75,0,3.46,0,5.15,0c0-1.16,0-2.28,0-3.42
		C16.92,32.63,15.22,32.63,13.49,32.63z"/>
	<path d="M18.7,44.77c0-1.14,0-2.26,0-3.41c0.55,0,1.1,0,1.68,0c0,1.12,0,2.25,0,3.41C19.84,44.77,19.3,44.77,18.7,44.77z"/>
	<path d="M23.88,15.2c-0.8,0-1.58-0.01-2.35,0c-0.43,0.01-0.79-0.08-1.01-0.49c-0.21-0.4-0.05-0.73,0.17-1.06
		c1.09-1.62,2.17-3.25,3.25-4.88c0.26-0.4,0.59-0.65,1.09-0.5c0.49,0.16,0.62,0.54,0.62,1.03c-0.01,1.36,0,2.71,0,4.12
		c0.28,0.02,0.54,0.03,0.84,0.05c0,0.56,0,1.11,0,1.7c-0.26,0.01-0.5,0.02-0.81,0.04c-0.02,0.26-0.03,0.52-0.05,0.82
		c-0.55,0-1.1,0-1.7,0C23.91,15.77,23.9,15.51,23.88,15.2z M22.94,13.44c0.38,0,0.64,0,0.94,0c0-0.44,0-0.85,0-1.4
		C23.53,12.55,23.26,12.96,22.94,13.44z"/>
	<path d="M17.46,14.34c0.68,0,1.36,0,2.07,0c0,0.58,0,1.12,0,1.73c-0.59,0-1.18,0-1.77,0c-0.8,0-1.59-0.01-2.39,0
		c-0.44,0.01-0.79-0.13-0.97-0.55c-0.18-0.44,0.01-0.77,0.31-1.07c0.86-0.86,1.73-1.71,2.57-2.58c0.2-0.2,0.37-0.45,0.47-0.71
		c0.18-0.47-0.06-0.94-0.5-1.12c-0.44-0.18-0.89,0.01-1.12,0.49c-0.05,0.09-0.08,0.2-0.12,0.3c-0.55,0-1.09,0-1.69,0
		c0.05-1.02,0.49-1.78,1.36-2.26c0.96-0.53,1.93-0.46,2.81,0.19c1.32,0.97,1.43,2.84,0.24,4.12c-0.43,0.46-0.91,0.87-1.37,1.3
		C17.39,14.23,17.42,14.29,17.46,14.34z"/>
	<path d="M42.19,48.27c0,1.45-1.18,2.63-2.62,2.62c-1.42-0.01-2.59-1.18-2.6-2.59c-0.01-1.44,1.17-2.62,2.62-2.62
		C41.01,45.67,42.19,46.85,42.19,48.27z M39.59,47.41c-0.47-0.01-0.87,0.37-0.88,0.84c-0.02,0.47,0.36,0.87,0.82,0.9
		c0.49,0.03,0.91-0.38,0.91-0.86C40.45,47.82,40.06,47.42,39.59,47.41z"/>
</g>
</svg>
