<?xml version="1.0" encoding="utf-8"?>
<!-- Generator: Adobe Illustrator 26.0.1, SVG Export Plug-In . SVG Version: 6.00 Build 0)  -->
<svg version="1.1" id="Layer_1" xmlns="http://www.w3.org/2000/svg" xmlns:xlink="http://www.w3.org/1999/xlink" x="0px" y="0px"
	 viewBox="0 0 60 60" style="enable-background:new 0 0 60 60;" xml:space="preserve">
<g>
	<path d="M3,13.02c0.36-0.94,0.91-1.7,1.96-1.93c0.2-0.04,0.42-0.07,0.63-0.07c1.6-0.01,3.2-0.01,4.8,0c0.66,0,1.05,0.32,1.05,0.85
		c0,0.52-0.39,0.84-1.06,0.84c-1.53,0-3.06,0-4.59,0c-0.82,0-1.1,0.28-1.1,1.11c0,0.73,0,1.47,0,2.23c16.03,0,32.02,0,48.07,0
		c0-0.89,0.05-1.8-0.03-2.7c-0.02-0.24-0.45-0.46-0.73-0.63c-0.13-0.08-0.34-0.02-0.52-0.02c-11.23,0-22.46,0-33.69,0
		c-0.87,0-1.26-0.26-1.27-0.83c-0.01-0.58,0.4-0.85,1.25-0.85c6.94,0,13.89,0,20.83,0c0.21,0,0.42,0,0.7,0c0-0.78,0-1.53,0-2.27
		c0-1.29,0.66-1.94,1.95-1.94c2.09,0,4.18,0,6.27,0c1.23,0,1.9,0.67,1.9,1.88c0,0.75,0,1.51,0,2.34c0.76,0,1.49,0,2.22,0
		c1.83,0,2.84,1.01,2.84,2.83c0,0.9,0,1.79,0,2.69c0,0.98-0.24,1.22-1.2,1.23c-0.14,0-0.28,0-0.49,0c0,0.21,0,0.4,0,0.58
		c0,6.63,0,13.25-0.01,19.88c0,0.41,0.13,0.61,0.48,0.81c2.77,1.62,4.2,4.76,3.63,7.91c-0.56,3.1-3.01,5.51-6.22,6.1
		c-2.99,0.55-6.17-0.92-7.77-3.63c-0.2-0.33-0.39-0.45-0.78-0.45c-7.28,0.01-14.55,0.01-21.83,0c-0.43,0-0.61,0.1-0.68,0.54
		c-0.11,0.76-0.28,1.52-0.45,2.27c-0.2,0.9-0.81,1.4-1.72,1.41c-1.76,0.01-3.52,0.01-5.27,0c-0.87-0.01-1.49-0.52-1.69-1.38
		c-0.18-0.8-0.36-1.61-0.49-2.43c-0.06-0.34-0.2-0.43-0.51-0.41c-1,0.06-1.97-0.09-2.82-0.66c-1.34-0.88-1.97-2.14-1.97-3.74
		c0-8.7,0-17.4,0-26.1c0-0.21,0-0.42,0-0.69C4.08,17.73,3.39,17.9,3,17.24C3,15.83,3,14.42,3,13.02z M6.41,17.79
		c0,4.23,0,8.42,0,12.63c1.48,0,2.92-0.01,4.36,0.01c0.35,0.01,0.53-0.1,0.69-0.41c1.13-2.06,2.28-4.12,3.42-6.17
		c0.22-0.41,0.52-0.68,1.01-0.57c0.51,0.12,0.67,0.51,0.67,1c0,1.46,0,2.92,0,4.38c0,0.22,0,0.45,0,0.73c1.3,0,2.55,0,3.79,0
		c0.98,0,1.13,0.11,1.41,1.04c3.93,0,7.87,0,11.8,0c2.69,0,5.38,0,8.07,0c0.63,0,1.01,0.31,1.02,0.82c0.01,0.53-0.38,0.85-1.03,0.86
		c-0.14,0-0.28,0-0.42,0c-6.68,0-13.36,0-20.04-0.01c-0.36,0-0.56,0.1-0.75,0.41c-1.29,2.09-2.6,4.17-3.9,6.26
		c-0.23,0.38-0.56,0.61-1.01,0.47c-0.45-0.13-0.62-0.48-0.61-0.93c0.01-0.6,0-1.2,0-1.79c0-0.77,0-1.54,0-2.37
		c-0.26,0-0.44,0-0.63,0c-1.07,0-2.15-0.06-3.22,0.01c-1.23,0.08-1.61-0.81-0.98-1.62c0.09-0.11,0.12-0.26,0.19-0.4
		c-1.32,0-2.58,0-3.87,0c0,0.21,0,0.38,0,0.55c0,3.94,0,7.87,0,11.81c0,1.76,1.03,2.79,2.78,2.79c10.76,0,21.52,0,32.27,0
		c0.19,0,0.37,0,0.57,0c-0.53-2.76,0.1-5.14,2.04-7.09c1.94-1.95,4.33-2.55,7.02-2.07c0-2.03,0-4.01,0-6.02c-0.82,0-1.6,0.01-2.39,0
		c-0.54-0.01-0.88-0.29-0.94-0.73c-0.07-0.53,0.33-0.94,0.94-0.95c0.8-0.01,1.6,0,2.4,0c0-4.25,0-8.43,0-12.63
		C36.18,17.79,21.31,17.79,6.41,17.79z M49.39,39.67c-3.26,0.01-5.9,2.65-5.89,5.91c0.01,3.25,2.68,5.91,5.92,5.89
		c3.26-0.01,5.9-2.67,5.89-5.92C55.3,42.29,52.65,39.66,49.39,39.67z M40.99,10.98c2.26,0,4.48,0,6.68,0c0-0.85,0-1.67,0-2.47
		c-2.25,0-4.45,0-6.68,0C40.99,9.34,40.99,10.14,40.99,10.98z M19.32,31.07c-1.05,0-1.96,0-2.88,0c-1.5,0-1.57-0.07-1.57-1.59
		c0-0.63,0-1.27,0-1.9c-0.04-0.01-0.08-0.01-0.13-0.02c-0.89,1.6-1.78,3.21-2.71,4.87c0.25,0.01,0.42,0.03,0.59,0.03
		c0.93,0,1.86,0,2.79,0c0.87,0,1.13,0.27,1.14,1.14c0,0.55,0,1.1,0,1.65c0.04,0.01,0.08,0.02,0.12,0.03
		C17.54,33.92,18.4,32.55,19.32,31.07z M17.99,49.02c-2.14,0-4.23,0-6.36,0c0.15,0.76,0.28,1.48,0.45,2.2
		c0.03,0.12,0.21,0.28,0.33,0.28c1.6,0.02,3.19,0.02,4.79,0c0.12,0,0.31-0.12,0.33-0.22C17.7,50.54,17.84,49.78,17.99,49.02z"/>
	<path d="M14.81,11.88c-0.01,0.46-0.41,0.83-0.87,0.81c-0.46-0.01-0.83-0.41-0.81-0.87c0.01-0.46,0.41-0.83,0.86-0.81
		C14.45,11.03,14.82,11.43,14.81,11.88z"/>
	<path d="M25.76,26.2c-2.16,0-4.32,0-6.49,0c-0.8,0-1.09-0.29-1.09-1.07c0-1.55,0-3.09,0-4.64c0-0.73,0.3-1.03,1.02-1.03
		c4.38,0,8.75,0,13.13,0c0.74,0,1.03,0.3,1.03,1.07c0,1.53,0,3.06,0,4.59c0,0.79-0.29,1.09-1.07,1.09
		C30.12,26.2,27.94,26.2,25.76,26.2z M19.91,21.16c0,1.14,0,2.23,0,3.31c3.94,0,7.85,0,11.75,0c0-1.12,0-2.21,0-3.31
		C27.74,21.16,23.84,21.16,19.91,21.16z"/>
	<path d="M25.73,37.17c-1.6,0-3.2,0-4.8,0c-0.66,0-1.05-0.32-1.05-0.84c0-0.53,0.39-0.84,1.05-0.84c3.23,0,6.47,0,9.7,0
		c0.66,0,1.05,0.32,1.05,0.84c0,0.52-0.39,0.84-1.05,0.84C29,37.17,27.36,37.17,25.73,37.17z"/>
	<path d="M25.78,38.86c1.62,0,3.23,0,4.85,0c0.66,0,1.05,0.32,1.05,0.84c0,0.52-0.39,0.84-1.05,0.84c-3.23,0-6.47,0-9.7,0
		c-0.66,0-1.05-0.32-1.05-0.84c0-0.53,0.39-0.84,1.05-0.84C22.55,38.86,24.16,38.86,25.78,38.86z"/>
	<path d="M25.73,43.92c-1.6,0-3.2,0-4.8,0c-0.66,0-1.05-0.32-1.05-0.84c0-0.53,0.39-0.84,1.05-0.84c3.23,0,6.47,0,9.7,0
		c0.66,0,1.05,0.32,1.05,0.84c0,0.52-0.39,0.84-1.05,0.84C29,43.92,27.36,43.92,25.73,43.92z"/>
	<path d="M39.31,20.3c1.4,0.01,2.53,1.18,2.51,2.58c-0.02,1.37-1.17,2.49-2.55,2.48c-1.4-0.01-2.53-1.18-2.5-2.58
		C36.77,21.4,37.92,20.29,39.31,20.3z M40.12,22.83c0-0.46-0.38-0.84-0.83-0.85c-0.46,0-0.84,0.38-0.85,0.83
		c0,0.46,0.38,0.84,0.83,0.85C39.73,23.67,40.12,23.29,40.12,22.83z"/>
	<path d="M46.1,20.3c1.39,0.03,2.5,1.22,2.46,2.63c-0.05,1.37-1.22,2.47-2.6,2.43c-1.39-0.03-2.5-1.22-2.46-2.63
		C43.55,21.36,44.72,20.26,46.1,20.3z M46.87,22.83c0-0.46-0.38-0.84-0.83-0.85c-0.46,0-0.84,0.38-0.85,0.83
		c0,0.46,0.38,0.84,0.83,0.85C46.48,23.67,46.87,23.29,46.87,22.83z"/>
	<path d="M46.03,31.24c0.01,0.46-0.36,0.85-0.81,0.86c-0.46,0.01-0.85-0.36-0.86-0.82c-0.01-0.46,0.36-0.85,0.81-0.86
		C45.62,30.41,46.01,30.78,46.03,31.24z"/>
	<path d="M49.38,48.88c-1.82-0.01-3.31-1.51-3.3-3.33c0.01-1.83,1.5-3.32,3.32-3.32c1.85,0,3.36,1.53,3.33,3.36
		C52.7,47.43,51.22,48.89,49.38,48.88z M49.39,47.19c0.9,0,1.64-0.73,1.65-1.62c0.01-0.89-0.73-1.64-1.63-1.65
		c-0.89-0.01-1.64,0.73-1.65,1.63C47.76,46.44,48.5,47.19,49.39,47.19z"/>
</g>
</svg>
