<?xml version="1.0" encoding="utf-8"?>
<!-- Generator: Adobe Illustrator 26.0.1, SVG Export Plug-In . SVG Version: 6.00 Build 0)  -->
<svg version="1.1" id="Layer_1" xmlns="http://www.w3.org/2000/svg" xmlns:xlink="http://www.w3.org/1999/xlink" x="0px" y="0px"
	 viewBox="0 0 60 60" style="enable-background:new 0 0 60 60;" xml:space="preserve">
<g>
	<path d="M34.64,2.99c0.41,0.3,0.51,0.71,0.49,1.2c-0.02,0.49-0.01,0.98-0.01,1.54c0.42,0,0.8-0.01,1.18,0
		c0.49,0.02,0.83,0.33,0.83,0.77c0.01,0.43-0.33,0.78-0.81,0.8c-0.38,0.02-0.77,0-1.18,0c0,0.72,0,1.38,0,2.08c0.87,0,1.73,0,2.61,0
		c0.15-0.63-0.28-1.67,0.86-1.64c1.05,0.03,0.66,1,0.8,1.68c0.4,0,0.82-0.01,1.23,0c0.57,0.01,0.93,0.33,0.93,0.8
		c0,0.47-0.36,0.77-0.93,0.78c-0.39,0.01-0.77,0.01-1.16,0.02c-0.01,0-0.03,0.02-0.08,0.05c0,0.65,0,1.33,0,2.07
		c0.42,0,0.84-0.01,1.25,0c0.56,0.02,0.92,0.35,0.91,0.81c-0.01,0.45-0.35,0.75-0.89,0.77c-0.42,0.01-0.84,0-1.28,0
		c0,0.74,0,1.41,0,2.15c0.44,0,0.86-0.01,1.28,0c0.54,0.02,0.88,0.32,0.89,0.77c0.01,0.44-0.34,0.78-0.86,0.81
		c-0.42,0.02-0.84,0-1.3,0c0,0.71,0,1.39,0,2.14c0.41,0,0.82,0,1.24,0c0.57,0.01,0.93,0.31,0.93,0.78c0,0.46-0.36,0.78-0.93,0.8
		c-0.4,0.01-0.8,0-1.27,0c0,0.38,0,0.73,0,1.07c0,0.33,0,0.66,0,1.05c0.46,0,0.88-0.01,1.29,0c0.56,0.01,0.92,0.34,0.91,0.81
		c-0.01,0.45-0.36,0.76-0.89,0.77c-0.42,0.01-0.84,0-1.28,0c0,0.71,0,1.37,0,2.13c0.37,0,0.75,0,1.12,0
		c0.66,0.01,1.04,0.3,1.05,0.79c0.01,0.5-0.37,0.79-1.02,0.79c-0.33,0-0.67,0-1,0.01c-0.03,0-0.07,0.02-0.14,0.04
		c0,1.19,0,2.39,0,3.63c0.46-0.09,0.92-0.18,1.38-0.25c3.87-0.62,8.01,1.38,9.93,4.79c0.21,0.37,0.3,0.78-0.06,1.05
		c-0.22,0.17-0.61,0.19-0.9,0.15c-0.17-0.02-0.33-0.29-0.45-0.48c-1.8-2.79-4.36-4.15-7.68-4c-3.76,0.17-7.12,3.25-7.63,6.98
		C33.4,46,36.2,50,40.61,50.92c5.1,1.07,10.02-3.04,9.88-8.25c-0.01-0.42-0.07-0.84-0.11-1.26c-0.05-0.52,0.21-0.91,0.67-0.97
		c0.46-0.06,0.8,0.22,0.9,0.75c0.96,5.05-2.67,10.35-7.76,11.26c-1.06,0.19-2.16,0.18-3.3,0.27c0,0.79,0,1.71,0,2.7
		c0.19,0,0.39,0,0.6,0c4.76,0,9.53,0,14.29,0c0.16,0,0.32-0.01,0.47,0.01c0.45,0.05,0.77,0.39,0.74,0.8
		c-0.03,0.45-0.29,0.7-0.73,0.76C56.13,57.01,55.99,57,55.85,57c-17.23,0-34.46,0-51.68,0.01c-0.49,0-0.9-0.08-1.16-0.53
		c0-0.18,0-0.35,0-0.53c0.25-0.42,0.63-0.55,1.11-0.54c1.25,0.03,2.49,0.01,3.81,0.01c0-0.26,0-0.48,0-0.7c0-9.84,0-19.69,0-29.53
		c0-0.23-0.01-0.46,0.02-0.68c0.06-0.4,0.31-0.62,0.72-0.64c0.4-0.02,0.69,0.16,0.78,0.56C9.5,24.65,9.5,24.9,9.5,25.15
		c0,9.84,0,19.69,0,29.53c0,0.23,0,0.45,0,0.71c2.92,0,5.8,0,8.76,0c0-0.62-0.05-1.25,0.02-1.87c0.03-0.29,0.21-0.66,0.44-0.81
		c0.5-0.32,1.08,0.09,1.11,0.75c0.03,0.63,0.01,1.26,0.01,1.92c1.25,0,2.45,0,3.7,0c0-2.57,0-5.14,0-7.78
		c-1.09,0-2.19-0.02-3.29,0.03c-0.14,0.01-0.37,0.36-0.39,0.57c-0.05,0.65-0.01,1.3-0.02,1.95c-0.01,0.63-0.3,0.97-0.8,0.96
		c-0.51,0-0.77-0.33-0.78-0.97c-0.01-0.63-0.01-1.27,0-1.9c0.02-1.4,0.85-2.23,2.24-2.23c2.58-0.01,5.17-0.01,7.75,0
		c1.38,0,2.24,0.85,2.25,2.23c0.01,2.18,0,4.36,0,6.54c0,0.19,0,0.38,0,0.6c2.92,0,5.79,0,8.75,0c0-1,0.01-2.01-0.02-3.02
		c0-0.1-0.23-0.23-0.38-0.29c-3.49-1.38-5.67-3.9-6.36-7.59c-0.55-2.9,0.2-5.54,2.01-7.86c0.12-0.15,0.25-0.3,0.37-0.44
		c0.11-0.13,0.23-0.26,0.41-0.46c-0.26,0-0.44,0-0.63,0c-0.84,0.01-1.3-0.29-1.61-1.08c-0.54-1.41-1.09-2.82-1.61-4.23
		c-0.13-0.36-0.3-0.52-0.71-0.5c-1.04,0.03-2.07-0.01-3.11,0.02c-0.8,0.02-1.32-0.34-1.65-1.06c-0.61-1.34-1.27-2.66-1.86-4.01
		c-0.18-0.41-0.42-0.57-0.85-0.61c-1.36-0.13-2.72-0.32-4.09-0.45c-0.81-0.07-1.33-0.44-1.62-1.2c-0.62-1.61-1.26-3.2-1.91-4.79
		c-0.07-0.16-0.3-0.35-0.46-0.35c-1.81-0.02-3.62-0.01-5.43-0.01c-0.07,0-0.13,0.02-0.26,0.04c0,1.2,0,2.39,0,3.58
		c0,0.23,0.01,0.46-0.04,0.68c-0.08,0.42-0.38,0.64-0.79,0.63c-0.41-0.02-0.73-0.25-0.73-0.69c-0.02-1.49-0.03-2.99,0.02-4.48
		c0.02-0.69,0.68-1.31,1.37-1.32c2.16-0.03,4.32-0.01,6.48,0c0.22,0,0.43,0.11,0.67,0.18c0-0.41,0-0.81,0-1.31
		c-0.42,0-0.83,0.01-1.24,0c-0.58-0.01-0.93-0.3-0.94-0.77c-0.01-0.48,0.36-0.8,0.96-0.81c0.39-0.01,0.77,0,1.2,0
		c0-0.7,0-1.38,0-2.14c-0.41,0-0.84,0.01-1.27,0c-0.53-0.01-0.88-0.32-0.89-0.77c-0.01-0.45,0.33-0.79,0.86-0.81
		c0.42-0.02,0.84,0,1.31,0c0-0.69,0-1.37,0-2.12c-0.36,0-0.74,0-1.12,0c-0.66,0-1.03-0.29-1.04-0.78c-0.01-0.5,0.37-0.8,1.02-0.8
		c0.33,0,0.67,0,1,0c0.03,0,0.07-0.01,0.19-0.03c0-0.52,0.02-1.06-0.01-1.59c-0.03-0.49,0.11-0.86,0.54-1.11c0.18,0,0.35,0,0.53,0
		c0.42,0.26,0.56,0.63,0.53,1.11c-0.03,0.53-0.01,1.07-0.01,1.59c0.94,0,1.79,0,2.67,0c0-0.55,0.02-1.06-0.01-1.56
		c-0.02-0.47,0.11-0.85,0.5-1.13c0.21,0,0.42,0,0.63,0c0.37,0.32,0.49,0.72,0.46,1.2c-0.03,0.5-0.01,1-0.01,1.5c0.94,0,1.8,0,2.69,0
		c0-0.58,0.02-1.12-0.01-1.66c-0.03-0.47,0.14-0.81,0.55-1.04c0.18,0,0.35,0,0.53,0c0.4,0.27,0.54,0.65,0.52,1.13
		c-0.03,0.52-0.01,1.04-0.01,1.59c0.91,0,1.76,0,2.66,0c0-0.55,0.02-1.07-0.01-1.59c-0.03-0.48,0.11-0.86,0.53-1.12
		c0.18,0,0.35,0,0.53,0c0.43,0.24,0.57,0.62,0.54,1.1c-0.03,0.54-0.01,1.07-0.01,1.6c0.93,0,1.79,0,2.69,0
		c0-0.52,0.02-1.01-0.01-1.5c-0.03-0.48,0.08-0.9,0.47-1.2C34.22,2.99,34.43,2.99,34.64,2.99z M25.19,55.39c1.25,0,2.47,0,3.74,0
		c0-0.97,0-1.92,0-2.86c0-1.4,0-2.81,0-4.21c0-0.34-0.06-0.69-0.47-0.7c-1.08-0.03-2.16-0.01-3.27-0.01
		C25.19,50.21,25.19,52.77,25.19,55.39z M35.16,34.12c0.9-0.04,1.74-0.09,2.61-0.13c0-1.49,0-2.91,0-4.37c-0.88,0-1.73,0-2.61,0
		C35.16,31.12,35.16,32.58,35.16,34.12z M24.99,22.95c0-1.41,0-2.92,0-4.46c-0.89,0-1.74,0-2.66,0c0,1.2,0.02,2.38-0.01,3.55
		c-0.01,0.42,0.15,0.53,0.53,0.57C23.56,22.69,24.26,22.83,24.99,22.95z M30.89,25.9c0,0.83,0,1.61,0,2.38
		c1.36,0.13,1.55,0.28,2.04,1.55c0.17,0.43,0.33,0.86,0.5,1.3c0.02-0.01,0.05-0.01,0.07-0.02c0-1.73,0-3.47,0-5.21
		C32.61,25.9,31.77,25.9,30.89,25.9z M20.75,22.31c0-0.66,0-1.29,0-1.91c0-0.63,0-1.25,0-1.9c-0.92,0-1.77,0-2.61,0
		c-0.26,0.92,0.19,1.67,0.49,2.44C19.16,22.28,19.17,22.28,20.75,22.31z M30.88,16.83c0.91,0,1.77,0,2.62,0c0-0.72,0-1.39,0-2.1
		c-0.81,0-1.58,0-2.35,0c-0.08,0-0.17,0.03-0.27,0.05C30.88,15.47,30.88,16.13,30.88,16.83z M25,14.74c-0.35,0-0.68-0.01-1.01,0
		c-0.54,0.02-1.07,0.05-1.6,0.08c-0.02,0.56-0.03,1.11-0.05,1.67c0,0.05-0.02,0.12,0.01,0.15c0.06,0.09,0.14,0.22,0.22,0.22
		c0.81,0.02,1.63,0.01,2.44,0.01C25,16.12,25,15.46,25,14.74z M35.16,16.85c0.89,0,1.74,0,2.61,0c0-0.71,0-1.38,0-2.08
		c-0.88,0-1.73,0-2.61,0C35.16,15.47,35.16,16.15,35.16,16.85z M20.71,16.86c0-0.73,0-1.4,0-2.08c-0.9,0-1.74,0-2.58,0
		c0,0.72,0,1.39,0,2.08C19,16.86,19.83,16.86,20.71,16.86z M29.26,14.77c-0.91,0-1.75,0-2.61,0c0,0.71,0,1.39,0,2.07
		c0.89,0,1.74,0,2.61,0C29.26,16.14,29.26,15.48,29.26,14.77z M22.36,9.41c0.91,0,1.76,0,2.64,0c0-0.7,0-1.37,0-2.05
		c-0.9,0-1.76,0-2.64,0C22.36,8.05,22.36,8.71,22.36,9.41z M30.88,9.41c0.9,0,1.75,0,2.64,0c0-0.7,0-1.37,0-2.06
		c-0.89,0-1.75,0-2.64,0C30.88,8.04,30.88,8.7,30.88,9.41z M25,11.06c-0.89,0-1.75,0-2.62,0c0,0.71,0,1.38,0,2.07
		c0.89,0,1.74,0,2.62,0C25,12.42,25,11.75,25,11.06z M33.51,22.22c-0.89,0-1.75,0-2.62,0c0,0.71,0,1.38,0,2.06c0.89,0,1.74,0,2.62,0
		C33.51,23.59,33.51,22.91,33.51,22.22z M33.51,11.06c-0.9,0-1.76,0-2.61,0c0,0.71,0,1.39,0,2.06c0.89,0,1.74,0,2.61,0
		C33.51,12.41,33.51,11.74,33.51,11.06z M30.88,20.57c0.91,0,1.76,0,2.62,0c0-0.71,0-1.38,0-2.05c-0.9,0-1.76,0-2.62,0
		C30.88,19.22,30.88,19.88,30.88,20.57z M26.64,25.91c-0.01,0.14-0.06,0.28-0.02,0.38c0.27,0.64,0.55,1.28,0.84,1.91
		c0.03,0.07,0.17,0.11,0.26,0.11c0.5,0.01,1,0.01,1.52,0.01c0-0.83,0-1.61,0-2.41C28.36,25.91,27.51,25.91,26.64,25.91z
		 M20.72,13.12c0-0.7,0-1.38,0-2.08c-0.88,0-1.73,0-2.61,0c0,0.7,0,1.38,0,2.08C18.99,13.12,19.84,13.12,20.72,13.12z M29.26,22.23
		c-0.88,0-1.76,0-2.62,0c0,0.7,0,1.36,0,2.03c0.89,0,1.75,0,2.62,0C29.26,23.57,29.26,22.92,29.26,22.23z M37.78,25.92
		c-0.9,0-1.75,0-2.62,0c0,0.7,0,1.38,0,2.06c0.89,0,1.74,0,2.62,0C37.78,27.29,37.78,26.63,37.78,25.92z M26.64,13.11
		c0.91,0,1.76,0,2.59,0c0-0.72,0-1.39,0-2.05c-0.89,0-1.74,0-2.59,0C26.64,11.76,26.64,12.43,26.64,13.11z M37.78,11.05
		c-0.91,0-1.76,0-2.61,0c0,0.71,0,1.39,0,2.06c0.89,0,1.74,0,2.61,0C37.78,12.41,37.78,11.75,37.78,11.05z M26.63,20.57
		c0.9,0,1.75,0,2.61,0c0-0.71,0-1.38,0-2.07c-0.88,0-1.73,0-2.61,0C26.63,19.2,26.63,19.86,26.63,20.57z M37.76,20.58
		c0-0.73,0-1.41,0-2.07c-0.89,0-1.74,0-2.59,0c0,0.71,0,1.39,0,2.07C36.06,20.58,36.89,20.58,37.76,20.58z M20.74,7.36
		c-0.91,0-1.78,0-2.63,0c0,0.71,0,1.37,0,2.03c0.89,0,1.75,0,2.63,0C20.74,8.7,20.74,8.05,20.74,7.36z M26.63,9.4
		c0.91,0,1.76,0,2.6,0c0-0.71,0-1.38,0-2.05c-0.89,0-1.74,0-2.6,0C26.63,8.05,26.63,8.71,26.63,9.4z M35.15,24.28
		c0.9,0,1.75,0,2.62,0c0-0.7,0-1.38,0-2.06c-0.89,0-1.74,0-2.62,0C35.15,22.9,35.15,23.57,35.15,24.28z"/>
	<path d="M29.25,41.65c0-0.24-0.01-0.49,0-0.73c0.03-0.45,0.34-0.78,0.76-0.78c0.45,0.01,0.75,0.26,0.79,0.69
		c0.05,0.56,0.05,1.12,0,1.68c-0.03,0.45-0.4,0.73-0.83,0.69c-0.45-0.04-0.69-0.31-0.72-0.75C29.24,42.17,29.25,41.91,29.25,41.65z"
		/>
	<path d="M25.16,36.81c0,0.26,0.02,0.53,0,0.79c-0.04,0.44-0.29,0.71-0.74,0.73c-0.46,0.02-0.76-0.23-0.8-0.66
		c-0.05-0.57-0.05-1.16,0-1.73c0.04-0.43,0.36-0.69,0.81-0.66c0.44,0.03,0.7,0.29,0.74,0.74C25.17,36.29,25.16,36.55,25.16,36.81z"
		/>
	<path d="M13.85,41.62c0,0.28,0.02,0.56,0,0.84c-0.04,0.45-0.38,0.74-0.81,0.73c-0.43-0.01-0.74-0.31-0.76-0.77
		c-0.02-0.51-0.02-1.02,0-1.52c0.02-0.45,0.36-0.77,0.77-0.77c0.41,0,0.75,0.31,0.79,0.76C13.87,41.13,13.85,41.38,13.85,41.62
		C13.85,41.62,13.85,41.62,13.85,41.62z"/>
	<path d="M25.16,41.66c0,0.26,0.02,0.53,0,0.79c-0.03,0.44-0.28,0.71-0.73,0.74c-0.46,0.03-0.77-0.22-0.81-0.65
		c-0.06-0.57-0.05-1.16,0-1.73c0.04-0.43,0.36-0.69,0.8-0.67c0.44,0.02,0.71,0.29,0.74,0.74C25.17,41.14,25.16,41.4,25.16,41.66z"/>
	<path d="M12.28,36.82c0-0.26-0.02-0.53,0-0.79c0.03-0.45,0.37-0.77,0.78-0.76c0.45,0.02,0.74,0.27,0.77,0.71
		c0.04,0.56,0.05,1.12-0.01,1.68c-0.04,0.43-0.34,0.69-0.8,0.67c-0.45-0.02-0.71-0.28-0.75-0.73
		C12.26,37.35,12.28,37.08,12.28,36.82C12.28,36.82,12.28,36.82,12.28,36.82z"/>
	<path d="M12.28,27.11c0-0.26-0.02-0.53,0-0.79c0.03-0.44,0.29-0.71,0.73-0.75c0.42-0.04,0.8,0.26,0.83,0.7
		c0.04,0.56,0.05,1.12-0.01,1.68c-0.04,0.43-0.34,0.69-0.8,0.67c-0.45-0.02-0.71-0.28-0.75-0.73
		C12.26,27.64,12.28,27.38,12.28,27.11C12.28,27.11,12.28,27.11,12.28,27.11z"/>
	<path d="M29.25,36.79c0-0.24-0.01-0.49,0-0.73c0.02-0.45,0.28-0.72,0.71-0.76c0.44-0.04,0.78,0.2,0.82,0.64
		c0.06,0.59,0.06,1.19,0,1.78c-0.04,0.43-0.37,0.67-0.82,0.63c-0.45-0.04-0.69-0.31-0.71-0.76C29.24,37.31,29.25,37.05,29.25,36.79z
		"/>
	<path d="M12.28,31.94c0-0.26-0.02-0.53,0.01-0.79c0.04-0.44,0.31-0.71,0.75-0.73c0.45-0.02,0.76,0.24,0.8,0.68
		c0.05,0.56,0.04,1.12,0.01,1.68c-0.03,0.45-0.4,0.74-0.83,0.7c-0.45-0.04-0.69-0.31-0.73-0.75C12.26,32.47,12.28,32.21,12.28,31.94
		z"/>
	<path d="M25.16,31.96c0,0.26,0.02,0.53,0,0.79c-0.04,0.44-0.29,0.71-0.74,0.74c-0.46,0.03-0.76-0.23-0.81-0.66
		c-0.06-0.57-0.06-1.16,0-1.73c0.04-0.43,0.36-0.69,0.81-0.66c0.44,0.03,0.7,0.29,0.74,0.74C25.17,31.43,25.16,31.69,25.16,31.96z"
		/>
	<path d="M17.95,27.07c0-0.28-0.03-0.56,0.01-0.84c0.05-0.42,0.33-0.65,0.75-0.66c0.42-0.01,0.73,0.22,0.76,0.64
		c0.05,0.59,0.05,1.19,0,1.78c-0.03,0.42-0.35,0.64-0.77,0.63c-0.42-0.01-0.69-0.24-0.74-0.67C17.92,27.67,17.95,27.37,17.95,27.07z
		"/>
	<path d="M19.49,32.03c0,0.26,0.03,0.53-0.01,0.78c-0.06,0.44-0.34,0.68-0.79,0.67c-0.42-0.01-0.7-0.26-0.73-0.68
		c-0.04-0.56-0.04-1.12,0-1.68c0.03-0.45,0.33-0.7,0.77-0.7c0.44,0,0.72,0.26,0.77,0.71C19.52,31.43,19.5,31.73,19.49,32.03
		C19.49,32.03,19.49,32.03,19.49,32.03z"/>
	<path d="M19.5,36.8c0,0.28,0.03,0.56-0.01,0.84c-0.05,0.44-0.31,0.7-0.77,0.7c-0.45,0-0.74-0.25-0.77-0.69
		c-0.03-0.56-0.03-1.12,0-1.68c0.03-0.42,0.32-0.67,0.73-0.68c0.44-0.02,0.73,0.23,0.79,0.67C19.52,36.23,19.49,36.52,19.5,36.8
		C19.49,36.8,19.49,36.8,19.5,36.8z"/>
	<path d="M19.53,41.67c-0.01,0.3,0,0.6-0.05,0.89c-0.07,0.42-0.35,0.64-0.77,0.63c-0.43-0.01-0.71-0.24-0.74-0.66
		c-0.04-0.57-0.04-1.15,0-1.73c0.03-0.42,0.34-0.66,0.75-0.66c0.41-0.01,0.7,0.23,0.77,0.65C19.52,41.08,19.51,41.38,19.53,41.67z"
		/>
	<path d="M41.4,42c0-0.24,0-0.43,0-0.62c0.01-1.32,0.01-2.63,0.04-3.95c0.02-1.05,0.67-1.6,1.67-1.46c3.37,0.48,5.91,3.35,5.97,6.73
		c0.06,3.36-2.42,6.29-5.8,6.88c-3.72,0.65-7.55-2.22-7.91-5.92c-0.1-1.08,0.42-1.66,1.51-1.66c1.3-0.01,2.6,0,3.9,0
		C40.96,42,41.15,42,41.4,42z M37,43.58c0.11,1.95,2.22,4.7,5.57,4.48c2.84-0.19,5.14-2.79,4.91-5.57c-0.21-2.54-2.49-5.03-4.5-4.84
		c0,1.48,0.01,2.98,0,4.47c-0.01,0.84-0.49,1.37-1.29,1.45c-0.21,0.02-0.42,0.01-0.63,0.01C39.71,43.58,38.35,43.58,37,43.58z"/>
</g>
</svg>
