<?xml version="1.0" encoding="utf-8"?>
<!-- Generator: Adobe Illustrator 26.0.1, SVG Export Plug-In . SVG Version: 6.00 Build 0)  -->
<svg version="1.1" id="Layer_1" xmlns="http://www.w3.org/2000/svg" xmlns:xlink="http://www.w3.org/1999/xlink" x="0px" y="0px"
	 viewBox="0 0 60 60" style="enable-background:new 0 0 60 60;" xml:space="preserve">
<g>
	<path d="M3,47.22c0.23-0.37,0.54-0.54,1-0.55c1.07-0.04,1.92-0.55,2.7-1.27c1.95-1.81,4.87-1.91,6.97-0.29
		c0.25,0.19,0.47,0.42,0.71,0.63c1.51,1.29,3.61,1.26,5.11-0.05c0.41-0.36,0.86-0.66,1.28-1.01c0.12-0.1,0.24-0.27,0.24-0.41
		c0.01-2.25,0-4.51,0-6.76c0-0.03-0.03-0.06-0.06-0.14c-0.17-0.01-0.35-0.02-0.54-0.02c-1.63,0-3.27,0-4.9,0
		c-0.45,0-0.8-0.13-0.91-0.62c-0.12-0.53,0.22-0.94,0.83-0.96c0.9-0.02,1.79-0.01,2.69-0.01c0.95,0,1.89,0,2.91,0
		c0-0.91-0.01-1.77,0-2.63c0.06-3.13,2.1-5.87,5.06-6.83c3.17-1.03,6.63,0.2,8.45,3c0.12,0.19,0.24,0.39,0.38,0.62
		c0.09-0.13,0.17-0.24,0.24-0.35c1.68-2.56,4.03-3.78,7.1-3.58c0.6,0.04,0.96,0.39,0.91,0.87c-0.05,0.49-0.44,0.75-1.05,0.71
		c-3.61-0.24-6.4,2.37-6.4,5.99c0,3.29,0,6.59,0,9.88c0,0.17,0,0.35,0,0.55c0.57,0,1.11,0,1.73,0c0-0.19,0-0.39,0-0.59
		c0-3.29-0.01-6.59,0-9.88c0.01-2.16,1.25-3.75,3.23-4.18c2.37-0.52,4.72,1.25,4.85,3.68c0.05,0.89,0.01,1.79,0.01,2.71
		c0.62,0,1.15,0,1.71,0c0.18-2.62,0.14-5.12-2.14-6.95c-0.41-0.33-0.44-0.81-0.13-1.16c0.3-0.34,0.76-0.36,1.17-0.01
		c1.78,1.48,2.67,3.41,2.72,5.72c0.02,0.79,0,1.58,0,2.44c0.25,0,0.46,0,0.66,0c2.07,0,4.15,0,6.22,0c0.19,0,0.39,0,0.58,0.03
		c0.44,0.07,0.69,0.36,0.67,0.8c-0.02,0.42-0.27,0.68-0.69,0.73c-0.19,0.02-0.39,0.02-0.58,0.02c-5.31,0-10.62,0-15.93,0
		c-0.23,0-0.45,0-0.73,0c-0.02,0.21-0.04,0.38-0.04,0.54c0,2.06,0,4.12-0.01,6.18c0,0.33,0.07,0.55,0.38,0.73
		c0.36,0.21,0.69,0.49,1,0.77c1.61,1.47,3.8,1.54,5.37,0.02c2.19-2.11,5.62-2.17,7.82,0.05c0.67,0.68,1.52,0.99,2.47,1.05
		c0.62,0.04,0.97,0.34,0.95,0.82c-0.02,0.5-0.42,0.8-1.06,0.75c-1.39-0.09-2.56-0.64-3.58-1.59c-1.29-1.21-2.94-1.46-4.43-0.69
		c-0.37,0.19-0.72,0.45-1.02,0.74c-2.11,2.02-5.58,2.07-7.66-0.04c-1.54-1.55-3.79-1.5-5.4-0.01c-2.31,2.14-5.28,2.16-7.64,0.05
		c-1.71-1.53-3.8-1.54-5.51-0.02c-2.36,2.11-5.32,2.1-7.65-0.03c-1.64-1.5-3.78-1.52-5.41,0c-0.95,0.88-2.03,1.42-3.32,1.58
		c-0.54,0.07-1.02,0.02-1.33-0.5C3,47.57,3,47.4,3,47.22z M34.12,35.72c0-0.93,0.02-1.82,0-2.71c-0.11-3.42-3.56-6.1-6.9-5.38
		c-2.74,0.59-4.59,2.85-4.61,5.71c-0.02,3.41-0.01,6.83-0.01,10.24c0,0.14,0.02,0.27,0.03,0.41c0.56,0,1.1,0,1.68,0
		c0-0.2,0-0.39,0-0.58c0-3.34,0-6.69,0-10.03c0-1.37,0.53-2.51,1.63-3.33c1.3-0.96,2.72-1.1,4.18-0.41c1.45,0.7,2.21,1.92,2.3,3.52
		c0.04,0.84,0.01,1.68,0.01,2.55C33,35.72,33.52,35.72,34.12,35.72z M30.84,35.72c0-0.88,0.02-1.69,0-2.49
		c-0.04-1.27-1.02-2.31-2.23-2.39c-1.33-0.09-2.49,0.73-2.65,2.03c-0.12,0.93-0.02,1.89-0.02,2.85
		C27.56,35.72,29.17,35.72,30.84,35.72z M43.94,35.72c0.01-0.19,0.02-0.31,0.02-0.43c0-0.72,0.02-1.44-0.02-2.16
		c-0.05-1.13-0.91-2.08-2-2.27c-1.14-0.2-2.29,0.38-2.7,1.45c-0.43,1.11-0.15,2.27-0.22,3.42C40.71,35.72,42.3,35.72,43.94,35.72z
		 M34.08,43.95c-2.74,0-5.45,0-8.15,0c-0.13,0.41,0,0.63,0.35,0.84c0.4,0.24,0.76,0.56,1.12,0.87c1.53,1.35,3.64,1.37,5.18,0.03
		c0.37-0.32,0.74-0.66,1.15-0.91C34.06,44.57,34.23,44.36,34.08,43.95z M25.9,39c2.76,0,5.47,0,8.2,0c0-0.56,0-1.08,0-1.62
		c-2.75,0-5.47,0-8.2,0C25.9,37.94,25.9,38.44,25.9,39z M25.92,42.29c2.75,0,5.46,0,8.17,0c0-0.57,0-1.1,0-1.64
		c-2.74,0-5.44,0-8.17,0C25.92,41.2,25.92,41.72,25.92,42.29z"/>
	<path d="M3,52.72c0.23-0.37,0.54-0.54,1-0.55c1.07-0.03,1.92-0.56,2.7-1.27c1.79-1.64,4.44-1.88,6.49-0.61
		c0.31,0.19,0.6,0.43,0.88,0.67c1.79,1.62,3.82,1.63,5.62,0.03c1.94-1.72,4.51-2,6.62-0.7c0.25,0.16,0.48,0.36,0.72,0.53
		c0.51,0.36,1.02,0.74,1.55,1.08c0.45,0.28,0.63,0.69,0.42,1.1c-0.19,0.39-0.65,0.57-1.08,0.33c-0.61-0.34-1.22-0.71-1.74-1.16
		c-1.68-1.46-3.76-1.49-5.43,0c-2.4,2.14-5.36,2.13-7.73-0.03c-1.58-1.44-3.76-1.45-5.34,0c-0.96,0.89-2.05,1.45-3.36,1.61
		c-0.54,0.07-1.02,0.02-1.32-0.5C3,53.07,3,52.89,3,52.72z"/>
	<path d="M3,36.23c0.3-0.4,0.71-0.49,1.2-0.49c2.44,0.01,4.88,0.01,7.32,0.01c0.14,0,0.28,0,0.42,0.02c0.46,0.06,0.76,0.39,0.75,0.8
		c-0.01,0.41-0.33,0.74-0.8,0.75c-0.81,0.02-1.62,0.01-2.42,0.01c-1.77,0-3.55-0.01-5.32,0.01c-0.47,0.01-0.86-0.1-1.15-0.48
		C3,36.65,3,36.44,3,36.23z"/>
	<path d="M36.51,49.48c1.54,0.02,2.82,0.57,3.93,1.61c1.21,1.13,2.63,1.38,4.15,0.76c0.49-0.2,0.94-0.55,1.34-0.91
		c2.18-1.95,5.31-1.96,7.46,0.03c0.8,0.74,1.69,1.17,2.78,1.22c0.52,0.02,0.85,0.38,0.82,0.84c-0.03,0.45-0.39,0.75-0.92,0.74
		c-1.45-0.05-2.67-0.62-3.73-1.61c-1.27-1.18-2.92-1.43-4.39-0.68c-0.39,0.19-0.74,0.47-1.06,0.77c-2.22,2.01-5.28,2.03-7.51,0.04
		c-1.84-1.64-3.81-1.63-5.67-0.01c-0.48,0.42-1.06,0.75-1.62,1.06c-0.43,0.23-0.87,0.04-1.06-0.36c-0.19-0.4-0.03-0.79,0.4-1.07
		c0.54-0.35,1.08-0.71,1.58-1.12C34.04,49.93,35.22,49.51,36.51,49.48z"/>
	<path d="M13.65,11.16c2.25,0.01,4.03,1.83,4.02,4.08c-0.01,2.24-1.83,4.06-4.06,4.06c-2.24,0-4.09-1.88-4.06-4.13
		C9.57,12.94,11.41,11.14,13.65,11.16z M13.61,12.74c-1.37,0-2.48,1.12-2.48,2.49c0.01,1.36,1.15,2.49,2.5,2.49
		c1.37-0.01,2.47-1.12,2.47-2.5C16.09,13.83,14.99,12.74,13.61,12.74z"/>
	<path d="M18.23,19.09c0.51-0.01,2.01,1.42,1.95,1.93c-0.03,0.24-0.2,0.55-0.41,0.66c-0.2,0.11-0.61,0.11-0.77-0.02
		c-0.51-0.42-1.01-0.89-1.41-1.41C17.22,19.78,17.63,19.1,18.23,19.09z"/>
	<path d="M9.82,10.69c-0.13,0.16-0.26,0.48-0.47,0.54c-0.26,0.08-0.67,0.06-0.87-0.1c-0.47-0.36-0.87-0.81-1.26-1.25
		c-0.26-0.3-0.24-0.66,0.01-0.96c0.25-0.31,0.64-0.43,0.93-0.19c0.55,0.45,1.03,0.99,1.52,1.5C9.75,10.31,9.75,10.46,9.82,10.69z"/>
	<path d="M14.4,7.87c0,0.26,0.01,0.53,0,0.79c-0.03,0.47-0.34,0.78-0.76,0.78c-0.45-0.01-0.76-0.26-0.79-0.69
		c-0.05-0.61-0.05-1.23,0-1.84c0.04-0.43,0.36-0.69,0.8-0.67c0.44,0.02,0.71,0.29,0.74,0.74C14.42,7.27,14.4,7.57,14.4,7.87z"/>
	<path d="M14.4,22.62c0,0.28,0.02,0.56,0,0.84c-0.03,0.45-0.29,0.71-0.74,0.73c-0.46,0.02-0.76-0.23-0.8-0.67
		c-0.05-0.61-0.05-1.23-0.01-1.84c0.03-0.45,0.42-0.73,0.84-0.68c0.44,0.05,0.69,0.32,0.71,0.77C14.41,22.06,14.4,22.34,14.4,22.62
		C14.4,22.62,14.4,22.62,14.4,22.62z"/>
	<path d="M19.5,8.57c0.19,0.15,0.49,0.27,0.57,0.48c0.09,0.24,0.09,0.63-0.05,0.82c-0.37,0.48-0.82,0.91-1.29,1.31
		c-0.33,0.29-0.73,0.24-1.05-0.07c-0.28-0.28-0.34-0.66-0.09-0.96c0.42-0.49,0.9-0.94,1.37-1.38C19.07,8.68,19.25,8.66,19.5,8.57z"
		/>
	<path d="M6.27,14.45c0.28,0,0.56-0.01,0.84,0c0.43,0.03,0.68,0.28,0.73,0.69c0.05,0.42-0.16,0.78-0.57,0.82
		c-0.67,0.07-1.36,0.07-2.04,0c-0.41-0.04-0.61-0.39-0.58-0.81c0.04-0.42,0.29-0.67,0.72-0.7C5.67,14.43,5.97,14.45,6.27,14.45z"/>
	<path d="M21.02,14.45c0.28,0,0.56-0.01,0.84,0c0.43,0.03,0.68,0.29,0.72,0.7c0.04,0.41-0.17,0.77-0.59,0.81
		c-0.67,0.06-1.36,0.06-2.04,0c-0.41-0.04-0.62-0.4-0.57-0.82c0.05-0.41,0.3-0.67,0.73-0.69C20.43,14.43,20.73,14.44,21.02,14.45z"
		/>
	<path d="M7.7,21.81c-0.16-0.12-0.47-0.26-0.57-0.48c-0.09-0.21-0.05-0.59,0.09-0.76c0.39-0.49,0.85-0.93,1.33-1.34
		c0.29-0.25,0.72-0.24,0.94,0.07c0.17,0.23,0.3,0.71,0.18,0.88c-0.43,0.56-0.97,1.04-1.48,1.54C8.11,21.78,7.95,21.76,7.7,21.81z"/>
</g>
</svg>
