<?xml version="1.0" encoding="utf-8"?>
<!-- Generator: Adobe Illustrator 26.0.1, SVG Export Plug-In . SVG Version: 6.00 Build 0)  -->
<svg version="1.1" id="Layer_1" xmlns="http://www.w3.org/2000/svg" xmlns:xlink="http://www.w3.org/1999/xlink" x="0px" y="0px"
	 viewBox="0 0 60 60" style="enable-background:new 0 0 60 60;" xml:space="preserve">
<g>
	<path d="M57,48.14c-0.23,0.66-0.37,1.36-0.7,1.96c-1.03,1.91-2.68,2.91-4.84,3.07c-0.17,0.01-0.35,0.01-0.53,0.01
		c-13.95,0-27.91,0-41.86,0c-2.94,0-5.23-1.72-5.89-4.45c-0.12-0.49-0.17-1.01-0.17-1.51C3,37.07,3,26.91,3,16.75
		c0-3.44,2.45-5.91,5.89-5.97c0.61-0.01,1.23,0,1.93,0c0-0.53-0.02-1.04,0-1.53c0.06-1.28,0.97-2.25,2.23-2.42
		c1.14-0.15,2.3,0.6,2.64,1.74c0.1,0.33,0.11,0.69,0.13,1.04c0.02,0.37,0,0.73,0,1.14c9.46,0,18.87,0,28.35,0
		c0-0.44-0.01-0.85,0-1.27c0.03-1.55,1.1-2.68,2.53-2.66c1.42,0.02,2.46,1.15,2.47,2.67c0,0.4,0,0.81,0,1.3c0.67,0,1.31-0.01,1.96,0
		c2.2,0.02,3.91,0.95,5.02,2.84c0.4,0.68,0.57,1.49,0.84,2.25C57,26.63,57,37.38,57,48.14z M55.5,22.8c-17.03,0-34.02,0-51.03,0
		c0,0.2,0,0.36,0,0.51c0,7.96,0,15.92,0,23.88c0,2.65,1.85,4.51,4.51,4.51c14.01,0,28.01,0,42.02-0.01c0.45,0,0.92-0.05,1.35-0.17
		c1.92-0.54,3.15-2.19,3.16-4.23c0.01-8.03,0-16.06,0-24.1C55.52,23.08,55.51,22.96,55.5,22.8z M49.18,12.22
		c0,0.57,0.01,1.04,0,1.51c-0.04,1.11-0.71,2.02-1.72,2.35c-1.61,0.53-3.18-0.6-3.27-2.35c-0.03-0.48,0-0.96,0-1.43
		c-9.51,0-18.92,0-28.31,0c-0.05,0.71-0.01,1.39-0.15,2.04c-0.25,1.2-1.44,1.97-2.71,1.84c-1.21-0.12-2.15-1.16-2.19-2.45
		c-0.02-0.48,0-0.97,0-1.48c-0.73,0-1.38-0.01-2.03,0c-2.49,0.06-4.29,1.89-4.31,4.38c-0.01,1.39,0,2.78,0,4.16
		c0,0.15,0.02,0.3,0.03,0.45c17.02,0,33.99,0,50.94,0c0-1.83,0.15-3.65-0.04-5.43c-0.2-1.87-1.45-3.07-3.3-3.44
		C51.18,12.19,50.2,12.26,49.18,12.22z M12.3,11.49c0,0.68-0.01,1.37,0,2.05c0.01,0.72,0.39,1.16,1,1.18
		c0.61,0.01,1.04-0.42,1.05-1.13c0.02-1.39,0.02-2.77,0-4.16c-0.01-0.7-0.46-1.16-1.05-1.13c-0.57,0.02-0.98,0.48-1,1.14
		C12.29,10.12,12.3,10.8,12.3,11.49z M47.71,11.52c0-0.7,0.01-1.4,0-2.11c-0.01-0.66-0.44-1.11-1.01-1.12
		c-0.58-0.01-1.02,0.44-1.03,1.1c-0.02,1.4-0.02,2.81,0,4.21c0.01,0.68,0.42,1.1,1.01,1.11c0.62,0,1.02-0.43,1.04-1.14
		C47.72,12.89,47.71,12.21,47.71,11.52z"/>
	<path d="M30.03,25.92C36.4,26,41.38,31.1,41.29,37.48c-0.08,6.09-5.24,11.13-11.32,11.07c-6.38-0.07-11.34-5.17-11.26-11.55
		C18.79,30.9,23.95,25.85,30.03,25.92z M30.02,27.41c-5.54,0.03-9.88,4.43-9.84,9.96c0.03,5.36,4.5,9.74,9.9,9.7
		c5.38-0.04,9.77-4.48,9.74-9.86C39.79,31.78,35.38,27.38,30.02,27.41z"/>
	<path d="M29.53,40.45c1.05-1.82,2.09-3.61,3.12-5.41c0.44-0.76,0.87-1.52,1.32-2.28c0.28-0.48,0.71-0.63,1.09-0.4
		c0.38,0.23,0.46,0.66,0.17,1.15c-1.57,2.72-3.14,5.44-4.71,8.16c-0.33,0.57-0.66,0.66-1.22,0.34c-1.42-0.81-2.83-1.62-4.24-2.44
		c-0.45-0.26-0.59-0.67-0.38-1.06c0.21-0.39,0.65-0.48,1.14-0.21C27.05,39.02,28.27,39.73,29.53,40.45z"/>
</g>
</svg>
