<?xml version="1.0" encoding="utf-8"?>
<!-- Generator: Adobe Illustrator 26.0.1, SVG Export Plug-In . SVG Version: 6.00 Build 0)  -->
<svg version="1.1" id="Layer_1" xmlns="http://www.w3.org/2000/svg" xmlns:xlink="http://www.w3.org/1999/xlink" x="0px" y="0px"
	 viewBox="0 0 60 60" style="enable-background:new 0 0 60 60;" xml:space="preserve">
<g>
	<path d="M57,24.61c-0.2,0.87-0.37,1.75-0.6,2.6c-2.09,7.54-8.46,13.02-16.24,13.89c-5.47,0.62-10.34-0.89-14.58-4.4
		c-0.14-0.11-0.27-0.23-0.36-0.3c-0.65,0.65-1.29,1.29-1.98,1.99c0.37,0.72,0.59,1.59,0.42,2.53c-0.15,0.82-0.51,1.53-1.1,2.12
		c-4.27,4.27-8.53,8.55-12.82,12.81c-1.62,1.61-4.03,1.61-5.58,0.04c-1.56-1.58-1.54-3.96,0.08-5.58c4.24-4.25,8.49-8.5,12.74-12.74
		c1.28-1.28,2.87-1.56,4.51-0.82c0.26,0.12,0.4,0.08,0.58-0.11c0.73-0.74,1.46-1.48,2.2-2.21c0.6-0.59,1.07-0.6,1.69-0.01
		c2.68,2.58,5.85,4.2,9.54,4.69c5.59,0.75,10.51-0.78,14.5-4.75c4.74-4.72,6.31-10.5,4.51-16.93c-1.8-6.41-6.15-10.48-12.61-12.1
		c-9.62-2.41-19.5,4.29-20.94,14.09c-0.56,3.82,0.05,7.43,1.85,10.83c0.11,0.21,0.23,0.44,0.27,0.68c0.07,0.45-0.22,0.88-0.66,1.02
		c-0.49,0.15-0.91-0.01-1.13-0.45c-0.49-0.99-1.01-1.98-1.37-3.02c-3.88-11.09,2.87-22.9,14.4-25.19c0.76-0.15,1.52-0.24,2.29-0.35
		c0.92,0,1.83,0,2.75,0c0.41,0.06,0.83,0.12,1.24,0.19c8.1,1.41,13.37,6.06,15.82,13.9c0.26,0.85,0.4,1.74,0.59,2.61
		C57,21.3,57,22.95,57,24.61z M4.82,53.09c0.23,0.48,0.35,0.94,0.62,1.28c0.77,0.97,2.05,0.97,2.99,0.03
		c3.01-3.01,6.02-6.02,9.04-9.03c1.24-1.24,2.5-2.48,3.73-3.74c0.81-0.83,0.77-2.01-0.03-2.78c-0.79-0.76-1.95-0.77-2.75,0.03
		c-4.3,4.28-8.59,8.57-12.87,12.89C5.22,52.1,5.07,52.62,4.82,53.09z"/>
	<path d="M24.06,22.07c0.06-7.05,5.25-12.99,12.26-13.8c5.14-0.59,9.39,1.24,12.68,5.25c0.3,0.37,0.48,0.8,0.18,1.2
		c-0.18,0.25-0.57,0.51-0.84,0.48c-0.33-0.03-0.71-0.3-0.93-0.57c-1.56-1.93-3.51-3.28-5.88-4.03c-7.11-2.25-14.65,2.62-15.52,10.02
		c-0.89,7.61,5.24,14.02,12.88,13.48c5.79-0.41,10.55-5.13,11.04-10.93c0.14-1.64-0.05-3.23-0.54-4.79
		c-0.23-0.72,0.11-1.32,0.76-1.39c0.54-0.06,0.91,0.21,1.11,0.84c0.92,2.95,0.91,5.9-0.11,8.82c-1.97,5.68-7.34,9.44-13.35,9.37
		c-6.86-0.08-12.7-5.26-13.59-12.05C24.14,23.33,24.11,22.7,24.06,22.07z"/>
</g>
</svg>
