<?xml version="1.0" encoding="utf-8"?>
<!-- Generator: Adobe Illustrator 26.0.1, SVG Export Plug-In . SVG Version: 6.00 Build 0)  -->
<svg version="1.1" id="Layer_1" xmlns="http://www.w3.org/2000/svg" xmlns:xlink="http://www.w3.org/1999/xlink" x="0px" y="0px"
	 viewBox="0 0 60 60" style="enable-background:new 0 0 60 60;" xml:space="preserve">
<g>
	<path d="M32.43,3.05c0.4,0.27,0.53,0.64,0.52,1.12c-0.01,1.8,0.02,3.61,0.03,5.41c0,0.11,0,0.21,0,0.32
		c-0.01,0.43-0.18,0.75-0.61,0.89c-0.43,0.14-0.76-0.04-1-0.38c-0.77-1.1-1.54-2.22-2.3-3.32c-0.12-0.17-0.24-0.33-0.47-0.48
		c0,0.37,0,0.75,0,1.12c0,0.79,0.02,1.58-0.01,2.36c-0.02,0.5-0.35,0.81-0.79,0.81c-0.45,0-0.77-0.31-0.77-0.82
		c-0.01-2.07-0.03-4.13,0.02-6.2c0.01-0.28,0.34-0.55,0.53-0.82c0.14,0,0.28,0,0.42,0c0.21,0.2,0.46,0.38,0.62,0.61
		c0.82,1.15,1.61,2.32,2.42,3.49c0.08,0.12,0.18,0.22,0.32,0.39c0-1.2,0.02-2.3-0.01-3.4c-0.01-0.48,0.11-0.85,0.55-1.09
		C32.08,3.05,32.25,3.05,32.43,3.05z"/>
	<path d="M56.95,33.36c-0.25,0.42-0.62,0.56-1.11,0.53c-0.72-0.03-1.43,0-2.15-0.01c-0.64-0.01-0.94-0.29-0.94-0.93
		c-0.01-1.98-0.01-3.96,0-5.93c0-0.64,0.3-0.92,0.94-0.93c0.72-0.01,1.44,0.02,2.15-0.01c0.48-0.02,0.85,0.12,1.11,0.53
		c0,0.18,0,0.35,0,0.53c-0.26,0.41-0.62,0.56-1.11,0.53c-0.5-0.03-1-0.01-1.49-0.01c0,0.55,0,1.01,0,1.53c0.47,0,0.9-0.01,1.33,0
		c0.19,0,0.45-0.03,0.56,0.07c0.21,0.22,0.44,0.51,0.47,0.78c0.04,0.41-0.28,0.68-0.7,0.7c-0.55,0.03-1.1,0.01-1.66,0.01
		c0,0.57,0,1.03,0,1.54c0.52,0,1,0.02,1.49-0.01c0.48-0.03,0.85,0.12,1.11,0.53C56.95,33.01,56.95,33.19,56.95,33.36z"/>
	<path d="M56.95,4.1c-1.11,1.13-2.23,2.27-3.34,3.4c-0.44,0.45-0.88,0.9-1.34,1.33c-0.35,0.33-0.83,0.31-1.13-0.01
		c-0.28-0.3-0.3-0.76,0.02-1.09c1.49-1.51,2.99-3,4.49-4.49c0.07-0.07,0.16-0.13,0.24-0.19c0.35,0,0.7,0,1.05,0
		C56.95,3.4,56.95,3.75,56.95,4.1z"/>
	<path d="M4.11,3.05C4.95,3.87,5.79,4.68,6.63,5.5c0.72,0.71,1.44,1.43,2.15,2.16C9.16,8.05,9.18,8.5,8.86,8.83
		c-0.32,0.33-0.8,0.33-1.17-0.04C6.24,7.35,4.78,5.9,3.34,4.44c-0.47-0.48-0.38-0.9,0.24-1.39C3.76,3.05,3.94,3.05,4.11,3.05z"/>
	<path d="M56.95,56.42c-0.54,0.68-0.93,0.71-1.54,0.1c-1.39-1.39-2.77-2.78-4.17-4.16c-0.29-0.29-0.45-0.65-0.21-0.98
		c0.16-0.22,0.49-0.33,0.77-0.42c0.11-0.04,0.32,0.07,0.42,0.17c1.58,1.59,3.16,3.18,4.73,4.77C56.95,56.07,56.95,56.24,56.95,56.42
		z"/>
	<path d="M15.57,30.06c2.21,0.54,4.42,1.08,6.63,1.62c1.31,0.32,2.62,0.65,3.93,0.95c0.7,0.16,1.08,0.56,1.24,1.25
		c0.83,3.46,1.68,6.91,2.52,10.36c0.02,0.07,0.04,0.13,0.11,0.36c0.09-0.3,0.15-0.47,0.19-0.64c0.82-3.35,1.64-6.7,2.44-10.06
		c0.17-0.72,0.56-1.12,1.28-1.28c1.35-0.3,2.69-0.65,4.04-0.97c0.55-0.13,0.95,0.09,1.07,0.56c0.11,0.43-0.15,0.8-0.67,0.96
		c-0.25,0.07-0.5,0.14-0.81,0.22c0.18,0.3,0.34,0.57,0.5,0.84c1.03,1.69,2.06,3.38,3.09,5.08c0.37,0.62,0.35,1.14-0.05,1.6
		c-0.45,0.53-1.07,0.6-1.75,0.19c-1.73-1.04-3.45-2.09-5.17-3.14c-0.22-0.14-0.45-0.27-0.75-0.45c-0.15,0.61-0.3,1.18-0.44,1.74
		c-0.55,2.26-1.1,4.53-1.66,6.79c-0.21,0.84-0.61,1.22-1.28,1.22c-0.68,0.01-1.1-0.37-1.3-1.2c-0.66-2.69-1.31-5.38-1.97-8.06
		c-0.03-0.13-0.08-0.27-0.13-0.47c-0.19,0.11-0.35,0.19-0.5,0.28c-1.8,1.09-3.59,2.19-5.39,3.28c-0.71,0.43-1.33,0.35-1.79-0.21
		c-0.38-0.46-0.39-0.97-0.01-1.6c1.08-1.78,2.17-3.56,3.25-5.35c0.1-0.16,0.19-0.33,0.32-0.55c-1.2-0.29-2.35-0.57-3.5-0.86
		c-1.7-0.42-3.4-0.83-5.1-1.25c-0.77-0.19-1.15-0.63-1.14-1.29c0.01-0.66,0.39-1.07,1.18-1.26c3.76-0.92,7.52-1.83,11.28-2.75
		c0.36-0.09,0.65-0.16,0.75-0.64c0.25-1.23,0.29-1.22-0.79-1.87c-1.37-0.84-2.75-1.67-4.25-2.59c0.13,0.26,0.18,0.39,0.26,0.51
		c0.6,0.99,1.2,1.98,1.8,2.97c0.32,0.54,0.26,0.98-0.16,1.24c-0.42,0.26-0.86,0.11-1.18-0.42c-0.91-1.49-1.83-2.99-2.73-4.49
		c-0.39-0.64-0.33-1.22,0.15-1.68c0.45-0.44,1.01-0.49,1.64-0.11c1.74,1.05,3.47,2.11,5.21,3.17c0.22,0.14,0.45,0.27,0.74,0.43
		c0.29-1.2,0.57-2.35,0.86-3.5c0.42-1.7,0.83-3.4,1.25-5.1c0.19-0.78,0.62-1.15,1.29-1.15c0.66,0,1.08,0.38,1.27,1.17
		c0.66,2.69,1.32,5.38,1.97,8.06c0.04,0.15,0.08,0.3,0.14,0.52c1.15-0.7,2.27-1.38,3.39-2.06c0.84-0.51,1.67-1.03,2.52-1.53
		c0.65-0.39,1.22-0.35,1.68,0.11c0.46,0.46,0.51,1.03,0.12,1.68c-1.09,1.8-2.18,3.59-3.28,5.39c-0.09,0.15-0.17,0.3-0.29,0.5
		c0.16,0.06,0.3,0.12,0.44,0.15c2.64,0.64,5.28,1.28,7.91,1.92c0.12,0.03,0.24,0.06,0.36,0.09c0.67,0.2,1.03,0.66,1.02,1.29
		c-0.02,0.61-0.38,1.05-1.04,1.22c-1.31,0.33-2.62,0.64-3.93,0.96c-0.31,0.07-0.61,0.15-0.92,0.22c-0.6,0.13-1-0.07-1.13-0.54
		c-0.12-0.46,0.17-0.83,0.77-0.99c1.07-0.27,2.14-0.53,3.21-0.79c0.08-0.02,0.15-0.05,0.23-0.17c-1.06-0.26-2.12-0.52-3.18-0.78
		c-2.48-0.6-4.97-1.21-7.45-1.8c-0.68-0.16-1.04-0.56-1.2-1.23c-0.8-3.36-1.62-6.71-2.44-10.06c-0.04-0.18-0.1-0.35-0.25-0.52
		c-0.29,1.18-0.59,2.36-0.87,3.54c-0.57,2.35-1.15,4.7-1.7,7.05c-0.16,0.7-0.57,1.07-1.26,1.24c-3.36,0.8-6.71,1.62-10.06,2.44
		c-0.16,0.04-0.32,0.1-0.49,0.15C15.57,29.99,15.57,30.03,15.57,30.06z M20.96,38.96c0.02,0.03,0.05,0.06,0.07,0.09
		c1.67-1.01,3.34-2.03,4.99-3.05c0.09-0.06,0.15-0.26,0.13-0.38c-0.24-1.44-0.25-1.44-1.69-1.76c-0.02,0-0.04-0.02-0.05-0.01
		c-0.15,0.06-0.38,0.08-0.45,0.19C22.95,35.67,21.96,37.32,20.96,38.96z M38.97,39.05c0.03-0.02,0.06-0.05,0.09-0.07
		c-0.81-1.34-1.63-2.68-2.44-4.02c-0.75-1.23-0.75-1.23-2.11-0.85c-0.32,0.09-0.84,1.56-0.63,1.82c0.04,0.05,0.11,0.08,0.17,0.12
		C35.69,37.05,37.33,38.05,38.97,39.05z M39.05,21c-0.02-0.02-0.04-0.04-0.06-0.06c-1.68,1.02-3.36,2.04-5.04,3.07
		c-0.08,0.05-0.12,0.24-0.1,0.35c0.24,1.43,0.24,1.41,1.64,1.76c0.36,0.09,0.49-0.02,0.65-0.3c0.89-1.49,1.8-2.96,2.7-4.44
		C38.92,21.27,38.98,21.13,39.05,21z"/>
	<path d="M25.63,54.44c-1.41-0.42-2.85-0.74-4.22-1.27c-7.77-3.04-12.86-8.58-15.25-16.58c-0.03-0.08-0.05-0.17-0.06-0.25
		c-0.09-0.5,0.12-0.88,0.55-0.98c0.45-0.11,0.79,0.1,0.96,0.59c0.43,1.2,0.77,2.45,1.31,3.6c3.38,7.12,8.95,11.52,16.66,13.2
		c0.12,0.03,0.24,0.05,0.36,0.08c0.43,0.14,0.64,0.45,0.56,0.89C26.41,54.13,26.11,54.35,25.63,54.44z"/>
	<path d="M25.56,6.56c-0.05,0.61-0.42,0.79-0.88,0.9c-1.84,0.42-3.6,1.06-5.26,1.94c-5.79,3.07-9.67,7.74-11.62,14.01
		c-0.03,0.1-0.06,0.2-0.09,0.3c-0.18,0.5-0.57,0.72-1.02,0.58c-0.41-0.13-0.64-0.54-0.48-1.02c0.46-1.3,0.86-2.64,1.46-3.87
		c3.45-7.02,8.98-11.5,16.56-13.46c0.42-0.11,0.84-0.21,1.15,0.21C25.48,6.29,25.52,6.47,25.56,6.56z"/>
	<path d="M35.5,5.88c0.28,0.07,0.64,0.14,1,0.24c8.71,2.62,14.47,8.25,17.25,16.91c0.03,0.1,0.06,0.2,0.08,0.3
		c0.09,0.45-0.12,0.84-0.51,0.96c-0.43,0.13-0.82-0.08-0.99-0.54c-0.32-0.89-0.57-1.81-0.95-2.67C48.3,14.09,43.09,9.57,35.72,7.56
		c-0.22-0.06-0.45-0.1-0.65-0.2c-0.36-0.17-0.5-0.49-0.41-0.87C34.74,6.1,35.01,5.89,35.5,5.88z"/>
	<path d="M53.87,36.47c-0.03,0.13-0.06,0.31-0.12,0.47c-2.88,8.9-8.82,14.61-17.85,17.07c-0.69,0.19-1.12,0.01-1.25-0.48
		c-0.13-0.5,0.16-0.85,0.84-1.03c7.3-1.94,12.55-6.32,15.7-13.19c0.45-0.98,0.75-2.03,1.12-3.06c0.14-0.39,0.4-0.61,0.83-0.59
		c0.41,0.03,0.63,0.27,0.71,0.66C53.86,36.36,53.86,36.4,53.87,36.47z"/>
	<path d="M7.19,29.72c-0.35,1.13-0.71,2.27-1.06,3.4C6,33.57,5.75,33.87,5.26,33.9c-0.48,0.03-0.85-0.22-0.95-0.72
		C3.88,31.13,3.47,29.07,3.08,27c-0.09-0.44,0.2-0.82,0.61-0.9c0.46-0.09,0.84,0.16,0.95,0.68C4.86,27.89,5.08,29,5.4,30.13
		c0.07-0.22,0.14-0.45,0.21-0.67c0.28-0.9,0.56-1.8,0.84-2.71c0.12-0.38,0.33-0.66,0.77-0.67c0.46-0.01,0.69,0.26,0.82,0.67
		c0.34,1.13,0.7,2.26,1.14,3.38c0.2-1.01,0.41-2.02,0.61-3.02c0.03-0.14,0.05-0.28,0.09-0.41c0.14-0.45,0.48-0.68,0.9-0.61
		c0.42,0.07,0.69,0.43,0.62,0.89c-0.13,0.81-0.3,1.62-0.46,2.42c-0.24,1.2-0.49,2.4-0.72,3.6c-0.1,0.5-0.35,0.84-0.89,0.88
		c-0.54,0.03-0.84-0.28-0.99-0.77C8,32,7.65,30.87,7.3,29.73C7.27,29.73,7.23,29.73,7.19,29.72z"/>
	<path d="M29.92,56.94c-0.83-0.05-1.72-0.37-2.43-1.09c-0.39-0.39-0.41-0.82-0.08-1.16c0.32-0.34,0.76-0.34,1.16,0.03
		c0.43,0.4,0.93,0.64,1.51,0.63c0.25,0,0.53-0.07,0.75-0.19c0.56-0.3,0.57-0.83,0.01-1.14c-0.49-0.27-1.03-0.44-1.54-0.66
		c-0.34-0.15-0.7-0.27-0.98-0.49c-0.69-0.51-0.91-1.24-0.72-2.06c0.21-0.91,0.86-1.43,1.74-1.64c1.08-0.25,2.05,0.04,2.92,0.69
		c0.41,0.3,0.47,0.74,0.21,1.11c-0.26,0.36-0.7,0.44-1.12,0.16c-0.5-0.33-1.03-0.57-1.63-0.41c-0.23,0.06-0.47,0.3-0.56,0.51
		c-0.04,0.1,0.24,0.41,0.44,0.51c0.47,0.24,0.97,0.4,1.46,0.6c1.31,0.54,1.95,1.51,1.72,2.61C32.54,56.15,31.43,56.96,29.92,56.94z"
		/>
	<path d="M3.98,56.94c-0.69,0.01-1.08-0.59-0.84-1.1c0.05-0.11,0.13-0.21,0.21-0.3c1.45-1.45,2.9-2.9,4.35-4.35
		c0.11-0.11,0.25-0.2,0.4-0.24c0.36-0.09,0.67,0.02,0.86,0.35c0.2,0.34,0.16,0.68-0.12,0.96c-1.47,1.48-2.94,2.96-4.43,4.42
		C4.28,56.83,4.07,56.89,3.98,56.94z"/>
</g>
</svg>
