<?xml version="1.0" encoding="utf-8"?>
<!-- Generator: Adobe Illustrator 26.0.1, SVG Export Plug-In . SVG Version: 6.00 Build 0)  -->
<svg version="1.1" id="Layer_1" xmlns="http://www.w3.org/2000/svg" xmlns:xlink="http://www.w3.org/1999/xlink" x="0px" y="0px"
	 viewBox="0 0 60 60" style="enable-background:new 0 0 60 60;" xml:space="preserve">
<g>
	<path d="M30.52,3c1.12,0.3,2.08,0.82,2.66,1.88c0.38,0.7,0.57,1.43,0.42,2.23c-0.05,0.3,0.02,0.47,0.3,0.63
		c3.18,1.8,4.54,4.6,4.42,8.19c-0.02,0.65-0.41,0.97-1.07,0.92c-0.24-0.02-0.48-0.03-0.81-0.06c0.18,2.44-0.47,4.54-2.39,6.1
		c-1.2,0.98-2.59,1.46-4.14,1.44c-1.98-0.03-3.61-0.82-4.89-2.32c-1.27-1.49-1.63-3.26-1.49-5.21c-0.34,0-0.62,0.01-0.89,0
		c-0.64-0.02-0.97-0.34-0.99-0.98c-0.1-3.55,1.28-6.29,4.41-8.1c0.15-0.09,0.33-0.35,0.31-0.5c-0.34-2.04,1.17-3.86,2.95-4.15
		c0.05-0.01,0.09-0.05,0.14-0.07C29.82,3,30.17,3,30.52,3z M25.15,16.65c0.14,0.96,0.15,1.91,0.44,2.77
		c0.67,1.98,2.16,3.04,4.23,3.14c1.82,0.09,3.24-0.72,4.22-2.28c0.77-1.23,0.7-2.61,0.68-3.98c0-0.11-0.12-0.24-0.22-0.32
		c-0.55-0.46-1.12-0.9-1.65-1.38c-0.22-0.2-0.37-0.2-0.64-0.1c-1.51,0.56-3.02,1.12-4.55,1.61C26.9,16.35,26.09,16.45,25.15,16.65z
		 M36.58,14.99c-0.15-2.63-1.3-4.57-3.54-5.73c-2.49-1.29-4.94-1.03-7.15,0.69c-1.61,1.26-2.44,2.96-2.45,5.05
		c3.08-0.18,5.9-0.97,8.57-2.37c0.85-0.45,1.09-0.39,1.7,0.34C34.47,13.86,35.31,14.63,36.58,14.99z M31.89,6.82
		c0.07-0.7-0.21-1.3-0.83-1.74c-0.62-0.43-1.51-0.43-2.13,0c-0.62,0.44-0.91,1.03-0.83,1.73C29.38,6.82,30.61,6.82,31.89,6.82z"/>
	<path d="M49.21,44.26c1.22-1.41,2.78-1.3,3.87-0.77c1.47,0.71,2.21,2.16,2,3.83c-0.18,1.45-1.39,2.74-2.84,3.04
		c-0.2,0.04-0.4,0.08-0.64,0.12c0.51,0.88,0.82,1.78,0.69,2.78c-0.28,2.15-1.85,3.61-4.03,3.72c-0.14,0.01-0.28,0-0.42,0
		c-11.9,0-23.8,0-35.7,0c-1.76,0-3.15-0.66-3.99-2.25c-0.67-1.27-0.64-2.56,0.02-3.84c0.06-0.12,0.14-0.24,0.23-0.41
		c-2.09-0.35-3.38-1.47-3.5-3.63c-0.09-1.49,0.84-2.91,2.22-3.46c1.24-0.49,2.52-0.47,3.72,0.89c0.38-0.42,0.74-0.85,1.13-1.24
		c1.26-1.28,2.54-2.53,3.79-3.82c0.21-0.22,0.36-0.56,0.41-0.86c0.37-2.61,0.68-5.22,1.08-7.83c0.52-3.45,3.55-6.04,7.05-6.09
		c1.12-0.01,1.88,0.74,1.92,1.86c0.03,0.93-0.04,1.89,0.17,2.78c0.43,1.87,2.18,2.99,4.1,2.78c1.83-0.2,3.22-1.77,3.31-3.72
		c0.02-0.58,0-1.16,0.01-1.74c0.01-1.27,0.81-2.01,2.09-1.94c3.71,0.2,6.5,2.85,6.97,6.61c0.31,2.49,0.65,4.98,0.98,7.47
		c0.02,0.18,0.09,0.39,0.22,0.52C45.75,40.8,47.47,42.51,49.21,44.26z M35.54,26.16c0,0.61,0,1.13,0,1.65
		c0,1.05-0.18,2.05-0.71,2.99c-1.08,1.92-3.33,3.13-5.41,2.84c-2.39-0.33-4.3-1.95-4.79-4.2c-0.18-0.85-0.13-1.74-0.19-2.62
		c-0.01-0.2-0.03-0.4-0.04-0.67c-0.69,0.13-1.29,0.25-1.9,0.37c0.3,2.59,0.6,5.09,0.89,7.58c0.26,2.2,0.52,4.39,0.78,6.59
		c0.2,1.68-0.26,3.27-0.68,4.87c-0.26,1.03-0.51,2.06-0.77,3.12c4.87,0,9.68,0,14.53,0c-0.24-0.95-0.47-1.84-0.69-2.75
		c-0.42-1.72-0.98-3.42-0.77-5.23c0.37-3.09,0.73-6.17,1.09-9.26c0.19-1.62,0.38-3.24,0.58-4.94
		C36.85,26.39,36.24,26.28,35.54,26.16z M28.11,55.24c0.21,0,0.37,0,0.53,0c6.41,0,12.82,0,19.23,0c0.19,0,0.39-0.01,0.58-0.03
		c1.42-0.13,2.41-1.54,2.05-2.92c-0.3-1.17-1.22-1.83-2.56-1.83c-6.45,0-12.89,0-19.34,0c-0.15,0-0.31,0-0.49,0
		C28.11,52.07,28.11,53.62,28.11,55.24z M39.12,27.54c-0.14,1.17-0.28,2.25-0.38,3.33c-0.07,0.76-0.22,1.55-0.1,2.29
		c0.32,1.99,0.77,3.96,1.15,5.94c0.21,1.07,0.66,1.99,1.43,2.76c2.2,2.2,4.4,4.4,6.6,6.59c0.12,0.12,0.29,0.25,0.43,0.25
		c1.18,0.01,2.36,0.04,3.53-0.04c0.9-0.06,1.57-0.94,1.59-1.89c0.02-0.91-0.63-1.71-1.53-1.88c-0.71-0.13-1.25,0.19-1.37,0.88
		c-0.07,0.43-0.21,0.78-0.67,0.91c-0.46,0.14-0.77-0.12-1.06-0.42c-2.04-2.04-4.08-4.07-6.1-6.13c-0.24-0.24-0.44-0.61-0.49-0.95
		c-0.36-2.47-0.69-4.94-0.99-7.41C40.98,30.17,40.52,28.7,39.12,27.54z M20.86,27.53c-1.17,1-1.75,2.18-1.94,3.56
		c-0.37,2.66-0.7,5.32-1.08,7.98c-0.05,0.34-0.19,0.74-0.42,0.98c-2.08,2.12-4.18,4.22-6.3,6.29c-0.22,0.22-0.65,0.33-0.98,0.3
		c-0.4-0.03-0.56-0.4-0.62-0.8c-0.12-0.77-0.66-1.11-1.41-0.92C7.2,45.15,6.55,46,6.62,46.89c0.07,0.97,0.77,1.74,1.75,1.79
		c1.1,0.06,2.21,0.04,3.32,0.02c0.16,0,0.36-0.13,0.48-0.26c2.2-2.19,4.4-4.39,6.6-6.59c0.77-0.77,1.22-1.69,1.43-2.76
		c0.26-1.34,0.56-2.68,0.8-4.03c0.2-1.15,0.58-2.27,0.37-3.48C21.13,30.29,21.03,28.96,20.86,27.53z M17.88,50.49
		c-0.14-0.01-0.26-0.02-0.38-0.02c-1.84,0-3.69-0.01-5.53,0c-1.48,0.01-2.54,1.01-2.54,2.38c0,1.38,1.02,2.38,2.52,2.39
		c4.65,0.01,9.31,0.01,13.96,0c0.14,0,0.27-0.04,0.41-0.06c0-0.06,0.01-0.11,0.01-0.17c-0.15-0.05-0.3-0.11-0.45-0.14
		c-1.85-0.42-3.7-0.83-5.54-1.24c-1.53-0.34-2.27-1.19-2.4-2.77C17.92,50.74,17.9,50.62,17.88,50.49z M22.12,38.5
		c-0.06,0.28-0.12,0.46-0.15,0.65c-0.27,1.65-1.02,3.04-2.22,4.21c-1.65,1.61-3.26,3.25-4.89,4.88c-0.13,0.13-0.25,0.26-0.46,0.48
		c2.18,0,4.22,0.01,6.25-0.02c0.12,0,0.31-0.25,0.35-0.41c0.34-1.31,0.59-2.64,1-3.93C22.63,42.44,22.48,40.53,22.12,38.5z
		 M37.89,38.61c-0.05,0.01-0.1,0.01-0.15,0.02c-0.06,1.24-0.32,2.51-0.13,3.72c0.32,2.06,0.91,4.07,1.42,6.09
		c0.03,0.13,0.33,0.27,0.51,0.27c1.84,0.02,3.69,0.01,5.54,0.01c0.13,0,0.26-0.03,0.47-0.05c-0.18-0.2-0.31-0.33-0.44-0.47
		c-1.66-1.67-3.33-3.33-4.99-5c-0.91-0.91-1.59-1.96-1.88-3.23C38.11,39.52,38,39.06,37.89,38.61z M26.27,53.16
		c0-0.95,0-1.81,0-2.67c-2.22,0-4.39,0-6.56,0c-0.07,0.78,0.12,1.2,0.73,1.35C22.36,52.3,24.3,52.72,26.27,53.16z"/>
</g>
</svg>
